<?xml version="1.0" encoding="UTF-8"?>
<svg version="1.1" xmlns="http://www.w3.org/2000/svg" width="341" height="297">
<path d="M0 0 C112.53 0 225.06 0 341 0 C341 98.01 341 196.02 341 297 C228.47 297 115.94 297 0 297 C0 198.99 0 100.98 0 0 Z " fill="#FEFEFE" transform="translate(0,0)"/>
<path d="M0 0 C44.43906896 -3.35318978 44.43906896 -3.35318978 55.2421875 3.703125 C60.27464882 8.08410532 63.92153903 13.10661733 67 19 C67.36270996 19.6923877 67.72541992 20.38477539 68.09912109 21.09814453 C70.10409628 25.28509913 71.08226244 29.47249472 72 34 C72.80237894 36.93236718 73.68574629 39.83915201 74.5625 42.75 C74.87417114 43.82930786 74.87417114 43.82930786 75.19213867 44.93041992 C76.36857921 49.00271408 77.67781786 52.97318653 79.1875 56.9375 C80.77005319 61.12177062 81.71665612 65.19378327 82.50390625 69.58984375 C83.14995892 72.72854057 84.14188201 75.6851589 85.21875 78.69921875 C85.81444156 80.4535304 86.34279055 82.23085725 86.83984375 84.015625 C88.67136955 90.5218111 90.97591118 96.89119918 93.16601562 103.28320312 C93.68905273 104.83104492 93.68905273 104.83104492 94.22265625 106.41015625 C94.53984619 107.33965088 94.85703613 108.26914551 95.18383789 109.22680664 C96.04032589 112.13702118 96.55995755 115.00091595 97 118 C99.4655509 113.24500897 101.17839339 108.59783591 102.375 103.375 C103.59975191 98.32135195 105.19842045 93.55790477 107.03515625 88.69921875 C107.97543943 86.06870994 108.73111765 83.45181273 109.4375 80.75 C110.74828167 75.74777375 112.35168948 70.8789616 114.01879883 65.98510742 C115.91616194 60.36536613 117.59810945 54.69289527 119.21240234 48.98583984 C120.39591649 44.85406267 121.75897136 40.8540188 123.34179688 36.85717773 C124.02897046 34.91825731 124.47455322 33.01617596 124.875 31 C126.35151014 23.85319463 128.76099554 16.93706296 131 10 C131.31582031 9.01128906 131.63164062 8.02257812 131.95703125 7.00390625 C133.86241114 1.13758886 133.86241114 1.13758886 135 0 C136.44380163 -0.15011745 137.89467022 -0.23314337 139.34521484 -0.28808594 C140.73333878 -0.34122955 140.73333878 -0.34122955 142.14950562 -0.39544678 C146.42563784 -0.51965952 150.70164119 -0.61018734 154.97900391 -0.6796875 C157.22565617 -0.72620338 159.47197588 -0.79423161 161.71728516 -0.88476562 C182.40447725 -1.70454494 182.40447725 -1.70454494 188.37026978 3.74456787 C190.4471278 6.02587325 192.21991364 8.48345913 194 11 C195.63751518 12.69531696 197.3000537 14.36729117 199 16 C206.30772183 23.30772183 205.49880382 43.30034099 206.66357422 53.17285156 C207.12567661 57.0561213 207.61631849 60.93508621 208.125 64.8125 C208.27195312 65.95332031 208.41890625 67.09414062 208.5703125 68.26953125 C208.93625239 71.08360093 208.93625239 71.08360093 210 74 C210.22518772 75.62604004 210.41294024 77.25739822 210.578125 78.890625 C210.68439209 79.89359619 210.79065918 80.89656738 210.90014648 81.92993164 C211.01559814 83.0255542 211.1310498 84.12117676 211.25 85.25 C212.34718989 95.24638592 213.77060569 105.1459666 215.4375 115.0625 C217.5459992 127.63255167 219.22171721 140.21161288 220.65600586 152.87524414 C221.41566478 159.50338166 222.29667437 166.04725031 223.55151367 172.60009766 C224.18581237 175.99430356 224.63548839 179.38564213 225.0625 182.8125 C225.21847656 184.03582031 225.37445313 185.25914062 225.53515625 186.51953125 C226.23147089 192.66057714 226.58717845 198.83480034 227 205 C176.39859904 208.50412935 176.39859904 208.50412935 164.7980957 200.49047852 C151.18772574 187.23088362 152.31156336 163.89321701 151.32666016 146.19970703 C150.94781568 139.64434197 150.12957821 133.18569859 149.1875 126.6875 C148.9508828 124.9415334 148.71506939 123.19545745 148.48046875 121.44921875 C148.32191406 120.31097656 148.16335937 119.17273438 148 118 C147.67 118 147.34 118 147 118 C146.56300781 119.69189453 146.56300781 119.69189453 146.1171875 121.41796875 C143.33602132 132.11953749 140.39579969 142.76659991 137.33203125 153.390625 C137.10483398 154.17920898 136.87763672 154.96779297 136.64355469 155.78027344 C136.06296433 157.78282562 135.47158711 159.78224279 134.87890625 161.78125 C134.10479178 164.61622922 133.56113031 167.34839831 133.125 170.25 C132.45588558 174.12770247 131.49588182 177.58751869 130.0625 181.25 C127.8259364 187.00353907 126.76621009 192.75399384 125.7109375 198.8125 C125 202 125 202 123 205 C121.10977173 205.49534607 121.10977173 205.49534607 118.77587891 205.65795898 C117.89902435 205.7214151 117.0221698 205.78487122 116.1187439 205.85025024 C115.16432404 205.8983786 114.20990417 205.94650696 113.2265625 205.99609375 C112.23886871 206.0471225 111.25117493 206.09815125 110.23355103 206.15072632 C76.00987917 207.59980379 76.00987917 207.59980379 65.69287109 198.47485352 C58.93881267 191.11396934 55.48806591 184.87132496 53.60058594 175.0144043 C52.81872387 171.09015595 51.50708838 167.7049256 50 164 C47.7432463 158.25927983 46.11262425 152.66087143 44.83984375 146.61328125 C42.46660348 136.40282891 39.19047333 126.33369294 35.75 116.4375 C33.90381968 111.04511499 32.84221135 105.62951795 32 100 C31.34 100 30.68 100 30 100 C29.95101562 100.98097656 29.90203125 101.96195312 29.8515625 102.97265625 C29.77634605 104.33595433 29.70080716 105.69923464 29.625 107.0625 C29.55539063 108.37347656 29.48578125 109.68445313 29.4140625 111.03515625 C29.13927253 114.93150546 28.63458122 118.76926994 28.08984375 122.63671875 C26.53145211 133.98110149 25.65822001 145.39312772 24.67456055 156.79882812 C24.42009583 159.7359427 24.16136083 162.67265897 23.90234375 165.609375 C23.78825417 166.95923492 23.78825417 166.95923492 23.67185974 168.33636475 C23.59830765 169.16863586 23.52475555 170.00090698 23.44897461 170.85839844 C23.38616806 171.5881488 23.32336151 172.31789917 23.25865173 173.06976318 C23 175 23 175 22 178 C21.79481067 179.97815337 21.63421956 181.96108002 21.5 183.9453125 C21.4175 185.10417969 21.335 186.26304687 21.25 187.45703125 C21.08280331 189.91012018 20.91613999 192.36324552 20.75 194.81640625 C20.6675 195.97269531 20.585 197.12898437 20.5 198.3203125 C20.39171875 199.91770264 20.39171875 199.91770264 20.28125 201.54736328 C20 204 20 204 19 205 C8.3292997 206.66637796 -5.40111401 208.36976689 -15.34472656 203.29199219 C-18.35465343 201.09208831 -20.91109652 198.80521652 -23.5 196.125 C-24.29325684 195.30418945 -25.08651367 194.48337891 -25.90380859 193.63769531 C-28.59605948 190.46779698 -30.78442362 187.78697678 -31.29199219 183.57958984 C-31.06256961 180.97999114 -30.56986531 178.54611696 -30 176 C-29.7211556 173.98876771 -29.45625893 171.97556718 -29.203125 169.9609375 C-27.46274519 157.7569983 -25.41665783 145.70223936 -22.79052734 133.65771484 C-21.20050907 126.2643146 -20.0247717 118.87238024 -19.02539062 111.37841797 C-18.32184585 106.12896887 -17.47079666 100.94421847 -16.4375 95.75 C-15.36495099 90.27610995 -14.58938868 84.8526299 -14 79.3125 C-13.33111644 73.0625086 -12.2263233 67.07774145 -10.72265625 60.96484375 C-8.6361006 52.40432626 -7.54768609 43.73571408 -6.5625 34.9921875 C-6.10641881 31.38210531 -5.32770883 27.88983576 -4.50830078 24.34716797 C-3.63256708 20.30331406 -3.04726894 16.21593661 -2.4375 12.125 C-2.18860227 10.46057618 -1.93739837 8.79649515 -1.68359375 7.1328125 C-1.57587646 6.40980957 -1.46815918 5.68680664 -1.35717773 4.94189453 C-1 3 -1 3 0 0 Z " fill="#28B7C1" transform="translate(75,49)"/>
<path d="M0 0 C3.06713244 1.36242426 5.11840293 2.89699705 7.4375 5.3125 C8.03820312 5.93125 8.63890625 6.55 9.2578125 7.1875 C9.83273437 7.785625 10.40765625 8.38375 11 9 C11.928125 9.928125 12.85625 10.85625 13.8125 11.8125 C22.9696992 20.9696992 22.19889584 38.75834242 23.66357422 51.17285156 C24.12567661 55.0561213 24.61631849 58.93508621 25.125 62.8125 C25.27195312 63.95332031 25.41890625 65.09414062 25.5703125 66.26953125 C25.93625239 69.08360093 25.93625239 69.08360093 27 72 C27.22518772 73.62604004 27.41294024 75.25739822 27.578125 76.890625 C27.68439209 77.89359619 27.79065918 78.89656738 27.90014648 79.92993164 C28.01559814 81.0255542 28.1310498 82.12117676 28.25 83.25 C29.34718989 93.24638592 30.77060569 103.1459666 32.4375 113.0625 C34.5459992 125.63255167 36.22171721 138.21161288 37.65600586 150.87524414 C38.41566478 157.50338166 39.29667437 164.04725031 40.55151367 170.60009766 C41.18581237 173.99430356 41.63548839 177.38564213 42.0625 180.8125 C42.21847656 182.03582031 42.37445313 183.25914062 42.53515625 184.51953125 C43.23147089 190.66057714 43.58717845 196.83480034 44 203 C36.92660078 203.46236469 29.85716491 203.7738931 22.77197266 203.98876953 C20.37140494 204.07844129 17.97179626 204.20065372 15.57470703 204.35791016 C-5.37862824 205.69647395 -5.37862824 205.69647395 -13.71191406 198.94824219 C-18.24727036 194.69371224 -22.4326911 190.10332142 -26 185 C-26 184.67 -26 184.34 -26 184 C-9.17 184 7.66 184 25 184 C24.071875 177.52375 23.14375 171.0475 22.1875 164.375 C20.07351508 149.59008169 17.97441635 134.80430118 16 120 C15.84289551 118.82518066 15.68579102 117.65036133 15.52392578 116.43994141 C14.6688408 110.0448692 13.81557806 103.6495589 12.96484375 97.25390625 C12.72677002 95.47125366 12.72677002 95.47125366 12.48388672 93.65258789 C12.15232762 91.14983528 11.82609562 88.64637282 11.50439453 86.14233398 C10.53862479 78.69177372 9.38528519 71.32008923 8 63.9375 C6.40440746 55.14999792 5.37091215 46.42055585 4.6484375 37.52197266 C4.02883491 29.93599005 2.89118986 22.55361394 1.4296875 15.0859375 C0.44666775 9.94931318 -0.23252602 5.23183543 0 0 Z " fill="#050707" transform="translate(258,51)"/>
<path d="M0 0 C2.18608951 3.61951599 2.54911827 7.05821217 3.03515625 11.22265625 C3.16053017 12.27373817 3.16053017 12.27373817 3.28843689 13.34605408 C3.55346885 15.58411036 3.80795518 17.82322944 4.0625 20.0625 C4.23697624 21.54109294 4.41210033 23.01960959 4.58789062 24.49804688 C6.90992367 44.19327388 8.50079419 61.27437821 2.76611328 80.42919922 C1.95355102 83.15586607 1.17473441 85.89060079 0.40234375 88.62890625 C-0.61141308 92.21901224 -1.63280238 95.80663192 -2.66796875 99.390625 C-2.89516602 100.17920898 -3.12236328 100.96779297 -3.35644531 101.78027344 C-3.93703567 103.78282562 -4.52841289 105.78224279 -5.12109375 107.78125 C-5.89520822 110.61622922 -6.43886969 113.34839831 -6.875 116.25 C-7.54411442 120.12770247 -8.50411818 123.58751869 -9.9375 127.25 C-12.1740636 133.00353907 -13.23378991 138.75399384 -14.2890625 144.8125 C-15 148 -15 148 -17 151 C-18.91041565 151.47515869 -18.91041565 151.47515869 -21.27172852 151.61035156 C-22.15813019 151.66430084 -23.04453186 151.71825012 -23.95779419 151.77383423 C-24.92176117 151.81237518 -25.88572815 151.85091614 -26.87890625 151.890625 C-27.87493866 151.93295258 -28.87097107 151.97528015 -29.89718628 152.01889038 C-33.11915254 152.13049468 -36.33902068 152.19909902 -39.5625 152.25 C-41.18310837 152.27885284 -41.18310837 152.27885284 -42.8364563 152.30828857 C-65.15624295 152.50788809 -65.15624295 152.50788809 -73.38061523 145.01074219 C-81 136.17316024 -81 136.17316024 -81 132 C-58.725 131.505 -58.725 131.505 -36 131 C-33.44224156 123.32672469 -31.74149089 117.79749077 -30.6171875 110.1640625 C-29.81080682 106.03008559 -28.43712317 102.17735865 -27.03198242 98.21313477 C-24.80079609 91.75418026 -23.2763699 85.16036369 -21.7878418 78.49633789 C-20.28619811 71.8561877 -18.29624387 65.5074834 -15.9375 59.125 C-15.10942276 56.36474253 -14.59559278 53.77333299 -14.125 50.9375 C-13.41016302 46.78809475 -12.40958607 42.88431355 -11.125 38.875 C-9.50217564 33.80818172 -8.17951061 28.74489838 -7 23.5625 C-2.09897589 2.09897589 -2.09897589 2.09897589 0 0 Z " fill="#030606" transform="translate(215,103)"/>
<path d="M0 0 C0.66 0 1.32 0 2 0 C2.48919922 1.57587891 2.48919922 1.57587891 2.98828125 3.18359375 C3.42964033 4.60157718 3.87104928 6.0195451 4.3125 7.4375 C4.63250977 8.46907227 4.63250977 8.46907227 4.95898438 9.52148438 C6.09461523 13.16567294 7.25750648 16.79816052 8.46875 20.41796875 C10.07740086 25.22628377 11.66443633 30.03880278 13.1875 34.875 C13.46013672 35.69613281 13.73277344 36.51726562 14.01367188 37.36328125 C17.11097481 47.31501651 16.08004884 56.75363045 14.75 66.9375 C12.91825049 81.72747262 11.64241529 96.56224199 10.35839844 111.40795898 C10.27564667 112.34925659 10.1928949 113.2905542 10.1076355 114.26037598 C9.95075859 116.04525644 9.79690985 117.83040641 9.64651489 119.61584473 C9.35600688 122.90619174 9.04858065 125.85425806 8 129 C7.79481067 130.97815337 7.63421956 132.96108002 7.5 134.9453125 C7.4175 136.10417969 7.335 137.26304687 7.25 138.45703125 C7.08280331 140.91012018 6.91613999 143.36324552 6.75 145.81640625 C6.6675 146.97269531 6.585 148.12898437 6.5 149.3203125 C6.39171875 150.91770264 6.39171875 150.91770264 6.28125 152.54736328 C6 155 6 155 5 156 C-5.40756983 157.5538651 -19.64622374 159.45155258 -29.23046875 154.24511719 C-35.02609797 149.69854599 -39.95324292 144.15825667 -44 138 C-44 137.67 -44 137.34 -44 137 C-29.15 136.505 -29.15 136.505 -14 136 C-13.38266534 127.90790745 -13.38266534 127.90790745 -12.77368164 119.81518555 C-12.65561157 118.30371948 -12.65561157 118.30371948 -12.53515625 116.76171875 C-12.456604 115.73006592 -12.37805176 114.69841309 -12.29711914 113.63549805 C-12 111 -12 111 -11 108 C-10.7540457 106.13947634 -10.54912001 104.27341242 -10.36743164 102.40551758 C-10.25383804 101.25614212 -10.14024445 100.10676666 -10.02320862 98.92256165 C-9.90340134 97.67581161 -9.78359406 96.42906158 -9.66015625 95.14453125 C-9.46595577 93.17287868 -9.27175295 91.20122633 -9.07742214 89.2295866 C-8.80503546 86.45756128 -8.53575931 83.68523734 -8.26654053 80.91290283 C-7.67292385 74.80218471 -7.07443114 68.69195109 -6.47265625 62.58203125 C-6.34472183 61.28246994 -6.21678741 59.98290863 -6.0849762 58.64396667 C-5.30609506 50.82088873 -4.42556896 43.02343653 -3.40454102 35.22875977 C-2.77257867 30.18488411 -2.34463855 25.12871964 -1.9375 20.0625 C-1.38699326 13.36087668 -0.77417713 6.67984689 0 0 Z " fill="#030606" transform="translate(89,98)"/>
<path d="M0 0 C8.19374186 3.75158169 17.24371073 12.4771474 20.91796875 20.73046875 C21.93652532 23.80591624 22.81424677 26.85379566 23.53173828 30.01269531 C24.38535299 33.63543971 25.49852922 37.18461219 26.5625 40.75 C26.87368774 41.82882446 26.87368774 41.82882446 27.19116211 42.92944336 C28.36893277 47.00172718 29.67768009 50.97282474 31.1875 54.9375 C32.77005319 59.12177062 33.71665612 63.19378327 34.50390625 67.58984375 C35.14995892 70.72854057 36.14188201 73.6851589 37.21875 76.69921875 C37.81644414 78.459428 38.34409994 80.24356116 38.83984375 82.03515625 C39.743891 85.25093231 40.80917774 88.39325606 41.91015625 91.546875 C42.26013672 92.5575 42.61011719 93.568125 42.97070312 94.609375 C43.69414852 96.69041292 44.4258291 98.7686076 45.16601562 100.84375 C48.62456253 110.91892544 50.3036892 119.51888914 46.5625 129.6875 C46.19801758 130.75774414 46.19801758 130.75774414 45.82617188 131.84960938 C45.23629571 133.57297308 44.62093906 135.28758327 44 137 C43.34 137 42.68 137 42 137 C41.76925781 136.23558594 41.53851563 135.47117188 41.30078125 134.68359375 C39.45707402 128.62778066 37.54361965 122.61666505 35.5 116.625 C33.36167584 110.28873885 31.60037354 103.92717111 29.9921875 97.4375 C29.06709531 93.95547633 29.06709531 93.95547633 27.52734375 90.61328125 C25.79925651 86.52509532 24.73882924 82.48721841 23.6875 78.1875 C21.4581209 69.40328492 18.70718081 60.87894152 15.77929688 52.30761719 C12.7251769 43.26390103 9.67257712 34.17515471 7.5 24.875 C6.1125582 18.95524832 4.07331265 13.30893869 1.98046875 7.60888672 C0 2.18885387 0 2.18885387 0 0 Z " fill="#060809" transform="translate(123,51)"/>
<path d="M0 0 C0.66 0 1.32 0 2 0 C2.33 1.98 2.66 3.96 3 6 C2.01 6.33 1.02 6.66 0 7 C0 4.69 0 2.38 0 0 Z " fill="#0C3A3E" transform="translate(89,98)"/>
</svg>
