<?xml version="1.0" encoding="UTF-8"?>
<svg version="1.1" xmlns="http://www.w3.org/2000/svg" width="270" height="280">
<path d="M0 0 C89.1 0 178.2 0 270 0 C270 92.4 270 184.8 270 280 C180.9 280 91.8 280 0 280 C0 187.6 0 95.2 0 0 Z " fill="#FEFEFE" transform="translate(0,0)"/>
<path d="M0 0 C17.28110344 -0.28092038 34.56148972 -0.49221876 51.84435749 -0.62174606 C59.87008009 -0.68350019 67.89438026 -0.76761201 75.91918945 -0.90527344 C82.91767321 -1.02527106 89.91512659 -1.10238801 96.91461056 -1.12906194 C100.61794414 -1.14464509 104.31833152 -1.18097596 108.02071571 -1.26876068 C132.37437294 -1.82425981 132.37437294 -1.82425981 138.15782166 2.61058044 C141.00510159 5.3962392 142.94794267 8.59404954 145 12 C147.3550952 14.24329648 147.3550952 14.24329648 149.65234375 16.00390625 C152.83571468 19.14341343 153.5467814 21.32457924 153.81640625 25.77734375 C153.77302548 27.83201475 153.68756476 29.88618003 153.5625 31.9375 C153.52092773 33.5162793 153.52092773 33.5162793 153.47851562 35.12695312 C153.2267659 42.7732341 153.2267659 42.7732341 152 44 C149.47458998 44.09504251 146.97662874 44.12557158 144.45092773 44.11352539 C143.26564987 44.11374443 143.26564987 44.11374443 142.056427 44.1139679 C139.43212178 44.11326857 136.80788664 44.10547527 134.18359375 44.09765625 C132.36898335 44.09579214 130.55437244 44.0943682 128.73976135 44.09336853 C123.9540977 44.08954279 119.1684642 44.07971204 114.3828125 44.06866455 C108.64596429 44.0566573 102.90910601 44.05204846 97.17224884 44.04621124 C88.4481449 44.03650031 79.72410716 44.01734415 71 44 C71 56.21 71 68.42 71 81 C75.64255859 80.86078125 75.64255859 80.86078125 80.37890625 80.71875 C83.39063972 80.65628476 86.4022999 80.60775331 89.41430664 80.56054688 C91.50090045 80.52041696 93.5872707 80.46589728 95.6730957 80.39648438 C98.67976041 80.29896317 101.68344386 80.25397098 104.69140625 80.21875 C105.61772354 80.17745972 106.54404083 80.13616943 107.49842834 80.09362793 C111.45098725 80.09091511 113.9777932 80.1432317 117.07945251 82.74290466 C118.9375 84.88647461 118.9375 84.88647461 120.50805664 87.02378845 C121.97506223 88.9669677 123.34552203 90.18222823 125.30859375 91.59765625 C128.4375 94.0625 128.4375 94.0625 134 101 C134 108.59 134 116.18 134 124 C112.88 124 91.76 124 70 124 C70 136.87 70 149.74 70 163 C76.73470703 162.91298828 76.73470703 162.91298828 83.60546875 162.82421875 C87.1907049 162.79205254 90.77590014 162.7649428 94.36119843 162.74124908 C98.1431942 162.71487004 101.92462765 162.67963532 105.70629883 162.62280273 C109.35030481 162.56838319 112.99376631 162.53855914 116.63814735 162.52561378 C118.02685427 162.51639143 119.41553215 162.49838147 120.80400658 162.47134972 C122.75209744 162.43493929 124.70073891 162.43295661 126.64916992 162.43237305 C127.7572551 162.42126999 128.86534027 162.41016693 130.00700378 162.39872742 C133.96855111 163.19457533 135.40511445 164.9845025 138 168 C139.47800783 169.50114186 140.95714461 171.00117315 142.4375 172.5 C143.15808594 173.2321875 143.87867188 173.964375 144.62109375 174.71875 C146.99769289 177.15158571 146.99769289 177.15158571 150.2578125 179.046875 C152.43225795 180.83316241 152.94785946 181.73209926 153.4934082 184.53515625 C153.62730788 187.62790606 153.57220495 190.65747788 153.4375 193.75 C153.41880859 194.81605469 153.40011719 195.88210937 153.38085938 196.98046875 C153.19649482 204.80350518 153.19649482 204.80350518 152 206 C150.32306664 206.13755522 148.64045 206.20627504 146.95840454 206.24810791 C145.86540543 206.27694061 144.77240631 206.30577332 143.64628601 206.33547974 C142.43608292 206.36173431 141.22587982 206.38798889 139.97900391 206.41503906 C138.71215256 206.44570465 137.44530121 206.47637024 136.14006042 206.50796509 C124.3879936 206.78340412 112.63367597 206.9406026 100.87915993 207.06656265 C92.98474612 207.15313902 85.09424776 207.27503444 77.20214844 207.48828125 C70.31080707 207.67445975 63.42220936 207.79144489 56.5283941 207.82835174 C52.88546982 207.85005805 49.24995932 207.90335363 45.60936356 208.03943634 C31.88508584 208.52786105 18.55960771 208.53947043 7.68383789 199.05444336 C-4.59218863 186.1095146 -2.43788933 166.93357018 -2.00887108 150.35949135 C-1.98168361 149.35407492 -1.95449615 148.34865849 -1.92648482 147.3127749 C-1.80660888 142.12299431 -1.79646489 136.93294057 -1.77400208 131.74198914 C-1.71526057 121.94106272 -1.55979942 112.14422809 -1.36836177 102.34509295 C-1.15498718 91.17736903 -1.05127802 80.00943546 -0.95614851 68.84017622 C-0.75826534 45.89119391 -0.42470975 22.94582751 0 0 Z " fill="#2AB7C2" transform="translate(54,54)"/>
<path d="M0 0 C0.66 0 1.32 0 2 0 C3.48046875 1.5390625 3.48046875 1.5390625 5.1875 3.625 C8.04403122 6.99439486 11.00236403 9.88744169 14.421875 12.67578125 C15.20304687 13.33126953 15.20304687 13.33126953 16 14 C16.78117187 14.61983765 16.78117187 14.61983765 17.578125 15.25219727 C19.53189599 17.65381927 19.35858002 19.22098155 19.328125 22.2890625 C19.32296875 23.31257813 19.3178125 24.33609375 19.3125 25.390625 C19.291875 26.45796875 19.27125 27.5253125 19.25 28.625 C19.24484375 29.70007813 19.2396875 30.77515625 19.234375 31.8828125 C19.15393814 39.84606186 19.15393814 39.84606186 18 41 C16.32075134 41.13538434 14.63590857 41.20183542 12.95167542 41.24137878 C11.85723114 41.26876633 10.76278687 41.29615387 9.63517761 41.32437134 C8.42340347 41.34905487 7.21162933 41.3737384 5.96313477 41.39916992 C4.69467712 41.42822922 3.42621948 41.45728851 2.11932373 41.48722839 C-9.64323386 41.748134 -21.40789269 41.89620625 -33.17265224 42.01475048 C-41.07472892 42.09621899 -48.97328509 42.2111956 -56.87329102 42.4128418 C-63.77084249 42.58887812 -70.66593173 42.69955071 -77.56569439 42.73426324 C-81.2121552 42.75469042 -84.85198272 42.80512414 -88.4963665 42.93370628 C-113.49441794 43.78049149 -113.49441794 43.78049149 -123.52402592 34.48344135 C-133 24.490658 -133 24.490658 -133 22 C-89.11 22 -45.22 22 0 22 C0 14.74 0 7.48 0 0 Z " fill="#030505" transform="translate(188,219)"/>
<path d="M0 0 C0.66 0 1.32 0 2 0 C3.74980896 1.77963525 5.2719954 3.70910006 6.84765625 5.64453125 C8.94262883 8.0955646 8.94262883 8.0955646 11.68359375 9.94921875 C14.4375 12.0625 14.4375 12.0625 19 18 C19 25.59 19 33.18 19 41 C-8.39 41 -35.78 41 -64 41 C-64 53.87 -64 66.74 -64 80 C-70.27 80 -76.54 80 -83 80 C-83 60.86 -83 41.72 -83 22 C-55.61 22 -28.22 22 0 22 C0 14.74 0 7.48 0 0 Z " fill="#020606" transform="translate(188,56)"/>
<path d="M0 0 C2.31 1.98 4.62 3.96 7 6 C8.09183594 6.79277344 9.18367188 7.58554688 10.30859375 8.40234375 C13.4375 10.9375 13.4375 10.9375 19 18 C19 25.59 19 33.18 19 41 C-2.12 41 -23.24 41 -45 41 C-45 53.87 -45 66.74 -45 80 C-51.27 80 -57.54 80 -64 80 C-64.02255577 72.58539637 -64.04091784 65.17081135 -64.05181217 57.75618076 C-64.05703982 54.31359652 -64.06413531 50.87103688 -64.07543945 47.4284668 C-64.08834235 43.47444957 -64.09322918 39.52044244 -64.09765625 35.56640625 C-64.10281754 34.32476212 -64.10797882 33.08311798 -64.11329651 31.80384827 C-64.11337204 30.66274094 -64.11344757 29.52163361 -64.11352539 28.34594727 C-64.115746 27.335569 -64.11796661 26.32519073 -64.12025452 25.28419495 C-64 23 -64 23 -63 22 C-61.03630847 21.9059933 -59.06920801 21.88256619 -57.10327148 21.88647461 C-55.84203964 21.88655014 -54.5808078 21.88662567 -53.28135681 21.88670349 C-51.89460206 21.8918109 -50.50784771 21.89702691 -49.12109375 21.90234375 C-47.71004791 21.90420799 -46.29900143 21.90563186 -44.88795471 21.90663147 C-41.16759465 21.91045621 -37.4472734 21.9202861 -33.72692871 21.93133545 C-29.93319219 21.94155052 -26.13944942 21.94612929 -22.34570312 21.95117188 C-14.89711564 21.96190842 -7.4485682 21.97950485 0 22 C0 14.74 0 7.48 0 0 Z " fill="#030506" transform="translate(169,137)"/>
</svg>
