<?xml version="1.0" encoding="UTF-8"?>
<svg version="1.1" xmlns="http://www.w3.org/2000/svg" width="283" height="293">
<path d="M0 0 C93.39 0 186.78 0 283 0 C283 96.69 283 193.38 283 293 C189.61 293 96.22 293 0 293 C0 196.31 0 99.62 0 0 Z " fill="#FEFEFE" transform="translate(0,0)"/>
<path d="M0 0 C26.70631491 -0.92269844 50.10525401 6.139692 69.98388672 24.20410156 C94.81749769 47.38365421 94.81749769 47.38365421 102.0546875 61.0703125 C102.64121094 62.16085938 103.22773438 63.25140625 103.83203125 64.375 C105.1171875 67.1953125 105.1171875 67.1953125 105.1171875 70.1953125 C102.06401071 71.57123452 98.99844724 72.91704876 95.9296875 74.2578125 C95.06537109 74.64775391 94.20105469 75.03769531 93.31054688 75.43945312 C92.46943359 75.80361328 91.62832031 76.16777344 90.76171875 76.54296875 C89.60700073 77.05355835 89.60700073 77.05355835 88.42895508 77.57446289 C85.54689098 78.34847166 83.94397873 78.13168885 81.1171875 77.1953125 C77.98181726 74.9248591 75.34015442 72.12804359 72.6171875 69.3828125 C71.84834229 68.61686768 71.07949707 67.85092285 70.28735352 67.06176758 C65.16734814 61.77140877 62.38073669 57.53738723 60.14453125 50.53125 C58.90422868 47.71109435 57.82660672 46.90975052 55.1171875 45.5078125 C52.18787941 44.40377403 49.23026554 43.58444726 46.1171875 43.1953125 C46.1171875 42.5353125 46.1171875 41.8753125 46.1171875 41.1953125 C30.10175833 41.50146825 17.11913287 42.2953541 4.1171875 52.1953125 C3.39015625 52.741875 2.663125 53.2884375 1.9140625 53.8515625 C-7.99619297 62.60115742 -14.56988862 76.751872 -17.63671875 89.2734375 C-17.90355469 90.36140625 -18.17039062 91.449375 -18.4453125 92.5703125 C-18.69410156 93.60929687 -18.94289063 94.64828125 -19.19921875 95.71875 C-19.8828125 98.1953125 -19.8828125 98.1953125 -20.8828125 99.1953125 C-21.42718801 103.84602677 -21.64270516 108.52028137 -21.8828125 113.1953125 C-21.93824219 114.25878906 -21.99367188 115.32226562 -22.05078125 116.41796875 C-22.38056285 128.83974246 -20.00819974 140.68762921 -15.9453125 152.3828125 C-15.70474121 153.07729492 -15.46416992 153.77177734 -15.21630859 154.48730469 C-12.92202146 160.72618237 -10.38440708 166.03133674 -4.1328125 169.0078125 C0.28926026 171.01026054 4.27036243 172.05299137 9.1171875 172.1953125 C10.28894531 172.28039062 11.46070313 172.36546875 12.66796875 172.453125 C19.88146309 172.78133542 25.02459776 172.8288642 30.69921875 168.09375 C33.90451752 163.80235826 34.37216803 159.03856932 34.43603516 153.82275391 C34.45590485 152.58192047 34.47577454 151.34108704 34.49624634 150.06265259 C34.50811983 148.72406187 34.51978286 147.38546926 34.53125 146.046875 C34.54997841 144.66538355 34.56955306 143.28390334 34.5899353 141.9024353 C34.64108611 138.282518 34.68080247 134.66256368 34.71807861 131.04248047 C34.75822577 127.34203055 34.80926902 123.64173235 34.859375 119.94140625 C34.9559321 112.69281273 35.04040084 105.44414529 35.1171875 98.1953125 C42.21479177 97.94066973 49.31120987 97.76619962 56.41235352 97.64599609 C58.82491058 97.59586588 61.23716622 97.52773973 63.64868164 97.44091797 C83.62535097 96.7399822 83.62535097 96.7399822 89.40283203 100.11425781 C91.62109375 102.609375 91.62109375 102.609375 93.18544006 105.30639648 C95.25251347 108.39769163 97.34078905 109.97895649 100.2746582 112.22558594 C106.01695657 117.89336605 106.20819837 122.84344207 106.27701283 130.51522446 C106.24931236 133.44396986 106.17238107 136.36909088 106.09375 139.296875 C106.07507407 141.34521008 106.06085112 143.39359016 106.0508728 145.44198608 C106.01288328 150.80582318 105.91482797 156.16690631 105.80383301 161.52966309 C105.70111284 167.01288605 105.65577436 172.49655877 105.60546875 177.98046875 C105.49856248 188.71995303 105.32813242 199.45740284 105.1171875 210.1953125 C102.69445806 210.26132453 100.27353557 210.30969344 97.8503418 210.34790039 C97.16616936 210.3683567 96.48199692 210.38881302 95.77709198 210.40988922 C91.90997162 210.45566046 89.29835154 210.42046526 86.38671875 207.75390625 C85.57589844 206.72394531 84.76507813 205.69398438 83.9296875 204.6328125 C82.39144635 202.69654852 80.85860006 200.96669773 79.1171875 199.1953125 C77.06965227 199.03606241 77.06965227 199.03606241 75.1171875 200.1953125 C73.85068359 200.80632812 73.85068359 200.80632812 72.55859375 201.4296875 C71.60855469 201.92984375 70.65851563 202.43 69.6796875 202.9453125 C54.63318691 210.56936152 41.38996897 213.62082411 24.6171875 213.5703125 C23.90820312 213.56943634 23.19921875 213.56856018 22.46875 213.56765747 C-5.62225357 213.45317332 -27.7198722 204.36191513 -48.0703125 184.83203125 C-50.7208058 182.23872051 -50.7208058 182.23872051 -53.2578125 180.46484375 C-53.7940625 180.04589844 -54.3303125 179.62695312 -54.8828125 179.1953125 C-54.8828125 178.5353125 -54.8828125 177.8753125 -54.8828125 177.1953125 C-55.7490625 176.8240625 -55.7490625 176.8240625 -56.6328125 176.4453125 C-59.21221229 175.01231262 -60.94402842 173.41106574 -62.8828125 171.1953125 C-62.8828125 170.5353125 -62.8828125 169.8753125 -62.8828125 169.1953125 C-63.5428125 169.1953125 -64.2028125 169.1953125 -64.8828125 169.1953125 C-66.40266133 167.51995791 -67.84987703 165.77825628 -69.2578125 164.0078125 C-70.02867188 163.04488281 -70.79953125 162.08195313 -71.59375 161.08984375 C-72.34914063 160.13464844 -73.10453125 159.17945313 -73.8828125 158.1953125 C-74.57890625 157.3496875 -75.275 156.5040625 -75.9921875 155.6328125 C-91.75440597 135.31127464 -96.0186853 107.32000371 -93.1328125 82.4453125 C-92.11494028 75.69484045 -90.37811264 69.53957233 -87.8828125 63.1953125 C-87.42648438 62.02742188 -86.97015625 60.85953125 -86.5 59.65625 C-83.61615186 52.60516581 -80.50525653 46.2548969 -75.8828125 40.1953125 C-75.21378906 39.31230469 -74.54476562 38.42929688 -73.85546875 37.51953125 C-58.62232627 18.16353474 -36.8195253 4.58828033 -12.33203125 0.80078125 C-8.23026142 0.33396374 -4.12168309 0.20732812 0 0 Z " fill="#29B7C2" transform="translate(133.8828125,50.8046875)"/>
<path d="M0 0 C2.31 1.98 4.62 3.96 7 6 C8.07824036 6.81253235 9.15648071 7.6250647 10.26739502 8.46221924 C15.2116842 12.4188983 19.00807571 16.17363982 20.04528809 22.6204834 C20.53707439 28.18283665 20.35246759 33.72341994 20.171875 39.296875 C20.14945445 41.34233591 20.13239136 43.38786188 20.12042236 45.43341064 C20.07490554 50.78135488 19.95731375 56.12530059 19.82397461 61.47167969 C19.7005491 66.94150712 19.64627086 72.41198979 19.5859375 77.8828125 C19.45777722 88.59028528 19.25335805 99.29480841 19 110 C16.57727056 110.06601203 14.15634807 110.11438094 11.7331543 110.15258789 C11.04898186 110.1730442 10.36480942 110.19350052 9.65990448 110.21457672 C5.79278412 110.26034796 3.18116404 110.22515276 0.26953125 107.55859375 C-0.54128906 106.52863281 -1.35210937 105.49867188 -2.1875 104.4375 C-3.72574115 102.50123602 -5.25858744 100.77138523 -7 99 C-9.04753523 98.84074991 -9.04753523 98.84074991 -11 100 C-11.84433594 100.40734375 -12.68867188 100.8146875 -13.55859375 101.234375 C-14.50863281 101.73453125 -15.45867187 102.2346875 -16.4375 102.75 C-31.48400059 110.37404902 -44.72721853 113.42551161 -61.5 113.375 C-62.20898438 113.37412384 -62.91796875 113.37324768 -63.6484375 113.37234497 C-91.75592346 113.25779365 -113.84649532 104.06962588 -134.3828125 84.734375 C-136.5531127 82.46689718 -137.88748248 80.88430468 -139 78 C-134.90090839 79.49334936 -131.37601995 81.53543902 -127.625 83.75 C-106.46851818 95.33385794 -81.33608887 97.0073657 -58 92 C-55.98072131 91.36096812 -54.05823212 90.64937345 -52.10546875 89.83203125 C-50 89 -50 89 -47.30078125 88.19921875 C-39.8824785 85.99797074 -34.03089998 82.8236609 -27.6171875 78.609375 C-25 77 -25 77 -23 77 C-21.55036041 78.90374355 -20.18815677 80.87467159 -18.875 82.875 C-17.78832031 84.51082031 -17.78832031 84.51082031 -16.6796875 86.1796875 C-15 89 -15 89 -15 91 C-10.05 91 -5.1 91 0 91 C0 60.97 0 30.94 0 0 Z " fill="#030505" transform="translate(220,151)"/>
<path d="M0 0 C5.92959729 4.36368251 9.88367645 9.09606834 13.21875 15.6328125 C9.25875 14.6428125 5.29875 13.6528125 1.21875 12.6328125 C1.21875 11.9728125 1.21875 11.3128125 1.21875 10.6328125 C-14.79667917 10.93896825 -27.77930463 11.7328541 -40.78125 21.6328125 C-41.50828125 22.179375 -42.2353125 22.7259375 -42.984375 23.2890625 C-52.89463047 32.03865742 -59.46832612 46.189372 -62.53515625 58.7109375 C-62.80199219 59.79890625 -63.06882812 60.886875 -63.34375 62.0078125 C-63.59253906 63.04679687 -63.84132813 64.08578125 -64.09765625 65.15625 C-64.78125 67.6328125 -64.78125 67.6328125 -65.78125 68.6328125 C-66.32562551 73.28352677 -66.54114266 77.95778137 -66.78125 82.6328125 C-66.83667969 83.69628906 -66.89210938 84.75976562 -66.94921875 85.85546875 C-67.40964332 103.19812739 -62.21410992 118.75072771 -55.78125 134.6328125 C-64.8558221 131.49282215 -71.1271261 122.72347777 -75.78125 114.6328125 C-77.67372088 110.37090653 -79.24651383 106.03389417 -80.78125 101.6328125 C-81.36124848 100.17314965 -81.94402468 98.71458301 -82.53125 97.2578125 C-89.90904291 75.86221305 -87.57307213 46.82002531 -77.78125 26.6328125 C-77.48976074 26.02663086 -77.19827148 25.42044922 -76.89794922 24.79589844 C-72.29016948 15.46059157 -66.61134448 8.5062891 -58.78125 1.6328125 C-58.16378906 1.08882812 -57.54632813 0.54484375 -56.91015625 -0.015625 C-52.15529566 -3.77846432 -46.51406431 -5.57623173 -40.78125 -7.3671875 C-40.16507813 -7.56183594 -39.54890625 -7.75648437 -38.9140625 -7.95703125 C-25.27371913 -10.5801742 -11.58092705 -7.48248209 0 0 Z " fill="#020405" transform="translate(178.78125,81.3671875)"/>
<path d="M0 0 C4.05846199 1.61757316 6.80747815 4.5016104 9.8125 7.5625 C10.34512451 8.10334229 10.87774902 8.64418457 11.42651367 9.20141602 C30 28.30048708 30 28.30048708 30 39 C26.94682321 40.37592202 23.88125974 41.72173626 20.8125 43.0625 C19.94818359 43.45244141 19.08386719 43.84238281 18.19335938 44.24414062 C17.35224609 44.60830078 16.51113281 44.97246094 15.64453125 45.34765625 C14.87471924 45.68804932 14.10490723 46.02844238 13.31176758 46.37915039 C10.43709272 47.1511747 8.81991775 46.92825223 6 46 C3.0836725 43.87721865 0.65214845 41.2554864 -1.875 38.6875 C-2.57625 38.01009766 -3.2775 37.33269531 -4 36.63476562 C-4.98613281 35.64573242 -4.98613281 35.64573242 -5.9921875 34.63671875 C-6.89493408 33.73505981 -6.89493408 33.73505981 -7.81591797 32.81518555 C-9 31 -9 31 -8.89038086 28.87915039 C-7.34382337 25.61513806 -3.89383627 24.92575661 -0.6875 23.75 C-0.01009766 23.481875 0.66730469 23.21375 1.36523438 22.9375 C4.8145285 21.61577635 7.2620166 21 11 21 C10.34 18.03 9.68 15.06 9 12 C8.34 12 7.68 12 7 12 C6.5875 11.13375 6.175 10.2675 5.75 9.375 C4.02167851 6.04180856 2.12923592 3.08372099 0 0 Z " fill="#070909" transform="translate(209,82)"/>
<path d="M0 0 C0.66 0.33 1.32 0.66 2 1 C-2.95 5.95 -7.9 10.9 -13 16 C-13 11.93645091 -11.47015238 10.94829419 -8.75 8 C-7.96109375 7.13375 -7.1721875 6.2675 -6.359375 5.375 C-4.3351828 3.33740256 -2.34982916 1.63841299 0 0 Z " fill="#D2D2D2" transform="translate(141,100)"/>
<path d="M0 0 C4.59306496 1.4859916 7.43569245 3.85014682 11 7 C10.01 8.485 10.01 8.485 9 10 C8.67 9.01 8.34 8.02 8 7 C7.401875 6.71125 6.80375 6.4225 6.1875 6.125 C3.30899659 4.64462682 1.89900001 2.57721429 0 0 Z " fill="#446466" transform="translate(71,221)"/>
</svg>
