<?xml version="1.0" encoding="UTF-8"?>
<svg version="1.1" xmlns="http://www.w3.org/2000/svg" width="404" height="362">
<path d="M0 0 C133.32 0 266.64 0 404 0 C404 119.46 404 238.92 404 362 C270.68 362 137.36 362 0 362 C0 242.54 0 123.08 0 0 Z " fill="#FEFEFE" transform="translate(0,0)"/>
<path d="M0 0 C33 0 33 0 41.375 5.08203125 C43.39787199 7.30559553 45.19154417 9.44136158 47 11.8125 C47.96935927 12.93125464 48.94729746 14.04263249 49.93359375 15.14648438 C52.29576583 17.83223286 54.5399589 20.58892716 56.74609375 23.40362549 C58.7348843 25.93559672 60.77506883 28.42508682 62.8125 30.91796875 C63.89917969 32.2496106 63.89917969 32.2496106 65.0078125 33.6081543 C67.56590515 36.67943294 70.24466619 39.60634718 73 42.5 C76.63254987 46.37161659 80.11776539 50.28935456 83.4375 54.4375 C88.02261896 60.15010723 92.99543477 65.45110567 98.00390625 70.7890625 C100.78986076 73.7610903 103.47868988 76.80388179 106.13671875 79.890625 C108.15243434 82.17256718 110.22181862 84.39749633 112.29907227 86.62329102 C117.34249278 92.029244 122.14489207 97.53724312 126.77734375 103.3046875 C129.9004932 107.09198648 133.21058004 110.69369517 136.54296875 114.296875 C139.42881252 117.47176194 142.20780911 120.74244396 145 124 C145.33 83.08 145.66 42.16 146 0 C170 0 170 0 175.5 4.5 C176.69884847 6.31245264 177.86653484 8.14595606 179 10 C180.43551452 11.5621031 181.91344268 13.08665539 183.4375 14.5625 C184.07558594 15.20316406 184.71367187 15.84382813 185.37109375 16.50390625 C186.94477382 18.08724519 186.94477382 18.08724519 189 19 C189 80.71 189 142.42 189 206 C155 206 155 206 145 197 C143.02 194.525 143.02 194.525 141 192 C139.54117543 190.80052202 138.08163201 189.60185989 136.61328125 188.4140625 C133.39996862 185.59755119 130.75191954 182.25737415 128 179 C126.06576975 176.72636843 124.1271593 174.45650079 122.1875 172.1875 C121.41224976 171.27919434 121.41224976 171.27919434 120.62133789 170.35253906 C117.41615531 166.61041223 114.14846003 162.9394472 110.8125 159.3125 C107.53038182 155.74155542 104.413041 152.09317325 101.375 148.3125 C98.08542295 144.23527774 94.62756727 140.52048141 90.87890625 136.8671875 C87.73173125 133.73964145 84.88562413 130.36745377 82 127 C79.87768848 124.53933844 77.75170581 122.08186402 75.625 119.625 C75.05998779 118.97192871 74.49497559 118.31885742 73.9128418 117.64599609 C69.98316379 113.11205718 65.99814439 108.63281748 61.97265625 104.18359375 C55.44126629 96.95379774 49.24250901 89.49101081 43 82 C42.67 122.92 42.34 163.84 42 206 C18 206 18 206 12.8125 201.75 C11.83858594 200.18880107 10.89550449 198.60745837 10 197 C8.36927384 195.62294236 6.7133562 194.27277889 5 193 C3.1875 191.375 3.1875 191.375 2 190 C2 189.34 2 188.68 2 188 C1.34 188 0.68 188 0 188 C0 125.96 0 63.92 0 0 Z " fill="#28B7C2" transform="translate(109,81)"/>
<path d="M0 0 C4.35153224 3.72988478 8.3499036 7.25130089 12.3125 11.3125 C15.3504529 14.57386419 15.3504529 14.57386419 19 17 C19 78.71 19 140.42 19 204 C-15 204 -15 204 -25 195 C-26.98 192.525 -26.98 192.525 -29 190 C-29.7425 189.443125 -30.485 188.88625 -31.25 188.3125 C-31.8275 187.879375 -32.405 187.44625 -33 187 C-33 186.34 -33 185.68 -33 185 C-22.11 185 -11.22 185 0 185 C0 123.95 0 62.9 0 0 Z " fill="#050505" transform="translate(279,83)"/>
<path d="M0 0 C0.66 0 1.32 0 2 0 C3.43549726 1.59334239 4.79827327 3.25251082 6.125 4.9375 C6.84945312 5.85402344 7.57390625 6.77054688 8.3203125 7.71484375 C8.7229557 8.23335687 9.12559891 8.75186998 9.54044342 9.28609562 C11.01823581 11.08761619 11.01823581 11.08761619 12.97975922 12.84701443 C17.17290749 16.92326163 19.50375311 19.93545851 19.96203613 25.86573792 C19.98501142 28.10649093 19.96443466 30.3479696 19.90820312 32.58813477 C19.90937134 33.8183989 19.91053955 35.04866302 19.91174316 36.31620789 C19.90714889 39.66425601 19.86726348 43.00827545 19.8111515 46.35561109 C19.76087262 49.86284139 19.75642084 53.37013519 19.74694824 56.87767029 C19.7221608 63.50775052 19.65662023 70.13676554 19.57615232 76.76637834 C19.48648802 84.31889202 19.4426862 91.87145869 19.40258884 99.42437279 C19.31914452 114.95019709 19.17858618 130.47496076 19 146 C15.10835856 146.12375839 11.21722532 146.19905158 7.32421875 146.265625 C5.67238586 146.31904053 5.67238586 146.31904053 3.98718262 146.37353516 C-4.2120864 146.47887245 -4.2120864 146.47887245 -8.26660156 144.01464844 C-10.16219057 141.77983862 -11.57631079 139.55465727 -13 137 C-14.65191491 135.64843325 -16.31522656 134.31037934 -18 133 C-22 128.35135135 -22 128.35135135 -22 127 C-14.74 127 -7.48 127 0 127 C0 85.09 0 43.18 0 0 Z " fill="#020607" transform="translate(132,141)"/>
<path d="M0 0 C5.00708781 4.20260712 9.75592025 8.56303322 14.375 13.1875 C15.36270386 14.17532471 15.36270386 14.17532471 16.37036133 15.18310547 C20.79825405 19.66273227 24.86193732 24.30780745 28.76171875 29.2578125 C31.38135859 32.46721419 34.16675523 35.47984591 37 38.5 C40.62981075 42.37440869 44.11751007 46.28903551 47.4375 50.4375 C52.02261896 56.15010723 56.99543477 61.45110567 62.00390625 66.7890625 C64.78986076 69.7610903 67.47868988 72.80388179 70.13671875 75.890625 C72.15243434 78.17256718 74.22181862 80.39749633 76.29907227 82.62329102 C81.34374713 88.03058852 86.1466658 93.54055146 90.78125 99.30859375 C94.67527424 104.03215485 98.86019304 108.49251281 103 113 C104.38160715 114.51483356 105.75741481 116.03499557 107.125 117.5625 C107.68445313 118.18253906 108.24390625 118.80257812 108.8203125 119.44140625 C110 121 110 121 110 123 C106.98766747 121.67198243 105.16241632 120.33574162 103.0625 117.8125 C102.46050781 117.10222656 101.85851562 116.39195312 101.23828125 115.66015625 C100.49964844 114.78230469 99.76101562 113.90445313 99 113 C96.92414526 110.57685397 94.83778487 108.16286932 92.75 105.75 C92.18901611 105.10039307 91.62803223 104.45078613 91.05004883 103.78149414 C87.51771842 99.70533951 83.92035476 95.70198767 80.25 91.75 C76.90472791 88.13479241 73.70583672 84.46764362 70.625 80.625 C66.01594946 74.89684546 61.02693288 69.57276809 56 64.21484375 C53.19161201 61.21882639 50.47690116 58.15418724 47.796875 55.04296875 C45.91891764 52.90781288 43.99308935 50.82063285 42.05981445 48.7355957 C38.12323497 44.488216 34.3052297 40.21471482 30.6875 35.6875 C25.8395994 29.66038033 20.54924426 24.08766203 15.24609375 18.46484375 C12.21012731 15.24135408 9.27897888 11.94119362 6.3984375 8.578125 C5.0150019 7.01692952 3.56579741 5.57015884 2.0625 4.125 C0 2 0 2 0 0 Z " fill="#1C2B2D" transform="translate(145,85)"/>
<path d="M0 0 C5.11808647 4.2849096 9.92062875 8.76694356 14.625 13.5 C15.26695312 14.13808594 15.90890625 14.77617188 16.5703125 15.43359375 C24.01335735 22.89189074 24.01335735 22.89189074 27 27 C26.67 27.99 26.34 28.98 26 30 C11.7724084 14.85230422 11.7724084 14.85230422 6.3984375 8.578125 C5.0150019 7.01692952 3.56579741 5.57015884 2.0625 4.125 C0 2 0 2 0 0 Z " fill="#243334" transform="translate(145,85)"/>
<path d="M0 0 C3.72355269 3.66909488 7.2943376 7.44674879 10.8125 11.3125 C11.56563477 12.13717773 11.56563477 12.13717773 12.33398438 12.97851562 C13.55703968 14.31805239 14.77867008 15.65888992 16 17 C15.34 17.66 14.68 18.32 14 19 C11.83801955 16.78602085 9.69857311 14.55146249 7.5625 12.3125 C6.64500977 11.37374023 6.64500977 11.37374023 5.70898438 10.41601562 C0.20252913 4.60533633 0.20252913 4.60533633 0 0 Z " fill="#223536" transform="translate(172,113)"/>
<path d="M0 0 C3.52492319 3.48681591 6.95288776 7.03920996 10.3125 10.6875 C11.19550781 11.64011719 12.07851562 12.59273437 12.98828125 13.57421875 C15 16 15 16 15 18 C11.02420899 16.41524414 8.67472942 13.81185383 5.8125 10.6875 C4.93207031 9.74261719 4.05164063 8.79773438 3.14453125 7.82421875 C1.02451075 5.03227918 0.31944911 3.43877574 0 0 Z " fill="#283637" transform="translate(219,166)"/>
<path d="M0 0 C5.66129431 4.69766975 10.85228904 9.74723372 16 15 C15.34 15.66 14.68 16.32 14 17 C13.24074219 16.16855469 12.48148438 15.33710937 11.69921875 14.48046875 C10.69534886 13.38277925 9.6914406 12.28512484 8.6875 11.1875 C8.18798828 10.64029297 7.68847656 10.09308594 7.17382812 9.52929688 C4.23247907 6.31255724 4.23247907 6.31255724 1.14453125 3.23828125 C0 2 0 2 0 0 Z " fill="#345C5F" transform="translate(145,85)"/>
<path d="M0 0 C1.1055189 0.93590504 2.20935453 1.87379858 3.3125 2.8125 C3.92738281 3.33457031 4.54226562 3.85664063 5.17578125 4.39453125 C6.85424679 5.87172469 8.43882034 7.40039131 10 9 C9.67 9.99 9.34 10.98 9 12 C7.49405319 10.38050958 5.99539332 8.75424026 4.5 7.125 C3.6646875 6.22007812 2.829375 5.31515625 1.96875 4.3828125 C0 2 0 2 0 0 Z " fill="#182324" transform="translate(209,156)"/>
<path d="M0 0 C1.15224028 0.92961422 2.29659176 1.8690125 3.4375 2.8125 C4.07558594 3.33457031 4.71367187 3.85664063 5.37109375 4.39453125 C7 6 7 6 8 9 C4.20620942 7.50958227 2.31656242 5.30937488 0 2 C0 1.34 0 0.68 0 0 Z " fill="#132829" transform="translate(247,199)"/>
</svg>
