<?xml version="1.0" encoding="UTF-8"?>
<svg version="1.1" xmlns="http://www.w3.org/2000/svg" width="283" height="260">
<path d="M0 0 C93.39 0 186.78 0 283 0 C283 85.8 283 171.6 283 260 C189.61 260 96.22 260 0 260 C0 174.2 0 88.4 0 0 Z " fill="#FDFEFE" transform="translate(0,0)"/>
<path d="M0 0 C2.61322252 -0.50509115 4.98095152 -0.80038199 7.62109375 -0.9609375 C8.38933472 -1.00905075 9.15757568 -1.057164 9.94909668 -1.10673523 C12.44552245 -1.23443266 14.93853883 -1.3155315 17.4375 -1.375 C18.27725372 -1.39513153 19.11700745 -1.41526306 19.98220825 -1.43600464 C30.53845743 -1.54666405 38.35400271 -0.87269046 46.49047852 6.36279297 C55.94656547 16.31229841 55.94656547 16.31229841 56.04736328 21.38232422 C55.5600572 23.70605686 54.86105201 25.78971827 54 28 C53.67 29.22203125 53.34 30.4440625 53 31.703125 C52.505 33.45882812 52.505 33.45882812 52 35.25 C50.33544711 41.28006388 49.21073896 47.28662829 48.39453125 53.48828125 C48 56 48 56 47 58 C46.79533366 59.97559868 46.63450941 61.95588811 46.5 63.9375 C46.2759354 67.23044938 46.04612306 69.86163082 45 73 C44.02571336 81.49121478 43.83088343 90.01607231 43.796875 98.5546875 C43.79117493 99.6993045 43.78547485 100.84392151 43.77960205 102.02322388 C43.77023162 104.42481585 43.76365015 106.82642023 43.75976562 109.22802734 C43.75004209 112.85928097 43.71893403 116.48997184 43.6875 120.12109375 C43.63308877 132.11995292 43.8118102 143.3807765 47 155 C47.28584961 156.10585449 47.57169922 157.21170898 47.86621094 158.35107422 C48.80629398 161.94262699 49.82598642 165.47795925 51 169 C53.97973615 169.08184423 56.95716832 169.14089764 59.9375 169.1875 C60.76830078 169.21263672 61.59910156 169.23777344 62.45507812 169.26367188 C71.83449883 169.37315928 79.81700286 166.89312034 86.74609375 160.3515625 C94.58898076 152.08701489 97.7630008 141.96517527 100 131 C100.24368096 129.8622099 100.24368096 129.8622099 100.49228477 128.70143414 C101.90530953 121.65811198 102.30453704 114.90711643 102.31884766 107.7355957 C102.32889328 106.56356094 102.3389389 105.39152618 102.34928894 104.18397522 C102.37993708 100.34791511 102.39710487 96.51192419 102.4140625 92.67578125 C102.43278895 90.0010632 102.4522694 87.32636121 102.4727478 84.6516571 C102.51931593 78.35509769 102.55616544 72.05852141 102.58942068 65.76187915 C102.62779847 58.58637364 102.67716694 51.41095647 102.72740483 44.23552573 C102.83039743 29.49041893 102.91976282 14.74524863 103 0 C110.07928977 -0.25490021 117.15738548 -0.42921927 124.24023438 -0.54931641 C126.64595757 -0.59940871 129.0513793 -0.66750621 131.45605469 -0.75439453 C152.54075749 -1.49681364 152.54075749 -1.49681364 157.86425781 2.20019531 C160.40231184 4.68811493 162.32032549 6.87524961 164 10 C164 10.66 164 11.32 164 12 C164.556875 12.226875 165.11375 12.45375 165.6875 12.6875 C168.89625274 14.50868399 170.70766746 16.05157495 173 19 C173.752919 22.54092954 173.6934327 26.02981141 173.6628418 29.63916016 C173.67320969 30.7115242 173.68357758 31.78388824 173.69425964 32.88874817 C173.7213872 36.43924141 173.7116448 39.98850258 173.69921875 43.5390625 C173.70513085 46.01989077 173.7123789 48.50071619 173.72090149 50.98153687 C173.73432024 56.85919448 173.72119442 62.73641326 173.69934636 68.6140331 C173.68063061 74.57577224 173.71465774 80.53680735 173.75184917 86.49845314 C173.77763765 91.63087444 173.77478751 96.76299534 173.76395607 101.89545822 C173.7624828 104.33592266 173.77000155 106.77641171 173.78720665 109.21681595 C173.87598449 124.26783471 172.53910085 136.96275922 167 151 C166.3696711 152.73100449 166.3696711 152.73100449 165.72660828 154.49697876 C159.40395358 171.62856071 147.31796138 185.04168625 133 196 C132.05125 196.7425 131.1025 197.485 130.125 198.25 C124.99164842 201.12467689 119.53785891 203.04473362 114 205 C112.91847656 205.38671875 111.83695313 205.7734375 110.72265625 206.171875 C103.11181623 208.71804693 96.00566351 209.75709744 88 210 C87.15566406 210.0515625 86.31132812 210.103125 85.44140625 210.15625 C61.50355486 211.05251901 40.75489738 202.71206778 23.0625 186.8125 C19.63468753 183.61217433 16.31075191 180.32075418 13 177 C11.96062287 175.98206369 10.92020297 174.96519134 9.87890625 173.94921875 C4.098463 168.28352161 -1.5176669 162.77757605 -6 156 C-6.71800781 154.96359375 -7.43601562 153.9271875 -8.17578125 152.859375 C-25.46783782 127.42212171 -29.81336685 94.02949865 -24.41113281 64.07373047 C-22.01030559 51.96409482 -18.77835737 40.38841841 -14 29 C-13.54367188 27.78763672 -13.54367188 27.78763672 -13.078125 26.55078125 C-9.65723126 17.47340971 -5.3845231 8.07678465 0 0 Z " fill="#29B7C2" transform="translate(70,24)"/>
<path d="M0 0 C3.36179774 1.44077046 5.59156268 3.24750021 8 6 C8 6.66 8 7.32 8 8 C8.556875 8.226875 9.11375 8.45375 9.6875 8.6875 C12.89625274 10.50868399 14.70766746 12.05157495 17 15 C17.752919 18.54092954 17.6934327 22.02981141 17.6628418 25.63916016 C17.67320969 26.7115242 17.68357758 27.78388824 17.69425964 28.88874817 C17.7213872 32.43924141 17.7116448 35.98850258 17.69921875 39.5390625 C17.70513085 42.01989077 17.7123789 44.50071619 17.72090149 46.98153687 C17.73432024 52.85919448 17.72119442 58.73641326 17.69934636 64.6140331 C17.68063061 70.57577224 17.71465774 76.53680735 17.75184917 82.49845314 C17.77763765 87.63087444 17.77478751 92.76299534 17.76395607 97.89545822 C17.7624828 100.33592266 17.77000155 102.77641171 17.78720665 105.21681595 C17.87598449 120.26783471 16.53910085 132.96275922 11 147 C10.3696711 148.73100449 10.3696711 148.73100449 9.72660828 150.49697876 C3.40395358 167.62856071 -8.68203862 181.04168625 -23 192 C-24.423125 193.11375 -24.423125 193.11375 -25.875 194.25 C-31.00835158 197.12467689 -36.46214109 199.04473362 -42 201 C-43.08152344 201.38671875 -44.16304688 201.7734375 -45.27734375 202.171875 C-52.88818377 204.71804693 -59.99433649 205.75709744 -68 206 C-68.84433594 206.0515625 -69.68867188 206.103125 -70.55859375 206.15625 C-94.49644514 207.05251901 -115.24510262 198.71206778 -132.9375 182.8125 C-136.36499749 179.6124684 -139.69554519 176.32663236 -143 173 C-144.1446875 171.8553125 -144.1446875 171.8553125 -145.3125 170.6875 C-145.869375 170.130625 -146.42625 169.57375 -147 169 C-146.505 168.01 -146.505 168.01 -146 167 C-145.5359375 167.4125 -145.071875 167.825 -144.59375 168.25 C-137.41533907 174.24986586 -129.51397843 178.25817432 -121 182 C-119.96875 182.46019531 -118.9375 182.92039063 -117.875 183.39453125 C-101.06645411 189.46190177 -78.65606565 188.03881053 -62 182 C-60.93265625 181.62617188 -59.8653125 181.25234375 -58.765625 180.8671875 C-47.21270965 176.43954735 -37.77746399 169.63497269 -29 161 C-28.2265625 160.23945313 -27.453125 159.47890625 -26.65625 158.6953125 C-20.3773836 152.13690752 -16.18105291 145.00398566 -12 137 C-11.66202393 136.40050537 -11.32404785 135.80101074 -10.97583008 135.18334961 C-7.95389201 129.61340545 -6.58766524 123.99151613 -5.3125 117.8125 C-5.10044922 116.86052734 -4.88839844 115.90855469 -4.66992188 114.92773438 C-1.83229181 101.59892942 -1.83409171 88.18243567 -1.73963928 74.61804962 C-1.71835158 71.58383628 -1.6913638 68.54971859 -1.66296387 65.51556396 C-1.59367203 57.99663176 -1.53347549 50.47763305 -1.47393799 42.95861816 C-1.42309377 36.56883929 -1.36837255 30.17911843 -1.30812073 23.78942108 C-1.2815128 20.79519856 -1.26073655 17.80097051 -1.2401123 14.80670166 C-1.22352394 12.98864472 -1.20665342 11.17059032 -1.18945312 9.35253906 C-1.1831765 8.09816544 -1.1831765 8.09816544 -1.17677307 6.81845093 C-1.11387138 1.11387138 -1.11387138 1.11387138 0 0 Z " fill="#030404" transform="translate(226,28)"/>
<path d="M0 0 C4.76586197 2.16552229 8.11846006 5.48467605 11.875 9.0625 C12.58914062 9.69349609 13.30328125 10.32449219 14.0390625 10.97460938 C18.9610746 15.70107642 18.9610746 15.70107642 19.06738281 19.24853516 C18.55802174 21.59970182 17.84851893 23.75049102 17 26 C16.67 27.22203125 16.34 28.4440625 16 29.703125 C15.67 30.87359375 15.34 32.0440625 15 33.25 C13.33544711 39.28006388 12.21073896 45.28662829 11.39453125 51.48828125 C11 54 11 54 10 56 C9.79533366 57.97559868 9.63450941 59.95588811 9.5 61.9375 C9.2759354 65.23044938 9.04612306 67.86163082 8 71 C7.02571336 79.49121478 6.83088343 88.01607231 6.796875 96.5546875 C6.78832489 98.27161301 6.78832489 98.27161301 6.77960205 100.02322388 C6.77023162 102.42481585 6.76365015 104.82642023 6.75976562 107.22802734 C6.75004209 110.85928097 6.71893403 114.48997184 6.6875 118.12109375 C6.63287922 130.15380857 6.89838499 141.33841233 10 153 C10.57777652 155.4758569 11.13088476 157.95675303 11.6875 160.4375 C12.1227192 162.29220335 12.55930714 164.14658961 13 166 C4.6822974 163.02526609 -1.2037176 156.87567739 -5 149 C-13.08576751 130.7527157 -13.49391068 111.5675933 -13.39111328 91.90429688 C-13.37508442 88.26914596 -13.39101889 84.63511664 -13.41015625 81 C-13.42530096 63.30692497 -12.69298026 45.38197721 -7.88671875 28.2421875 C-7.1155467 25.42248353 -6.4285756 22.60516432 -5.76953125 19.7578125 C-5.55022949 18.81180176 -5.33092773 17.86579102 -5.10498047 16.89111328 C-4.66765525 14.99689044 -4.23298572 13.10205205 -3.80126953 11.20654297 C-3.59743652 10.33400879 -3.39360352 9.46147461 -3.18359375 8.5625 C-3.00368896 7.78003906 -2.82378418 6.99757813 -2.63842773 6.19140625 C-1.98751206 3.95713509 -1.10372331 2.04391051 0 0 Z " fill="#040606" transform="translate(107,26)"/>
<path d="M0 0 C1.32 0.33 2.64 0.66 4 1 C3.67 1.66 3.34 2.32 3 3 C2.88242961 5.82942246 2.82477098 8.63562206 2.81054688 11.46606445 C2.80225357 12.34280319 2.79396027 13.21954193 2.78541565 14.12284851 C2.76798653 16.03259264 2.7528276 17.94235849 2.73963928 19.85213661 C2.71860232 22.88456879 2.69157175 25.91689494 2.66296387 28.94926453 C2.60319291 35.40363504 2.55120385 41.85805666 2.5 48.3125 C2.44055883 55.75628909 2.37787124 63.20002814 2.30812073 70.64372826 C2.28180639 73.61299912 2.26082344 76.58227553 2.2401123 79.55158997 C2.16033065 89.07952157 1.94639992 98.51131752 1 108 C0.67 108 0.34 108 0 108 C0 72.36 0 36.72 0 0 Z " fill="#22A0A9" transform="translate(223,26)"/>
<path d="M0 0 C0.99 0.33 1.98 0.66 3 1 C2.67 1.66 2.34 2.32 2 3 C1.87718275 5.89789023 1.81423697 8.77328428 1.79467773 11.67236328 C1.78477814 12.56998383 1.77487854 13.46760437 1.76467896 14.39242554 C1.733015 17.36836075 1.70828719 20.34431194 1.68359375 23.3203125 C1.66302845 25.38012107 1.64203209 27.43992539 1.62062073 29.49972534 C1.56535628 34.92812658 1.5159663 40.35656617 1.46777344 45.78503418 C1.41759032 51.32156804 1.36188763 56.85804601 1.30664062 62.39453125 C1.19900557 73.26297312 1.09757249 84.13146346 1 95 C0.67 95 0.34 95 0 95 C0 63.65 0 32.3 0 0 Z " fill="#14545A" transform="translate(224,26)"/>
<path d="M0 0 C2.64 1.98 5.28 3.96 8 6 C7.34 6.66 6.68 7.32 6 8 C4.99403703 7.0479279 3.99538437 6.08812654 3 5.125 C2.443125 4.59132812 1.88625 4.05765625 1.3125 3.5078125 C0 2 0 2 0 0 Z " fill="#385456" transform="translate(79,195)"/>
</svg>
