<?xml version="1.0" encoding="UTF-8"?>
<svg version="1.1" xmlns="http://www.w3.org/2000/svg" width="500" height="500">
<path d="M0 0 C165 0 330 0 500 0 C500 165 500 330 500 500 C335 500 170 500 0 500 C0 335 0 170 0 0 Z " fill="#FEFEFE" transform="translate(0,0)"/>
<path d="M0 0 C1.18529297 0.01353516 1.18529297 0.01353516 2.39453125 0.02734375 C3.28205078 0.04474609 3.28205078 0.04474609 4.1875 0.0625 C3.341875 1.0525 2.49625 2.0425 1.625 3.0625 C1.07585937 3.70703125 0.52671875 4.3515625 -0.0390625 5.015625 C-1.18160858 6.33433457 -2.34197699 7.63791335 -3.5234375 8.921875 C-11.10284435 17.22149698 -16.70249726 26.61436116 -20.8125 37.0625 C-21.13347656 37.85398438 -21.45445312 38.64546875 -21.78515625 39.4609375 C-29.04316311 60.86361821 -22.20545367 86.80889092 -12.6953125 106.35913086 C-12.40398437 106.92124268 -12.11265625 107.48335449 -11.8125 108.0625 C-11.63074219 107.10988281 -11.44898438 106.15726562 -11.26171875 105.17578125 C-11.01035156 103.92152344 -10.75898438 102.66726562 -10.5 101.375 C-10.25636719 100.13363281 -10.01273437 98.89226562 -9.76171875 97.61328125 C-8.85899591 94.23642913 -7.8914858 91.85764029 -5.8125 89.0625 C-5.1525 89.0625 -4.4925 89.0625 -3.8125 89.0625 C-3.4721875 90.18785156 -3.131875 91.31320313 -2.78125 92.47265625 C5.50184589 119.04613267 21.52276784 138.45635566 40.05078125 158.71484375 C47.1875 166.55610146 47.1875 166.55610146 47.1875 169.0625 C51.17580803 169.94023579 51.17580803 169.94023579 55.1875 170.0625 C58.40843779 167.08932665 60.09309995 164.24880511 60.28515625 159.80078125 C60.27355469 159.00027344 60.26195312 158.19976562 60.25 157.375 C60.24097656 156.56675781 60.23195313 155.75851563 60.22265625 154.92578125 C60.20525391 154.00345703 60.20525391 154.00345703 60.1875 153.0625 C59.1975 154.0525 58.2075 155.0425 57.1875 156.0625 C56.8575 154.4125 56.5275 152.7625 56.1875 151.0625 C55.5275 152.0525 54.8675 153.0425 54.1875 154.0625 C52.1875 156.75 52.1875 156.75 50.1875 159.0625 C49.5275 159.0625 48.8675 159.0625 48.1875 159.0625 C47.8575 154.7725 47.5275 150.4825 47.1875 146.0625 C46.5275 146.3925 45.8675 146.7225 45.1875 147.0625 C45.13338876 144.64553128 45.09377722 142.22978213 45.0625 139.8125 C45.04574219 139.13058594 45.02898437 138.44867188 45.01171875 137.74609375 C44.97536518 134.0016765 45.10805651 131.23897273 47.1875 128.0625 C46.40503906 128.01351562 45.62257812 127.96453125 44.81640625 127.9140625 C43.80449219 127.83929688 42.79257813 127.76453125 41.75 127.6875 C40.74066406 127.61789063 39.73132813 127.54828125 38.69140625 127.4765625 C37.86511719 127.33992188 37.03882813 127.20328125 36.1875 127.0625 C35.8575 126.4025 35.5275 125.7425 35.1875 125.0625 C35.8475 124.7325 36.5075 124.4025 37.1875 124.0625 C36.28257812 123.51722656 36.28257812 123.51722656 35.359375 122.9609375 C30.38141084 119.82963746 26.93055636 117.31008609 24.1875 112.0625 C24.1875 111.4025 24.1875 110.7425 24.1875 110.0625 C29.1875 112.0625 29.1875 112.0625 31.51171875 113.1015625 C37.20113811 115.14477004 43.31510775 115.11464368 48.9921875 113.03515625 C55.31971436 109.72466756 60.95127993 105.40590533 66.55859375 101.015625 C72.18246931 96.83741136 76.34256282 96.89294372 83.16796875 97.22851562 C88.07106852 97.36240441 90.92298409 96.35335566 95.1875 94.0625 C100.47934909 93.23750667 104.89467577 93.45010958 109.75 95.75 C112.25627946 98.12775231 113.27065806 99.76186902 114.1875 103.0625 C113.24390625 103.17464844 113.24390625 103.17464844 112.28125 103.2890625 C104.72299722 104.4501194 99.43006597 106.9205964 94.65234375 113.0234375 C89.20364272 121.31562974 88.31599118 129.27147493 89.1875 139.0625 C90.74945209 145.52982597 92.77996644 149.09876894 98.1875 153.0625 C117.30392502 145.08114996 134.56224871 137.02141483 143.1875 117.0625 C148.31310892 103.84382436 146.81132356 89.22904886 143.94140625 75.68359375 C143.20415399 72.14249095 142.66250809 68.64581342 142.1875 65.0625 C150.8563224 69.96811268 157.35666038 76.94660216 164.1875 84.0625 C163.82825528 67.40660828 157.80285904 52.12340387 151.1875 37.0625 C162.35032459 39.30525928 172.44468645 48.9848399 178.9375 57.875 C190.19313037 75.14246119 192.76865088 91.81114499 193.1875 112.0625 C195.1675 110.5775 195.1675 110.5775 197.1875 109.0625 C199.54849574 111.42349574 198.42855775 117.27373145 198.4375 120.4375 C198.43430847 128.43867362 198.15740828 135.54491968 195.1875 143.0625 C194.754375 144.2071875 194.32125 145.351875 193.875 146.53125 C192.99479419 148.83178792 192.09666734 151.12559813 191.17578125 153.41015625 C190.07111448 155.90310784 190.07111448 155.90310784 190.1875 158.0625 C192.1675 156.4125 194.1475 154.7625 196.1875 153.0625 C196.8475 153.3925 197.5075 153.7225 198.1875 154.0625 C184.50196541 175.74803459 184.50196541 175.74803459 177.1875 183.0625 C182.66682789 181.51704854 187.30179181 178.90706788 192.1875 176.0625 C187.93950078 186.27679027 176.23463614 193.55211516 167.1875 199.0625 C171.2092445 198.51609408 175.16982052 197.91273373 179.125 197 C180.28322266 196.73509766 180.28322266 196.73509766 181.46484375 196.46484375 C182.03332031 196.33207031 182.60179687 196.19929687 183.1875 196.0625 C179.76292217 200.49392936 176.27152128 203.80125771 171.5625 206.875 C170.92368896 207.296604 170.28487793 207.71820801 169.62670898 208.15258789 C159.21200617 214.81675415 147.78796399 219.85254777 136.1875 224.0625 C144.92362606 226.14528502 153.7697454 227.5062754 162.63818359 228.88525391 C164.64270477 229.19820805 166.64558863 229.52029018 168.6484375 229.84375 C169.83228027 230.03001953 171.01612305 230.21628906 172.23583984 230.40820312 C175.1875 231.0625 175.1875 231.0625 178.1875 233.0625 C179.69832559 241.20916365 177.21076697 249.74498479 175.3125 257.625 C174.77253289 259.93859114 174.23345577 262.2523902 173.6953125 264.56640625 C173.30327637 266.21600342 173.30327637 266.21600342 172.90332031 267.89892578 C172.07378112 271.56508159 171.40640165 275.24632872 170.80810547 278.95678711 C170.04680532 281.53987671 169.02982756 283.10371132 167.1875 285.0625 C159.82950221 285.94649973 152.47218907 284.02041838 145.25 282.6875 C134.5852317 280.77702219 123.97123458 279.10810089 113.1875 278.0625 C113.07792969 278.64515625 112.96835937 279.2278125 112.85546875 279.828125 C111.53291476 286.66669686 109.88365437 293.27788252 108.1875 300.0625 C98.2875 299.7325 88.3875 299.4025 78.1875 299.0625 C80.8275 299.7225 83.4675 300.3825 86.1875 301.0625 C83.42526722 303.82473278 80.98043383 303.64106291 77.1875 304.0625 C90.45649861 308.07906174 101.27250545 308.31509982 114.1875 303.0625 C114.94804687 302.75441406 115.70859375 302.44632812 116.4921875 302.12890625 C118.06893057 301.46718074 119.63080011 300.77009086 121.1875 300.0625 C120.56761935 308.89579931 117.67128784 314.11902781 111.1875 320.0625 C115.20630295 322.07190148 120.26997915 321.33555785 124.6875 321.375 C126.2653125 321.41850586 126.2653125 321.41850586 127.875 321.46289062 C137.72626607 321.54213967 145.2928392 318.87961849 153.1875 313.0625 C152.62752711 321.8354086 148.80013513 327.85556944 142.4375 333.8125 C138.01537412 337.60384216 133.43037025 340.54237638 128.1875 343.0625 C128.92355469 343.42601562 129.65960938 343.78953125 130.41796875 344.1640625 C136.95219622 347.53044125 141.81670001 350.32090003 145.1875 357.0625 C145.56126296 362.66894443 145.44268577 366.28144589 142.1875 371.0625 C138.03895632 375.33009681 133.75127466 378.81049597 128.1875 381.0625 C127.5275 381.0625 126.8675 381.0625 126.1875 381.0625 C126.06632813 380.30324219 125.94515625 379.54398437 125.8203125 378.76171875 C125.65273438 377.76785156 125.48515625 376.77398437 125.3125 375.75 C125.15007812 374.76386719 124.98765625 373.77773438 124.8203125 372.76171875 C124.30664546 369.86190173 124.30664546 369.86190173 122.1875 367.0625 C122.12433594 367.743125 122.06117188 368.42375 121.99609375 369.125 C120.09127652 384.20313215 113.2538943 396.855125 103.1875 408.0625 C102.5275 408.3925 101.8675 408.7225 101.1875 409.0625 C100.8575 403.4525 100.5275 397.8425 100.1875 392.0625 C99.548125 393.83625 98.90875 395.61 98.25 397.4375 C94.632567 406.08255175 89.03617664 413.46308816 80.3046875 417.34375 C79.60601562 417.5809375 78.90734375 417.818125 78.1875 418.0625 C76.71796875 418.59810547 76.71796875 418.59810547 75.21875 419.14453125 C69.85747218 420.63987303 64.33158486 420.31182937 58.8125 420.25 C57.72710937 420.24935547 56.64171875 420.24871094 55.5234375 420.24804688 C49.33436285 420.2144106 43.32376931 419.86990386 37.1875 419.0625 C38.62520951 415.22860796 40.38580545 411.64686131 42.28515625 408.02734375 C44.282067 403.67909221 44.32253059 399.7695435 44.3125 395 C44.31507813 393.77152344 44.31765625 392.54304688 44.3203125 391.27734375 C44.33532675 388.04464792 44.33532675 388.04464792 43.1875 385.0625 C42.78660156 385.53300781 42.38570312 386.00351562 41.97265625 386.48828125 C36.48221104 392.501626 31.05520255 394.9826641 22.9375 395.5625 C16.73507756 395.35355314 10.62600893 392.93552183 5.1875 390.0625 C4.6925 388.5775 4.6925 388.5775 4.1875 387.0625 C4.69539063 386.74539063 5.20328125 386.42828125 5.7265625 386.1015625 C12.35059592 381.61111288 15.65854725 376.12040549 19.1875 369.0625 C20.17636585 359.59764113 18.44363674 352.49877104 14.1875 344.0625 C14.00574219 345.24328125 13.82398438 346.4240625 13.63671875 347.640625 C13.38340854 349.19801373 13.12946923 350.75530023 12.875 352.3125 C12.75705078 353.08980469 12.63910156 353.86710937 12.51757812 354.66796875 C11.81924001 358.85799744 11.23448339 361.8874921 8.1875 365.0625 C8.22230469 364.093125 8.25710937 363.12375 8.29296875 362.125 C8.53848824 352.0167211 7.30180306 342.94385422 5.1875 333.0625 C3.98523952 327.37981545 4.00381776 321.78390858 4 316 C3.98775391 315.01966797 3.97550781 314.03933594 3.96289062 313.02929688 C3.96095703 312.07990234 3.95902344 311.13050781 3.95703125 310.15234375 C3.95292236 309.29503662 3.94881348 308.43772949 3.94458008 307.55444336 C4.21685675 304.76134992 5.03701263 302.60941741 6.1875 300.0625 C5.1975 300.0625 4.2075 300.0625 3.1875 300.0625 C1.5375 305.3425 -0.1125 310.6225 -1.8125 316.0625 C-2.9808144 311.3892424 -2.00292321 308.41439066 -0.75 303.9375 C0.78512777 298.01189425 1.6826522 293.34097783 -0.13671875 287.3359375 C-1.04309164 284.2867524 -1.38338673 281.21024607 -1.8125 278.0625 C-7.20260366 278.73248234 -12.59195545 279.40814167 -17.98071289 280.08886719 C-19.81059929 280.31923638 -21.64067528 280.54810517 -23.47094727 280.77539062 C-26.11527026 281.10403911 -28.75884413 281.43823807 -31.40234375 281.7734375 C-32.20896957 281.87248383 -33.0155954 281.97153015 -33.84666443 282.07357788 C-38.5561559 282.67697302 -43.13209474 283.51464129 -47.74732971 284.63369751 C-51.27404837 285.3659692 -54.21280629 285.43488211 -57.8125 285.0625 C-61.44324014 281.68899966 -61.93145961 277.11569767 -62.85546875 272.45703125 C-63.02879227 271.61839035 -63.20211578 270.77974945 -63.38069153 269.91569519 C-63.74447855 268.14234281 -64.103061 266.36791587 -64.45678711 264.5925293 C-64.99519968 261.89901455 -65.55390279 259.2103046 -66.11523438 256.52148438 C-66.46737684 254.79191684 -66.81832632 253.06210591 -67.16796875 251.33203125 C-67.33354782 250.53795364 -67.49912689 249.74387604 -67.66972351 248.92573547 C-69.78332298 238.14980834 -69.78332298 238.14980834 -68.8125 233.0625 C-62.69840706 228.98643804 -54.23386008 228.26610579 -47 227.4375 C-43.95665336 227.41320145 -43.95665336 227.41320145 -42.8125 226.0625 C-43.71871094 225.505625 -44.62492187 224.94875 -45.55859375 224.375 C-52.88773315 219.80612044 -59.58608033 215.10772757 -65.8125 209.0625 C-62.73927456 208.15191469 -60.01152639 207.97363816 -56.8125 208.0625 C-57.35777344 207.67320312 -57.90304688 207.28390625 -58.46484375 206.8828125 C-68.45151238 199.47389936 -76.63831995 190.49635241 -81.8125 179.0625 C-81.3175 178.0725 -81.3175 178.0725 -80.8125 177.0625 C-79.98105469 177.60390625 -79.98105469 177.60390625 -79.1328125 178.15625 C-78.40835938 178.6203125 -77.68390625 179.084375 -76.9375 179.5625 C-76.21820313 180.0265625 -75.49890625 180.490625 -74.7578125 180.96875 C-72.89389534 182.22586501 -72.89389534 182.22586501 -70.8125 182.0625 C-71.369375 181.381875 -71.92625 180.70125 -72.5 180 C-78.89881221 171.87177908 -83.42509803 163.40545672 -87.8125 154.0625 C-88.44865234 152.93328125 -88.44865234 152.93328125 -89.09765625 151.78125 C-89.8125 150.0625 -89.8125 150.0625 -88.8125 147.0625 C-88.13703125 147.55621094 -87.4615625 148.04992187 -86.765625 148.55859375 C-85.87359375 149.19925781 -84.9815625 149.83992187 -84.0625 150.5 C-82.73992187 151.45712891 -82.73992187 151.45712891 -81.390625 152.43359375 C-79.08550875 153.8900081 -77.46900428 154.62181821 -74.8125 155.0625 C-75.33199219 154.46824219 -75.85148437 153.87398437 -76.38671875 153.26171875 C-83.80483107 144.44499745 -88.0015261 135.19243721 -90.8125 124.0625 C-90.98740967 123.3718042 -91.16231934 122.6811084 -91.3425293 121.96948242 C-91.9762142 118.04985325 -91.93555639 114.22530497 -91.91015625 110.26171875 C-91.9087413 109.42534378 -91.90732635 108.58896881 -91.90586853 107.72724915 C-91.90029184 105.068129 -91.88774365 102.4090945 -91.875 99.75 C-91.86998199 97.94205851 -91.86541961 96.1341157 -91.86132812 94.32617188 C-91.85033004 89.90491516 -91.8330815 85.48372207 -91.8125 81.0625 C-89.24254926 82.34747537 -88.90815537 83.56162373 -87.6875 86.125 C-87.15769531 87.22521484 -87.15769531 87.22521484 -86.6171875 88.34765625 C-86.35164063 88.91355469 -86.08609375 89.47945313 -85.8125 90.0625 C-85.77286133 89.44431396 -85.73322266 88.82612793 -85.69238281 88.18920898 C-83.08524728 49.38826238 -83.08524728 49.38826238 -71.09765625 36.171875 C-70.67355469 35.80578125 -70.24945313 35.4396875 -69.8125 35.0625 C-69.61333984 35.98482422 -69.61333984 35.98482422 -69.41015625 36.92578125 C-69.23355469 37.73402344 -69.05695313 38.54226562 -68.875 39.375 C-68.70097656 40.17550781 -68.52695313 40.97601563 -68.34765625 41.80078125 C-67.81363841 44.207901 -67.81363841 44.207901 -66.8125 47.0625 C-66.35101563 46.13050781 -65.88953125 45.19851562 -65.4140625 44.23828125 C-59.05885115 31.69836825 -51.4776697 19.38398959 -39.8125 11.0625 C-39.1525 11.0625 -38.4925 11.0625 -37.8125 11.0625 C-38.1425 14.3625 -38.4725 17.6625 -38.8125 21.0625 C-37.86375 20.051875 -36.915 19.04125 -35.9375 18 C-26.57568453 8.69446799 -13.60514099 -0.20306181 0 0 Z " fill="#450306" transform="translate(196.8125,39.9375)"/>
<path d="M0 0 C0.75391399 -0.00215389 1.50782799 -0.00430779 2.28458786 -0.00652695 C40.66945531 -0.09456665 79.94988488 1.78356341 117.3125 11.375 C116.81217838 18.952348 115.65431449 26.12336674 113.875 33.5 C113.43865408 35.35673606 113.00245448 37.21350651 112.56640625 39.0703125 C112.3564502 39.95364258 112.14649414 40.83697266 111.93017578 41.74707031 C111.02100644 45.61517259 110.16564339 49.4941896 109.3125 53.375 C102.13682877 52.40838819 95.04220662 51.33057973 87.9375 49.9375 C74.21384307 47.3952435 60.211165 46.49382815 46.3125 45.375 C45.6459137 45.32065796 44.97932739 45.26631592 44.2925415 45.21032715 C4.84025838 42.01428511 -34.42440341 42.65812777 -73.6875 47.8125 C-74.47461365 47.91573578 -75.26172729 48.01897156 -76.07269287 48.12533569 C-85.01317188 49.31338659 -93.88853992 50.69830991 -102.73925781 52.43858337 C-107.50851857 53.375 -107.50851857 53.375 -109.6875 53.375 C-111.93212708 44.15770155 -114.04654929 34.92188833 -115.9375 25.625 C-116.11249023 24.7803418 -116.28748047 23.93568359 -116.46777344 23.06542969 C-118.0258447 15.2813433 -118.0258447 15.2813433 -117.6875 11.375 C-115.64327821 9.33077821 -111.7455319 9.49622233 -108.9375 9.0703125 C-108.1407637 8.94652725 -107.3440274 8.822742 -106.52314758 8.69520569 C-103.91202857 8.2916345 -101.29990999 7.89512326 -98.6875 7.5 C-97.80025238 7.36494049 -96.91300476 7.22988098 -95.99887085 7.09072876 C-85.34734716 5.47239901 -74.6929928 3.88424354 -64 2.5625 C-63.12794922 2.45115723 -62.25589844 2.33981445 -61.35742188 2.22509766 C-41.03262491 -0.15825382 -20.43509168 0.05249825 0 0 Z " fill="#460207" transform="translate(251.6875,265.625)"/>
<path d="M0 0 C1.16789062 0.13148438 1.16789062 0.13148438 2.359375 0.265625 C2.98328125 0.42546875 3.6071875 0.5853125 4.25 0.75 C4.745 1.74 4.745 1.74 5.25 2.75 C4.65832031 2.84796875 4.06664062 2.9459375 3.45703125 3.046875 C-1.56421704 3.99706228 -5.12489127 4.90518771 -8.75 8.75 C-10.08298974 11.36818456 -10.08298974 11.36818456 -10.75 13.75 C-9.14536551 13.43991116 -7.54130769 13.12683713 -5.9375 12.8125 C-5.04417969 12.63847656 -4.15085937 12.46445313 -3.23046875 12.28515625 C-0.63602829 11.77258847 -0.63602829 11.77258847 2.25 10.75 C2.58 9.76 2.91 8.77 3.25 7.75 C5.09765625 6.58203125 5.09765625 6.58203125 7.3125 5.5625 C8.04597656 5.21832031 8.77945313 4.87414062 9.53515625 4.51953125 C10.10105469 4.26558594 10.66695313 4.01164063 11.25 3.75 C9.81915026 8.40741591 7.93340658 12.71852582 5.75 17.0625 C5.44191406 17.69478516 5.13382812 18.32707031 4.81640625 18.97851562 C2.49420759 23.62789621 2.49420759 23.62789621 0.25 24.75 C0.58 22.77 0.91 20.79 1.25 18.75 C-6.27674117 23.43330561 -8.26491636 27.50163727 -10.75 35.75 C-14.625 33.125 -14.625 33.125 -15.75 29.75 C-15.45634565 38.70645776 -12.26586582 46.49185533 -5.875 52.9375 C-5.17375 53.535625 -4.4725 54.13375 -3.75 54.75 C-4.03875 54.04875 -4.3275 53.3475 -4.625 52.625 C-7.47596811 45.33919262 -9.33640396 39.90486752 -6.4375 32.3125 C-4.75 29.75 -4.75 29.75 -1.75 28.75 C-1.57726562 29.5028125 -1.40453125 30.255625 -1.2265625 31.03125 C1.47114276 41.2280809 6.43490079 49.06483341 12.25 57.75 C20.58978828 70.26766766 26.42686637 80.63570043 26.4375 95.9375 C26.44974609 96.84564453 26.46199219 97.75378906 26.47460938 98.68945312 C26.4874758 104.68091828 25.74958645 109.94725243 24.25 115.75 C23.92 115.75 23.59 115.75 23.25 115.75 C22.26 105.85 22.26 105.85 21.25 95.75 C20.67540618 100.69958068 20.67540618 100.69958068 20.11376953 105.65063477 C20.03755371 106.28283936 19.96133789 106.91504395 19.8828125 107.56640625 C19.80949707 108.20006104 19.73618164 108.83371582 19.66064453 109.48657227 C19.09107548 112.62597455 18.12653932 115.68211238 17.25 118.75 C8.34 118.42 -0.57 118.09 -9.75 117.75 C-8.1 114.78 -6.45 111.81 -4.75 108.75 C-3.8740356 103.8923883 -3.8740356 103.8923883 -3.75 99.75 C-4.245 100.575 -4.74 101.4 -5.25 102.25 C-9.40846206 108.47294678 -15.12620479 114.21730922 -21.75 117.75 C-24.625 118 -24.625 118 -26.75 117.75 C-25.27869627 113.3926774 -22.91919385 110.03065866 -20.125 106.4375 C-19.70476562 105.88771484 -19.28453125 105.33792969 -18.8515625 104.77148438 C-17.82279961 103.42707832 -16.7870991 102.08798587 -15.75 100.75 C-18.72 101.245 -18.72 101.245 -21.75 101.75 C-17.352872 97.21546175 -17.352872 97.21546175 -14.84765625 95.28125 C-8.68876784 90.45816656 -5.83219142 84.8600552 -2.75 77.75 C-3.10191406 78.25789063 -3.45382812 78.76578125 -3.81640625 79.2890625 C-9.59723493 87.34901684 -16.21666082 93.39999795 -25.75 96.75 C-26.74 96.42 -27.73 96.09 -28.75 95.75 C-28.01394531 95.18152344 -27.27789062 94.61304688 -26.51953125 94.02734375 C-18.78613839 87.90805402 -12.63716693 82.87207716 -10.75 72.75 C-10.11733205 65.30181061 -11.45809133 59.42126297 -14.125 52.5 C-14.75791572 50.78649646 -15.39073077 49.07295572 -16.0234375 47.359375 C-16.59820501 45.8226347 -17.17364526 44.28614571 -17.75 42.75 C-19.26739469 38.68084509 -20.00481976 35.47018467 -19.9375 31.125 C-19.93105469 30.20460937 -19.92460937 29.28421875 -19.91796875 28.3359375 C-19.76646043 26.00341413 -19.40612519 23.98607465 -18.75 21.75 C-23.43935333 24.87623555 -26.07819016 28.41869857 -27.75 33.75 C-28.74600999 39.03887991 -29.2560914 44.39499093 -29.75 49.75 C-32.24505962 47.25494038 -32.10948376 46.07671112 -32.375 42.625 C-32.44976562 41.71492188 -32.52453125 40.80484375 -32.6015625 39.8671875 C-32.67503906 38.81917969 -32.67503906 38.81917969 -32.75 37.75 C-33.08 37.75 -33.41 37.75 -33.75 37.75 C-34.40965581 29.83413023 -31.42979516 24.98972687 -26.75 18.75 C-30.38 18.42 -34.01 18.09 -37.75 17.75 C-35.46085379 15.46085379 -34.12891556 15.16671616 -31.0625 14.25 C-25.01876342 12.15824441 -20.15173841 8.93493505 -14.96606445 5.27929688 C-10.08916242 1.85526871 -6.1840757 -0.78857341 0 0 Z " fill="#4E48D4" transform="translate(278.75,142.25)"/>
<path d="M0 0 C0.66 0.33 1.32 0.66 2 1 C1.56429687 1.46148437 1.12859375 1.92296875 0.6796875 2.3984375 C-12.84341193 17.20945116 -17.57286602 34.78972109 -17.1875 54.66015625 C-15.96259798 76.47872347 -9.52196153 96.53138369 2 115 C3.00236019 116.66524828 4.00310209 118.331476 5 120 C1.55913282 118.4707257 -1.09239931 116.37237071 -4 114 C-3.66226563 114.94101563 -3.32453125 115.88203125 -2.9765625 116.8515625 C-2.52600722 118.10936266 -2.07548832 119.36717586 -1.625 120.625 C-1.18414062 121.85476562 -0.74328125 123.08453125 -0.2890625 124.3515625 C0.84345711 127.55693619 1.93692898 130.77104598 3 134 C-1.45412079 131.23831392 -5.03605551 128.20618195 -8.5625 124.3125 C-9.32143555 123.48286743 -9.32143555 123.48286743 -10.09570312 122.63647461 C-18.11095428 113.71006501 -25.45516704 104.05324101 -32 94 C-31.5359375 95.36125 -31.5359375 95.36125 -31.0625 96.75 C-30.27169247 99.16894068 -29.59553894 101.53200079 -29 104 C-40.10363105 97.16477777 -45.08030622 86.33361123 -48.52832031 74.13012695 C-51.22132933 61.96837559 -49.79744695 47.96144363 -44 37 C-41.53371355 33.15241079 -38.90236653 29.52893201 -36 26 C-34.51243233 28.97513535 -35.60196716 30.8874752 -36.4375 34.0625 C-40.10485109 49.61478518 -36.13424221 64.37785572 -28 78 C-27.02335525 79.35053427 -26.03105324 80.69053179 -25 82 C-26.44613798 77.08723338 -27.91456789 72.20296845 -29.625 67.375 C-30.98591146 63.26376486 -31.76844972 59.32454193 -32 55 C-32.06445312 53.79988281 -32.12890625 52.59976563 -32.1953125 51.36328125 C-32.74489279 36.20219291 -28.29721128 23.75498587 -17.9375 12.375 C-14.50250477 9.14484393 -10.61884201 6.58036366 -6.6875 4 C-6.06415771 3.58927246 -5.44081543 3.17854492 -4.79858398 2.75537109 C-3.23982788 1.76930186 -1.62325437 0.87584153 0 0 Z " fill="#4248D0" transform="translate(184,49)"/>
<path d="M0 0 C3.77524918 -0.24495892 5.41175197 -0.09479515 8.296875 2.4296875 C9.534375 3.821875 9.534375 3.821875 10.796875 5.2421875 C22.71410886 14.41351494 37.1827217 16.30075796 51.796875 15.2421875 C56.86214355 14.55529533 61.82985849 13.44112252 66.796875 12.2421875 C66.796875 12.9021875 66.796875 13.5621875 66.796875 14.2421875 C64.71484375 16.15234375 64.71484375 16.15234375 61.984375 18.3046875 C61.09105469 19.01753906 60.19773437 19.73039062 59.27734375 20.46484375 C56.796875 22.2421875 56.796875 22.2421875 53.796875 23.2421875 C67.9920104 27.82556978 80.83108508 31.04267214 95.796875 28.2421875 C90.05338679 35.0112986 81.35495077 40.03054994 72.796875 42.2421875 C70.04340409 42.4275697 67.4188717 42.52276631 64.671875 42.4921875 C63.96933594 42.49992187 63.26679688 42.50765625 62.54296875 42.515625 C58.49257773 42.50031161 56.51956859 42.10353429 52.796875 40.2421875 C56.096875 39.5821875 59.396875 38.9221875 62.796875 38.2421875 C57.49624415 36.82037122 52.24881767 35.79212601 46.82788086 34.94897461 C33.20170412 32.80711317 20.08667846 29.70344142 7.796875 23.2421875 C12.42983244 27.5216768 17.05526727 30.76797319 22.671875 33.6171875 C23.40148437 33.9972998 24.13109375 34.37741211 24.8828125 34.76904297 C29.40023141 37.09833709 33.97653947 39.26471443 38.6027832 41.36791992 C49.89635257 46.51141379 59.40801213 52.48852977 65.671875 63.5546875 C68.44428767 72.64204015 66.52219727 80.64947336 62.796875 89.2421875 C62.136875 89.9021875 61.476875 90.5621875 60.796875 91.2421875 C60.69890625 90.27539062 60.6009375 89.30859375 60.5 88.3125 C59.28622476 77.74428454 57.79474705 68.00749641 49.796875 60.2421875 C47.26363572 58.40341663 44.59562662 56.88235559 41.859375 55.3671875 C41.11083252 54.93937988 40.36229004 54.51157227 39.59106445 54.07080078 C37.33278814 52.78275221 35.06629342 51.51048087 32.796875 50.2421875 C-3.40040861 29.90259005 -3.40040861 29.90259005 -10.5390625 7.90625 C-11.203125 5.2421875 -11.203125 5.2421875 -11.203125 1.2421875 C-7.47489685 0.75889867 -3.73625264 0.41072281 0 0 Z " fill="#2F49C6" transform="translate(244.203125,336.7578125)"/>
<path d="M0 0 C0.75391399 -0.00215389 1.50782799 -0.00430779 2.28458786 -0.00652695 C40.66945531 -0.09456665 79.94988488 1.78356341 117.3125 11.375 C116.81217838 18.952348 115.65431449 26.12336674 113.875 33.5 C113.43865408 35.35673606 113.00245448 37.21350651 112.56640625 39.0703125 C112.3564502 39.95364258 112.14649414 40.83697266 111.93017578 41.74707031 C111.02100644 45.61517259 110.16564339 49.4941896 109.3125 53.375 C102.13682877 52.40838819 95.04220662 51.33057973 87.9375 49.9375 C74.21384307 47.3952435 60.211165 46.49382815 46.3125 45.375 C45.6459137 45.32065796 44.97932739 45.26631592 44.2925415 45.21032715 C4.84025838 42.01428511 -34.42440341 42.65812777 -73.6875 47.8125 C-74.47461365 47.91573578 -75.26172729 48.01897156 -76.07269287 48.12533569 C-85.01317188 49.31338659 -93.88853992 50.69830991 -102.73925781 52.43858337 C-107.50851857 53.375 -107.50851857 53.375 -109.6875 53.375 C-111.93212708 44.15770155 -114.04654929 34.92188833 -115.9375 25.625 C-116.11249023 24.7803418 -116.28748047 23.93568359 -116.46777344 23.06542969 C-118.0258447 15.2813433 -118.0258447 15.2813433 -117.6875 11.375 C-115.64327821 9.33077821 -111.7455319 9.49622233 -108.9375 9.0703125 C-108.1407637 8.94652725 -107.3440274 8.822742 -106.52314758 8.69520569 C-103.91202857 8.2916345 -101.29990999 7.89512326 -98.6875 7.5 C-97.80025238 7.36494049 -96.91300476 7.22988098 -95.99887085 7.09072876 C-85.34734716 5.47239901 -74.6929928 3.88424354 -64 2.5625 C-63.12794922 2.45115723 -62.25589844 2.33981445 -61.35742188 2.22509766 C-41.03262491 -0.15825382 -20.43509168 0.05249825 0 0 Z M-56.6875 5.375 C-57.46731232 5.45523407 -58.24712463 5.53546814 -59.05056763 5.61813354 C-63.76941925 6.11155417 -68.47879846 6.66672092 -73.1875 7.25 C-74.21156448 7.37489807 -74.21156448 7.37489807 -75.25631714 7.50231934 C-88.13157691 9.07729514 -100.92244406 11.06656424 -113.6875 13.375 C-113.81858017 18.26592897 -113.39494346 22.62135877 -112.375 27.40234375 C-112.10429687 28.68818359 -111.83359375 29.97402344 -111.5546875 31.29882812 C-111.26577851 32.63675191 -110.9767141 33.97464214 -110.6875 35.3125 C-110.39779149 36.67759743 -110.10872307 38.04283088 -109.8203125 39.40820312 C-109.11565049 42.73185894 -108.40452471 46.05399327 -107.6875 49.375 C-102.31833191 48.88714473 -96.99830536 48.31125566 -91.68041992 47.42333984 C-66.71460887 43.29172315 -40.988689 40.71990809 -15.6875 40.375 C-14.43227539 40.35453613 -13.17705078 40.33407227 -11.88378906 40.31298828 C14.09826245 39.92293602 39.66209216 41.59898771 65.5 44.3125 C66.26583405 44.39181763 67.03166809 44.47113525 67.82070923 44.55285645 C76.80866771 45.49344127 85.68946578 46.66073309 94.55937195 48.41307068 C98.86930301 49.2375344 102.92855264 49.49976814 107.3125 49.375 C108.17642573 45.51758694 109.03053776 41.65813905 109.87597656 37.79663086 C110.30547776 35.84441822 110.7425211 33.89386982 111.1796875 31.94335938 C111.45039063 30.70263672 111.72109375 29.46191406 112 28.18359375 C112.25136719 27.04720459 112.50273437 25.91081543 112.76171875 24.73999023 C113.33899983 21.21309966 113.4768724 17.94260288 113.3125 14.375 C111.18318287 12.24568287 106.96127541 12.34215406 104.03125 11.8515625 C103.16886719 11.70549057 102.30648437 11.55941864 101.41796875 11.40892029 C66.26396336 5.53137578 31.88217752 3.13020114 -3.75 3.0625 C-5.01392578 3.05864288 -6.27785156 3.05478577 -7.58007812 3.05081177 C-24.0495582 3.02600349 -40.30510392 3.66800732 -56.6875 5.375 Z " fill="#854BE9" transform="translate(251.6875,265.625)"/>
<path d="M0 0 C2.47093836 2.47093836 3.02983838 4.57981301 4.1875 7.875 C10.45381662 24.42170852 21.59104562 37.20054143 33.1340332 50.29052734 C38.87139879 56.8669407 43.96157685 63.88158653 49 71 C44.96618977 71 43.50566363 69.40426438 40.3125 67 C39.31863281 66.2575 38.32476562 65.515 37.30078125 64.75 C36.54152344 64.1725 35.78226563 63.595 35 63 C35.66 63.99 36.32 64.98 37 66 C37 66.66 37 67.32 37 68 C35.63875 67.5359375 35.63875 67.5359375 34.25 67.0625 C31.83105932 66.27169247 29.46799921 65.59553894 27 65 C39.35948054 76.48747771 39.35948054 76.48747771 54.875 81.6875 C58.19982191 81.43265625 59.01786787 80.98649983 61.8125 78.875 C64.01301702 75.98289191 66.0178973 73.04394344 68 70 C68.33 70 68.66 70 69 70 C69.55621523 76.67458281 68.72714246 81.37748475 65 87 C62.21958043 90.28595041 60.26412388 91.66059623 55.94140625 92.30859375 C46.0204566 92.84618215 38.46925444 88.37308513 31.13769531 82.04956055 C18.89650259 70.93430937 1.36760007 52.53332371 -2 36 C3.80099319 40.20856369 9.27309797 44.710729 14.6940918 49.3918457 C17.04790457 51.8772734 17.04790457 51.8772734 20 53 C19.66790527 52.55309814 19.33581055 52.10619629 18.99365234 51.64575195 C6.5516738 34.78671998 -0.54636024 21.33840254 0 0 Z " fill="#2647BD" transform="translate(191,139)"/>
<path d="M0 0 C1.6621846 2.4932769 2.61570556 4.44739205 3.6875 7.1875 C12.71260895 27.65989788 37.87381339 35.18181088 57.01953125 42.703125 C62.64958216 44.88629988 68.31493578 46.96485789 74 49 C74 49.33 74 49.66 74 50 C70.535 50.495 70.535 50.495 67 51 C67.64026123 51.21615967 68.28052246 51.43231934 68.94018555 51.6550293 C71.86134359 52.65078847 74.77424374 53.66886614 77.6875 54.6875 C78.69490234 55.02716797 79.70230469 55.36683594 80.74023438 55.71679688 C86.33576643 57.69277684 90.24850721 59.33311028 94 64 C84.40028588 64.76666659 77.2080649 62.74396451 68.375 59.125 C60.63523013 56.02735668 53.27366691 53.23975617 45 52 C46.98 53.32 48.96 54.64 51 56 C47.67891396 57.10702868 47.14211371 56.9535623 44.0078125 55.8125 C43.22656006 55.52971191 42.44530762 55.24692383 41.64038086 54.95556641 C40.39526733 54.48256104 40.39526733 54.48256104 39.125 54 C38.27236572 53.67821777 37.41973145 53.35643555 36.54125977 53.02490234 C22.39033949 47.55753162 8.98462362 40.47405236 1 27 C-0.89831799 21.60478045 -1.28092902 16.8852452 -1.1875 11.25 C-1.18685547 10.49589844 -1.18621094 9.74179688 -1.18554688 8.96484375 C-1.15966633 5.72690047 -1.03027865 3.09083595 0 0 Z " fill="#3B48CD" transform="translate(113,145)"/>
<path d="M0 0 C2.11834538 3.17751807 2.39247232 4.72991488 2.875 8.4375 C5.33951368 24.17247196 11.76231323 36.76231323 23 48 C24.07314453 49.07314453 24.07314453 49.07314453 25.16796875 50.16796875 C31.12840449 55.80011887 37.70573213 60.4531378 44.37768555 65.18701172 C50.32254949 69.43236233 55.75661766 73.90055365 61 79 C61.63679688 79.598125 62.27359375 80.19625 62.9296875 80.8125 C64.33496126 82.15949052 65.67678298 83.57231848 67 85 C67 85.66 67 86.32 67 87 C50.34552962 84.39867339 32.75316926 76.28055506 21 64 C19.515 64.495 19.515 64.495 18 65 C15.04513236 63.40694093 12.55535952 61.16476129 10 59 C9.37222656 58.46890625 8.74445313 57.9378125 8.09765625 57.390625 C-0.13613943 49.82346048 -3.52046169 40.14143208 -4.25390625 29.21875 C-4.64029607 18.92140148 -2.96408201 9.83175417 0 0 Z " fill="#4149D0" transform="translate(124,105)"/>
<path d="M0 0 C2 1 2 1 2.61328125 2.80078125 C4.65180988 14.39362586 1.1922255 25.2208885 -5 35 C-8.38283506 39.26054362 -12.16362903 43.14997646 -16 47 C-15.01 46.67 -14.02 46.34 -13 46 C-11.66893378 45.65772583 -10.33599921 45.32248257 -9 45 C-13.19513305 54.14097412 -19.84889899 61.16433877 -28 67 C-26.02 67 -24.04 67 -22 67 C-27.22407419 72.62038326 -33.11459362 75.48844179 -40.73828125 76.4921875 C-48.74757999 76.76587208 -54.54776476 75.89600506 -61 71 C-61 70.67 -61 70.34 -61 70 C-60.2471875 69.85304688 -59.494375 69.70609375 -58.71875 69.5546875 C-52.07971027 68.15275435 -45.79156411 66.36522138 -39.4375 64 C-38.75945312 63.7510498 -38.08140625 63.50209961 -37.3828125 63.24560547 C-33.85112715 61.89468274 -30.88185293 60.46387426 -28 58 C-29.27230469 58.39832031 -29.27230469 58.39832031 -30.5703125 58.8046875 C-41.2672164 62.02551351 -51.75756279 64.17055531 -63 64 C-62 62 -62 62 -58.74609375 60.7734375 C-57.31078502 60.30456093 -55.87451265 59.83862813 -54.4375 59.375 C-39.21917426 54.19036465 -26.64692914 46.88495611 -14 37 C-14.52730713 37.25168945 -15.05461426 37.50337891 -15.59790039 37.76269531 C-42.28250675 50.39987623 -42.28250675 50.39987623 -56 50 C-52.81903185 47.87935457 -49.60376568 46.60595591 -46.0625 45.25 C-28.12336745 38.17246005 -11.70311074 29.36582592 -3.0625 11.25 C-1.48790465 7.52486671 -0.32966814 4.06590703 0 0 Z " fill="#2446B9" transform="translate(384,163)"/>
<path d="M0 0 C9.80601482 2.32247719 17.34021582 9.83794159 24 17 C22.90931332 13.22454612 22.0916909 10.52956528 19 8 C19.33 7.34 19.66 6.68 20 6 C27.07718001 12.38333883 33.11913576 18.47216677 34.4375 28.2421875 C34.74168369 36.47415862 33.58311408 41.96342127 28.1171875 48.12109375 C19.0719005 56.95564826 9.82826289 58.45473323 -2.30078125 58.3359375 C-5.84673029 58.0139189 -8.69265771 57.28191562 -12 56 C-9.90345283 53.90345283 -8.45766711 53.23938 -5.75 52.125 C1.91126941 48.79240929 7.36045808 45.00709438 10.75 37.1875 C11.36875 35.6096875 11.36875 35.6096875 12 34 C12.68707555 36.49064888 13 38.37886292 13 41 C15.82519233 34.80717842 16.08349968 28.20370446 14.3828125 21.60546875 C11.72174438 15.07054484 7.26380763 9.5595849 3 4 C1.99892535 2.66747333 0.99850628 1.33445232 0 0 Z " fill="#3848CA" transform="translate(257,397)"/>
<path d="M0 0 C2.97 0 5.94 0 9 0 C9.06316406 0.88558594 9.12632812 1.77117187 9.19140625 2.68359375 C11.04990588 21.4837847 20.09053641 36.26223841 30 52 C37.99288099 64.72595682 44.1529397 74.60825498 43 90 C42.24724156 93.12044631 41.25286369 96.04682131 40 99 C39.34 99 38.68 99 38 99 C37.93683594 97.79085937 37.87367188 96.58171875 37.80859375 95.3359375 C36.67978755 78.69415773 30.68087743 68.02090242 20.85498047 54.90893555 C14.15338986 45.79947723 9.39974327 35.78539243 6 25 C5.89191968 32.09727428 6.06145994 38.96094956 7 46 C3.96729422 43.4461425 2.8306867 40.64368206 1.375 37 C0.94960937 35.948125 0.52421875 34.89625 0.0859375 33.8125 C-2.13666003 28.05613229 -2.18354692 23.30291313 -2.1875 17.1875 C-2.19974609 16.20201172 -2.21199219 15.21652344 -2.22460938 14.20117188 C-2.23495382 9.06687678 -2.06260542 4.80187586 0 0 Z " fill="#3249C8" transform="translate(212,339)"/>
<path d="M0 0 C1.16789062 0.13148438 1.16789062 0.13148438 2.359375 0.265625 C2.98328125 0.42546875 3.6071875 0.5853125 4.25 0.75 C4.745 1.74 4.745 1.74 5.25 2.75 C4.65832031 2.84796875 4.06664062 2.9459375 3.45703125 3.046875 C-1.56421704 3.99706228 -5.12489127 4.90518771 -8.75 8.75 C-10.08298974 11.36818456 -10.08298974 11.36818456 -10.75 13.75 C-9.14536551 13.43991116 -7.54130769 13.12683713 -5.9375 12.8125 C-5.04417969 12.63847656 -4.15085937 12.46445313 -3.23046875 12.28515625 C-0.63602829 11.77258847 -0.63602829 11.77258847 2.25 10.75 C2.58 9.76 2.91 8.77 3.25 7.75 C5.09765625 6.58203125 5.09765625 6.58203125 7.3125 5.5625 C8.04597656 5.21832031 8.77945313 4.87414062 9.53515625 4.51953125 C10.10105469 4.26558594 10.66695313 4.01164063 11.25 3.75 C9.81915026 8.40741591 7.93340658 12.71852582 5.75 17.0625 C5.44191406 17.69478516 5.13382812 18.32707031 4.81640625 18.97851562 C2.49420759 23.62789621 2.49420759 23.62789621 0.25 24.75 C0.58 22.77 0.91 20.79 1.25 18.75 C-6.27674117 23.43330561 -8.26491636 27.50163727 -10.75 35.75 C-14.625 33.125 -14.625 33.125 -15.75 29.75 C-16.08 31.07 -16.41 32.39 -16.75 33.75 C-17.41 33.75 -18.07 33.75 -18.75 33.75 C-18.75 29.79 -18.75 25.83 -18.75 21.75 C-23.43935333 24.87623555 -26.07819016 28.41869857 -27.75 33.75 C-28.74600999 39.03887991 -29.2560914 44.39499093 -29.75 49.75 C-32.24505962 47.25494038 -32.10948376 46.07671112 -32.375 42.625 C-32.44976562 41.71492188 -32.52453125 40.80484375 -32.6015625 39.8671875 C-32.67503906 38.81917969 -32.67503906 38.81917969 -32.75 37.75 C-33.08 37.75 -33.41 37.75 -33.75 37.75 C-34.40965581 29.83413023 -31.42979516 24.98972687 -26.75 18.75 C-30.38 18.42 -34.01 18.09 -37.75 17.75 C-35.46085379 15.46085379 -34.12891556 15.16671616 -31.0625 14.25 C-25.01876342 12.15824441 -20.15173841 8.93493505 -14.96606445 5.27929688 C-10.08916242 1.85526871 -6.1840757 -0.78857341 0 0 Z " fill="#5845D2" transform="translate(278.75,142.25)"/>
<path d="M0 0 C0.845625 0.28746094 1.69125 0.57492188 2.5625 0.87109375 C6.02422912 2.00795706 9.49911901 3.05292577 13 4.0625 C14.175625 4.40410156 15.35125 4.74570313 16.5625 5.09765625 C28.53704062 8.24097316 39.02976673 7.12384331 50.875 4 C60.12689896 1.69460446 68.42804255 0.06020781 78 1 C71.64574395 8.19852783 60.72717309 12.31849748 52 15.9375 C51.29472168 16.23172852 50.58944336 16.52595703 49.86279297 16.82910156 C40.51773728 20.58136731 29.48621763 21.92461355 19.8125 18.5625 C11.76874983 14.88123974 5.25190305 8.0025374 0 1 C0 0.67 0 0.34 0 0 Z " fill="#2748BE" transform="translate(129,231)"/>
<path d="M0 0 C1.32 0 2.64 0 4 0 C4.29132813 1.03898437 4.58265625 2.07796875 4.8828125 3.1484375 C11.6202137 26.42741667 26.03308329 35.60493851 46.3828125 47.0234375 C47.3123877 47.54768311 48.24196289 48.07192871 49.19970703 48.61206055 C51.02173734 49.6371313 52.8480471 50.65464459 54.67919922 51.66333008 C64.27184499 57.04450373 71.14520954 62.52484081 74.75 73.2265625 C76.16875433 78.80305523 76.21514227 84.27482519 76 90 C75.67 90 75.34 90 75 90 C74.85304688 89.23816406 74.70609375 88.47632813 74.5546875 87.69140625 C71.75055197 74.78271337 65.30807746 66.52509106 54.32080078 59.21826172 C51.52986626 57.5358184 48.71475547 55.91107644 45.875 54.3125 C39.69532269 50.78664612 33.70563071 47.25946669 28 43 C30.31 45.97 32.62 48.94 35 52 C31.48224489 52 30.81800142 51.36667816 28.125 49.25 C27.46757812 48.73953125 26.81015625 48.2290625 26.1328125 47.703125 C25.42898437 47.14109375 24.72515625 46.5790625 24 46 C23.19175781 45.39671875 22.38351563 44.7934375 21.55078125 44.171875 C10.11818194 34.43753317 2.42615985 19.66336963 0 5 C-0.04113972 3.33384115 -0.05441743 1.66577805 0 0 Z " fill="#372C78" transform="translate(229,338)"/>
<path d="M0 0 C0.83724609 0.42152344 0.83724609 0.42152344 1.69140625 0.8515625 C2.45324219 1.23054687 3.21507813 1.60953125 4 2 C4.75152344 2.37898437 5.50304687 2.75796875 6.27734375 3.1484375 C15.50917265 7.40511044 25.06061042 8.95673531 35.03564453 10.59863281 C37 11 37 11 39 12 C39 12.66 39 13.32 39 14 C34.71 13.67 30.42 13.34 26 13 C33.9075864 16.16303456 41.03557495 17.21105058 49.5 17.375 C56.54474618 17.60993903 61.80167312 18.37456352 68 22 C63.37762867 27.20389546 56.64704934 28.90335223 49.8828125 29.39453125 C35.10161868 29.97249254 23.47076346 25.40738659 12.26171875 15.60546875 C7.28049736 10.80135745 3.35947116 6.04704808 0 0 Z " fill="#2E48C4" transform="translate(119,204)"/>
<path d="M0 0 C2.85467733 -0.24192181 5.1976367 -0.42061738 8 0 C10.5 2.1875 10.5 2.1875 13 5 C24.91723386 14.17132744 39.3858467 16.05857046 54 15 C59.06526855 14.31310783 64.03298349 13.19893502 69 12 C69 12.66 69 13.32 69 14 C66.91796875 15.91015625 66.91796875 15.91015625 64.1875 18.0625 C63.29417969 18.77535156 62.40085937 19.48820312 61.48046875 20.22265625 C59 22 59 22 56 23 C68.5080481 27.03864876 79.86332017 29.28070053 93 30 C89.17103115 32.5526459 86.00329744 32.34389177 81.5625 32.3125 C80.75353271 32.30758545 79.94456543 32.3026709 79.11108398 32.29760742 C70.36167394 32.12792717 62.86146562 30.53352753 55.0625 26.5 C49.68993647 23.87999805 44.48821562 23.21245937 38.625 22.5 C24.92530582 20.79069581 11.93074408 16.97633969 2.4296875 6.22265625 C0.96553338 4.12881347 0 2.59501224 0 0 Z " fill="#8650F7" transform="translate(242,337)"/>
<path d="M0 0 C0.66 0.33 1.32 0.66 2 1 C1.34644531 1.69222656 1.34644531 1.69222656 0.6796875 2.3984375 C-12.84341193 17.20945116 -17.57286602 34.78972109 -17.1875 54.66015625 C-16.2948718 70.56009609 -12.41524448 85.24578592 -6.26953125 99.85546875 C-5.29708996 102.26413101 -4.52152733 104.46776489 -4 107 C-7.50378815 103.85437686 -9.71330266 100.38009835 -11.875 96.25 C-12.39054443 95.27015137 -12.39054443 95.27015137 -12.91650391 94.27050781 C-23.05660933 74.49847859 -28.79364695 50.58141529 -21.9375 28.75 C-17.39006668 17.2719176 -11.55186088 5.44899098 0 0 Z " fill="#854FF7" transform="translate(184,49)"/>
<path d="M0 0 C2.11834538 3.17751807 2.39247232 4.72991488 2.875 8.4375 C5.33951368 24.17247196 11.76231323 36.76231323 23 48 C24.07314453 49.07314453 24.07314453 49.07314453 25.16796875 50.16796875 C31.12632746 55.79815624 37.7018605 60.44704963 44.36889648 65.18261719 C59.77910468 76.19709473 59.77910468 76.19709473 63 83 C3.79413518 43.66152043 3.79413518 43.66152043 -2.375 21.8125 C-3.7201089 13.60733569 -2.67823846 7.77964506 0 0 Z " fill="#844FF5" transform="translate(124,105)"/>
<path d="M0 0 C3.4513005 3.13473826 5.77907897 6.60371518 8.0625 10.625 C8.40087891 11.19089844 8.73925781 11.75679687 9.08789062 12.33984375 C13.90031323 20.73598532 15.48887694 28.96053945 15.3125 38.5625 C15.31572266 39.44357422 15.31894531 40.32464844 15.32226562 41.23242188 C15.27470122 47.09149218 14.44663054 52.32298373 13 58 C12.67 58 12.34 58 12 58 C11.34 51.4 10.68 44.8 10 38 C9.42540618 42.94958068 9.42540618 42.94958068 8.86376953 47.90063477 C8.31596737 52.44461317 7.36642097 56.63089764 6 61 C4.35 61 2.7 61 1 61 C1.16371094 60.24460937 1.32742188 59.48921875 1.49609375 58.7109375 C2.18077669 53.66869881 2.10511821 48.70640205 2.0625 43.625 C2.05798828 42.60277344 2.05347656 41.58054688 2.04882812 40.52734375 C2.037103 38.01816806 2.02069176 35.5091151 2 33 C2.66 33.66 3.32 34.32 4 35 C3.63259093 26.91700056 2.74049239 19.63545993 0 12 C0.66 12 1.32 12 2 12 C3.38232443 13.62626404 4.71937515 15.2925002 6 17 C4.35527335 11.7508724 2.51405625 6.90839553 0 2 C0 1.34 0 0.68 0 0 Z " fill="#6749E0" transform="translate(290,200)"/>
<path d="M0 0 C-2.35953094 2.35953094 -3.77895617 2.49141413 -7 3 C-6.28714844 2.96777344 -5.57429688 2.93554688 -4.83984375 2.90234375 C2.81648155 2.99508524 2.81648155 2.99508524 6.1484375 5.82421875 C7.94963489 8.14060579 9.51117772 10.47227426 11 13 C11.38671875 13.65226563 11.7734375 14.30453125 12.171875 14.9765625 C13.1268416 16.6440811 14.06404535 18.3217365 15 20 C16.29786393 21.69443347 17.61910767 23.37251976 19 25 C12.64062188 24.66529589 8.67086342 23.42372779 4 19 C1.77135387 15.98054395 1 14.75856468 1 11 C0.34 11.33 -0.32 11.66 -1 12 C-8.06874436 13.07390539 -12.53022223 11.65012983 -18.39453125 7.734375 C-21.22443524 5.85060083 -24.13161002 4.23476158 -27.125 2.625 C-28.05570313 2.12226563 -28.98640625 1.61953125 -29.9453125 1.1015625 C-30.62335938 0.73804688 -31.30140625 0.37453125 -32 0 C-23.8887868 -5.40747546 -9.296334 -1.14542289 0 0 Z " fill="#2247BA" transform="translate(216,218)"/>
<path d="M0 0 C2.64 0 5.28 0 8 0 C8.13535156 0.95777344 8.27070313 1.91554688 8.41015625 2.90234375 C11.55297197 23.14660714 21.15194914 38.87492571 32 56 C33.56920279 58.49595023 35.1301059 60.99663319 36.6875 63.5 C37.26886719 64.4178125 37.85023438 65.335625 38.44921875 66.28125 C42.50252922 73.38730563 45.36473112 80.58707771 43.3046875 88.7578125 C41.57901973 93.41847427 40.23935778 96.22433627 36 99 C36.33 97.9275 36.66 96.855 37 95.75 C40.73473156 80.40512468 34.95360952 68.7987117 27.15917969 55.88427734 C25.5578021 53.28119557 23.91586886 50.70481343 22.27392578 48.12719727 C18.38157608 42.00968866 14.74503022 35.86355252 11.5 29.375 C11.17386719 28.72418457 10.84773437 28.07336914 10.51171875 27.40283203 C6.22949887 18.63567016 4.83037657 10.66853577 5 1 C3.35 1 1.7 1 0 1 C0 0.67 0 0.34 0 0 Z " fill="#382C78" transform="translate(216,338)"/>
<path d="M0 0 C0.99 0 1.98 0 3 0 C4.32 4.29 5.64 8.58 7 13 C8.46339813 12.99333817 8.46339813 12.99333817 9.95635986 12.98654175 C19.19434556 12.9458264 28.43231281 12.91593486 37.67036819 12.89637566 C42.41863015 12.88598174 47.1668191 12.87190368 51.91503906 12.84912109 C56.50567076 12.82723492 61.09623266 12.81539843 65.68691254 12.81024551 C67.42980801 12.80657787 69.17270009 12.7994167 70.91556549 12.78853989 C80.48443215 12.73125071 89.59632279 12.94290005 99 15 C99.185625 13.2365625 99.185625 13.2365625 99.375 11.4375 C99.86435935 7.45879574 100.8055205 3.82233441 102 0 C102.99 0 103.98 0 105 0 C104.31171176 6.1945942 102.70435122 12.0148076 101 18 C99.86183838 17.9292627 98.72367676 17.85852539 97.55102539 17.78564453 C82.28060721 16.91177402 67.02090767 16.84489569 51.73120117 16.86962891 C48.13117946 16.87537433 44.53123157 16.8719989 40.93121243 16.86605644 C38.10762491 16.86241504 35.28405446 16.8636049 32.46046638 16.86618423 C30.49988378 16.86715469 28.53930045 16.86417322 26.57872009 16.86105347 C18.99385034 16.88076973 11.55069194 17.2717258 4 18 C2.68 12.06 1.36 6.12 0 0 Z " fill="#8A50FA" transform="translate(200,317)"/>
<path d="M0 0 C1.6621846 2.4932769 2.61570556 4.44739205 3.6875 7.1875 C12.71260895 27.65989788 37.87381339 35.18181088 57.01953125 42.703125 C62.64958216 44.88629988 68.31493578 46.96485789 74 49 C74 49.33 74 49.66 74 50 C69.09406409 50.1743403 65.14601055 49.69858128 60.46484375 48.2421875 C59.24974121 47.86690918 58.03463867 47.49163086 56.78271484 47.10498047 C55.50063968 46.69604164 54.21890648 46.28602935 52.9375 45.875 C52.28726868 45.66925354 51.63703735 45.46350708 50.96710205 45.25152588 C32.43047026 39.37986558 10.11023113 32.11416411 0 14 C-0.89214652 11.32356043 -1.13540211 9.74615622 -1.125 7 C-1.12757812 6.319375 -1.13015625 5.63875 -1.1328125 4.9375 C-1 3 -1 3 0 0 Z " fill="#844FF6" transform="translate(113,145)"/>
<path d="M0 0 C4.11557596 3.36413653 7.95775383 6.5939883 11 11 C11.37253906 11.53882813 11.74507813 12.07765625 12.12890625 12.6328125 C15.81017067 18.76397764 15.83161678 25.02317293 15 32 C13.20076485 39.11353235 7.85597418 43.91527727 2 48 C-6.44139458 52.75496277 -15.55604829 52.85763447 -25 52 C-28.48046875 50.9765625 -28.48046875 50.9765625 -31 50 C-28.71540242 47.71540242 -26.87462656 47.02870252 -23.875 45.875 C-22.96492187 45.52179688 -22.05484375 45.16859375 -21.1171875 44.8046875 C-20.06917969 44.40636719 -20.06917969 44.40636719 -19 44 C-19 44.66 -19 45.32 -19 46 C-6.29194023 45.55201406 -6.29194023 45.55201406 4.75 39.8125 C10.72218283 32.34727146 11.57177025 26.52950414 11 17 C10.67 19.31 10.34 21.62 10 24 C9.34 24 8.68 24 8 24 C6.82592979 21.73272667 5.66060261 19.46165376 4.5 17.1875 C4.16613281 16.54490234 3.83226562 15.90230469 3.48828125 15.24023438 C1.99760916 12.30452301 1 10.33873483 1 7 C3.475 9.475 3.475 9.475 6 12 C5.60167969 11.20335937 5.60167969 11.20335937 5.1953125 10.390625 C3.46354167 6.92708333 1.73177083 3.46354167 0 0 Z " fill="#3C2B7A" transform="translate(276,403)"/>
<path d="M0 0 C3.72041534 1.42831302 7.24329341 3.10643294 10.8125 4.875 C19.96867297 9.10408438 29.52943539 11.1707742 39.39453125 13.02734375 C40.75952759 13.28717041 40.75952759 13.28717041 42.15209961 13.55224609 C43.94084413 13.88744524 45.73205216 14.20980214 47.52563477 14.51806641 C48.33959717 14.66808105 49.15355957 14.8180957 49.9921875 14.97265625 C50.71776855 15.09906494 51.44334961 15.22547363 52.19091797 15.35571289 C54 16 54 16 56 19 C45.76343883 23.13399586 34.03149496 23.96948777 23.625 20 C14.37700247 15.57102703 5.9121078 8.40141635 0 0 Z " fill="#3247C3" transform="translate(129,193)"/>
<path d="M0 0 C5.11915589 3.71389741 10.0327635 7.62286853 14.875 11.6875 C15.73194458 12.40063354 15.73194458 12.40063354 16.60620117 13.12817383 C19.17483437 15.30045324 21.12080377 17.18120565 23 20 C19.50470706 18.88786134 16.25530808 17.68426809 13 16 C19.00500945 23.99832157 25.14854113 31.69693838 32 39 C32.57105469 39.64710938 33.14210937 40.29421875 33.73046875 40.9609375 C39.00372497 46.69763904 46.27414985 52.17842499 54.3125 52.625 C59.33846471 51.77314157 62.37064419 50.24318514 65.41015625 46.05859375 C66.66748878 44.06812272 67.83940459 42.0478622 69 40 C69.66 39.01 70.32 38.02 71 37 C70.9703616 43.40189534 69.6242091 47.33680333 65.66796875 52.37109375 C62.61584377 55.35174039 59.72204298 56.33111828 55.5 56.5 C43.56318697 56.15045935 34.49831552 47.85275879 26.59814453 39.70800781 C16.88734016 29.32964127 2.88506584 14.16430886 0 0 Z " fill="#2F2B70" transform="translate(189,175)"/>
<path d="M0 0 C3.19202591 2.32147339 5.70173986 4.77893017 8.1875 7.8125 C14.39369787 15.03963086 23.07291964 20.67511803 32 24 C35.45828022 24.16669318 35.45828022 24.16669318 39 24 C51.78211823 26.49407185 64.4601428 31.58762685 76.5625 36.3125 C82.09598537 38.4724534 87.0775289 39.58438799 93 40 C93.33 40.66 93.66 41.32 94 42 C84.40028588 42.76666659 77.2080649 40.74396451 68.375 37.125 C60.63523013 34.02735668 53.27366691 31.23975617 45 30 C46.98 31.32 48.96 32.64 51 34 C47.67891396 35.10702868 47.14211371 34.9535623 44.0078125 33.8125 C43.22656006 33.52971191 42.44530762 33.24692383 41.64038086 32.95556641 C40.39526733 32.48256104 40.39526733 32.48256104 39.125 32 C37.84604858 31.51732666 37.84604858 31.51732666 36.54125977 31.02490234 C22.36819554 25.54897605 9.02948856 18.46881952 1 5 C0.1875 2.0625 0.1875 2.0625 0 0 Z " fill="#3A2B78" transform="translate(113,167)"/>
<path d="M0 0 C2.64 0 5.28 0 8 0 C8.99 3.3 9.98 6.6 11 10 C12.32 7.36 13.64 4.72 15 2 C17.64 2 20.28 2 23 2 C23.33 8.93 23.66 15.86 24 23 C21.03 22.67 18.06 22.34 15 22 C15.33 21.34 15.66 20.68 16 20 C16.06950541 18.45976004 16.08452357 16.91665012 16.0625 15.375 C16.05347656 14.55773437 16.04445313 13.74046875 16.03515625 12.8984375 C16.02355469 12.27195312 16.01195312 11.64546875 16 11 C14.68 13.31 13.36 15.62 12 18 C10.35 18 8.7 18 7 18 C5.8422494 14.52674819 5.93133348 11.63932552 6 8 C5.34 8 4.68 8 4 8 C3.67 11.96 3.34 15.92 3 20 C0.36 19.67 -2.28 19.34 -5 19 C-3.35 12.73 -1.7 6.46 0 0 Z " fill="#874DF0" transform="translate(324,281)"/>
<path d="M0 0 C0.33 0 0.66 0 1 0 C1.08636719 1.29292969 1.17273438 2.58585937 1.26171875 3.91796875 C2.23947684 16.62392898 4.15019437 26.99637638 11 38 C11.66 35.69 12.32 33.38 13 31 C16.03900338 34.65225519 18.62458117 38.47110844 21.125 42.5 C27.55478865 52.66948109 34.88795434 62.10898307 43 71 C43.33 68.69 43.66 66.38 44 64 C46.14413657 67.21620485 47.66081546 70.53136846 49.1875 74.0625 C49.47302734 74.69994141 49.75855469 75.33738281 50.05273438 75.99414062 C50.76427903 77.63709898 51.38897327 79.31706973 52 81 C51.67 81.66 51.34 82.32 51 83 C45.44874595 78.38597066 40.62367141 73.53324611 36 68 C34.83984375 66.65421875 34.83984375 66.65421875 33.65625 65.28125 C27.58600104 58.16182221 22.19089996 50.77381153 17 43 C17.4640625 44.36125 17.4640625 44.36125 17.9375 45.75 C18.7272263 48.16563338 19.42949297 50.52780285 20 53 C8.850734 46.13668561 4.03529125 35.35076913 0.46069336 23.16088867 C-0.0596727 20.72010437 -0.11287032 18.51073201 -0.09765625 16.015625 C-0.09443359 15.08105469 -0.09121094 14.14648438 -0.08789062 13.18359375 C-0.07951172 12.21550781 -0.07113281 11.24742188 -0.0625 10.25 C-0.05798828 9.26644531 -0.05347656 8.28289062 -0.04882812 7.26953125 C-0.03706483 4.84629209 -0.02062684 2.42317727 0 0 Z " fill="#3F2B7D" transform="translate(135,100)"/>
<path d="M0 0 C4.8612068 4.41927891 8.46118331 9.48223976 12 15 C12.5878125 15.88558594 13.175625 16.77117187 13.78125 17.68359375 C19.08190628 26.69720974 19.92118153 36.90317754 17.51513672 47.04345703 C16.08514669 51.78727785 14.5398577 56.4601423 11 60 C10.34 60 9.68 60 9 60 C7.19939002 61.55683115 7.19939002 61.55683115 5.375 63.5 C4.42753906 64.47453125 4.42753906 64.47453125 3.4609375 65.46875 C2.97882813 65.9740625 2.49671875 66.479375 2 67 C1.34 66.67 0.68 66.34 0 66 C0.38671875 65.42894531 0.7734375 64.85789062 1.171875 64.26953125 C10.05068416 50.44584075 12.33439189 35.59620447 8.875 19.625 C7.38656239 14.43693621 5.04138227 9.91338639 2.3046875 5.27734375 C1 3 1 3 0 0 Z " fill="#834EF4" transform="translate(363,96)"/>
<path d="M0 0 C-1.64452969 1.69436393 -3.30715841 3.35466162 -5 5 C-5.4846875 5.48082031 -5.969375 5.96164063 -6.46875 6.45703125 C-14.60229625 14.01245779 -26.15307101 19.62312612 -37.390625 19.390625 C-44.07332838 18.3902203 -51.3242166 15.99227408 -56 11 C-55.11030518 11.03927612 -55.11030518 11.03927612 -54.20263672 11.0793457 C-41.70836056 11.55691867 -31.45049693 11.50877883 -20 6 C-19.02160156 5.53464844 -18.04320312 5.06929687 -17.03515625 4.58984375 C-15.34072506 3.75599885 -13.6561453 2.90141498 -11.98828125 2.015625 C-7.89301789 -0.07625805 -4.53588251 -0.08558269 0 0 Z " fill="#2045B2" transform="translate(207,244)"/>
<path d="M0 0 C9 0 9 0 11.62890625 2.625 C12.26699219 3.73875 12.90507812 4.8525 13.5625 6 C14.22378906 7.11375 14.88507813 8.2275 15.56640625 9.375 C16.03949219 10.24125 16.51257813 11.1075 17 12 C17.33 8.37 17.66 4.74 18 1 C20.31 1 22.62 1 25 1 C25 7.6 25 14.2 25 21 C16 21 16 21 13.37109375 18.375 C12.73300781 17.26125 12.09492188 16.1475 11.4375 15 C10.77621094 13.88625 10.11492187 12.7725 9.43359375 11.625 C8.96050781 10.75875 8.48742187 9.8925 8 9 C8 12.63 8 16.26 8 20 C5.36 20 2.72 20 0 20 C0 13.4 0 6.8 0 0 Z " fill="#884DF2" transform="translate(253,276)"/>
<path d="M0 0 C2.64 0 5.28 0 8 0 C8.34933594 1.20398438 8.69867188 2.40796875 9.05859375 3.6484375 C9.51812917 5.2239875 9.97777006 6.79950675 10.4375 8.375 C10.66759766 9.1690625 10.89769531 9.963125 11.13476562 10.78125 C11.35712891 11.54179687 11.57949219 12.30234375 11.80859375 13.0859375 C12.11494751 14.1385376 12.11494751 14.1385376 12.42749023 15.21240234 C12.97376321 17.07510758 12.97376321 17.07510758 14 19 C11.36 19 8.72 19 6 19 C5.86722656 18.36191406 5.73445313 17.72382813 5.59765625 17.06640625 C5.42105469 16.24011719 5.24445313 15.41382813 5.0625 14.5625 C4.88847656 13.73878906 4.71445313 12.91507812 4.53515625 12.06640625 C4.19247006 10.02338796 4.19247006 10.02338796 3 9 C2.34 11.97 1.68 14.94 1 18 C-0.65 18 -2.3 18 -4 18 C-5.32 15.36 -6.64 12.72 -8 10 C-8.02698189 11.62490954 -8.04638757 13.24994633 -8.0625 14.875 C-8.07410156 15.77992188 -8.08570313 16.68484375 -8.09765625 17.6171875 C-8.16249257 20.0168585 -8.16249257 20.0168585 -7 22 C-9.64 22 -12.28 22 -15 22 C-14.98839844 20.72382813 -14.97679687 19.44765625 -14.96484375 18.1328125 C-14.95546583 16.46354313 -14.94636563 14.79427217 -14.9375 13.125 C-14.92912109 12.28324219 -14.92074219 11.44148438 -14.91210938 10.57421875 C-14.90888672 9.76855469 -14.90566406 8.96289062 -14.90234375 8.1328125 C-14.89710693 7.38918457 -14.89187012 6.64555664 -14.88647461 5.87939453 C-14.88213364 3.90867432 -14.88213364 3.90867432 -16 2 C-11.545 1.505 -11.545 1.505 -7 1 C-5.35 3.97 -3.7 6.94 -2 10 C-1.34 6.7 -0.68 3.4 0 0 Z " fill="#894EF5" transform="translate(171,281)"/>
<path d="M0 0 C4.8471387 9.04799225 4.27103975 21.59395966 2.31640625 31.4453125 C-1.70156625 43.14911622 -9.75101531 53.23567011 -20 60 C-20.66 59.67 -21.32 59.34 -22 59 C-21.48050781 58.20078125 -20.96101563 57.4015625 -20.42578125 56.578125 C-15.13174793 48.24075645 -10.17978449 39.75166745 -8 30 C-7.34 30 -6.68 30 -6 30 C-5.80664062 29.41992188 -5.61328125 28.83984375 -5.4140625 28.2421875 C-3 21 -3 21 -1.9375 18.1875 C-0.85210954 14.49717243 -0.55254133 10.94213855 -0.375 7.125 C-0.33632813 6.43664062 -0.29765625 5.74828125 -0.2578125 5.0390625 C-0.16451834 3.35976754 -0.08121762 1.67992233 0 0 Z " fill="#3C2465" transform="translate(381,126)"/>
<path d="M0 0 C3.28122603 2.67213617 4.56992593 6.18655203 6.125 10 C6.38925781 10.6290625 6.65351563 11.258125 6.92578125 11.90625 C11.07260791 21.84179409 11.89059918 33.84275358 8.3125 44.1875 C3.42381056 55.28889894 -4.79268746 61.5123759 -16 66 C-19.5 66.75 -19.5 66.75 -22 67 C-19.38702202 64.28674973 -16.72459457 61.97252746 -13.6875 59.75 C-3.90161748 52.1816081 2.73228597 42.88017313 4.71484375 30.484375 C5.82015619 20.85452966 3.89375681 13.22748157 1 4 C0.65351734 2.67002306 0.31313075 1.33822196 0 0 Z " fill="#7F4DEE" transform="translate(346,121)"/>
<path d="M0 0 C5.14314705 2.35115294 7.86696015 5.87550183 10 11 C10.94436006 15.44694926 10.8591763 19.15355202 8.92578125 23.30859375 C6.08502431 27.55027192 3.06983115 30.19946035 -1.84765625 31.671875 C-7.31961718 32.50607594 -12.16964326 31.64364119 -17 29 C-15 27 -15 27 -11.6875 25.75 C-7.74935643 24.09269791 -5.05883431 21.76380647 -3 18 C-2.0683108 15.03024069 -1.45802729 12.07630271 -1 9 C-0.01 9.99 0.98 10.98 2 12 C2.21278058 7.53160785 1.59138085 4.17737474 0 0 Z " fill="#3A48CA" transform="translate(225,398)"/>
<path d="M0 0 C0.86625 0.825 1.7325 1.65 2.625 2.5 C12.25443552 10.66408663 24.32593689 15.74453736 35.74023438 20.87963867 C46.21262838 25.71367415 55.12255215 32.14984213 60.875 42.3125 C63.64741267 51.39985265 61.72532227 59.40728586 58 68 C57.34 68.66 56.68 69.32 56 70 C56.0721875 69.34515625 56.144375 68.6903125 56.21875 68.015625 C58.17686026 52.3902216 58.17686026 52.3902216 53 38 C49.63494091 34.25135905 46.25260101 31.71833406 41.875 29.25 C40.98288818 28.74521118 40.98288818 28.74521118 40.07275391 28.23022461 C35.75206378 25.83540642 31.32939886 23.73506765 26.83642578 21.68554688 C4.86167208 11.65937478 4.86167208 11.65937478 0 2 C0 1.34 0 0.68 0 0 Z " fill="#814FF5" transform="translate(249,358)"/>
<path d="M0 0 C0.97066406 -0.00257813 1.94132813 -0.00515625 2.94140625 -0.0078125 C5.4375 0.125 5.4375 0.125 7.4375 1.125 C7.4375 2.775 7.4375 4.425 7.4375 6.125 C2.8175 6.125 -1.8025 6.125 -6.5625 6.125 C-6.5625 9.095 -6.5625 12.065 -6.5625 15.125 C-3.5925 15.455 -0.6225 15.785 2.4375 16.125 C1.86297254 12.19424356 1.86297254 12.19424356 -0.5625 9.125 C2.4075 9.125 5.3775 9.125 8.4375 9.125 C8.4375 12.755 8.4375 16.385 8.4375 20.125 C5.27740467 21.17836511 2.8821864 21.32532888 -0.4375 21.375 C-1.98050781 21.41367187 -1.98050781 21.41367187 -3.5546875 21.453125 C-6.971092 21.08042633 -8.79808589 20.1234308 -11.5625 18.125 C-13.88649351 15.13700835 -14.03672416 11.82784602 -13.953125 8.09375 C-13.28050064 4.70372325 -11.20962896 3.15651758 -8.5625 1.125 C-5.46186477 0.09145492 -3.24805932 -0.00864996 0 0 Z " fill="#864BEB" transform="translate(235.5625,275.875)"/>
<path d="M0 0 C0.75410156 0.00322266 1.50820312 0.00644531 2.28515625 0.00976562 C3.06246094 0.01814453 3.83976563 0.02652344 4.640625 0.03515625 C5.43339844 0.03966797 6.22617188 0.04417969 7.04296875 0.04882812 C8.99222008 0.0605706 10.94143238 0.07850479 12.890625 0.09765625 C12.890625 1.41765625 12.890625 2.73765625 12.890625 4.09765625 C8.600625 4.09765625 4.310625 4.09765625 -0.109375 4.09765625 C-0.109375 5.41765625 -0.109375 6.73765625 -0.109375 8.09765625 C3.190625 7.76765625 6.490625 7.43765625 9.890625 7.09765625 C9.890625 9.07765625 9.890625 11.05765625 9.890625 13.09765625 C6.590625 12.76765625 3.290625 12.43765625 -0.109375 12.09765625 C-0.109375 13.74765625 -0.109375 15.39765625 -0.109375 17.09765625 C1.99606513 16.81532904 4.09996089 16.52146645 6.203125 16.22265625 C7.37488281 16.06023437 8.54664063 15.8978125 9.75390625 15.73046875 C13.03593395 15.27465004 13.03593395 15.27465004 15.890625 13.09765625 C15.890625 15.40765625 15.890625 17.71765625 15.890625 20.09765625 C5.000625 20.59265625 5.000625 20.59265625 -6.109375 21.09765625 C-6.546875 12.22265625 -6.546875 12.22265625 -6.67749023 9.43017578 C-6.71559814 8.70427246 -6.75370605 7.97836914 -6.79296875 7.23046875 C-6.84795532 6.11502686 -6.84795532 6.11502686 -6.90405273 4.97705078 C-7.00893365 3.00901313 -7.00893365 3.00901313 -8.109375 1.09765625 C-5.33213575 0.3107718 -2.88327423 -0.02184299 0 0 Z " fill="#864BEC" transform="translate(199.109375,277.90234375)"/>
<path d="M0 0 C2.15433672 2.15433672 2.85257352 3.79137806 4.0625 6.5625 C7.02362982 12.6620728 11.80679164 18.90339582 18 22 C17.505 19.525 17.505 19.525 17 17 C17.61875 17.639375 18.2375 18.27875 18.875 18.9375 C19.91206394 19.96300891 20.95457197 20.98301899 22 22 C22.68191406 22.66644531 23.36382812 23.33289063 24.06640625 24.01953125 C36.09027588 35.33028835 53.48692567 47.16918726 70 50 C70 50.66 70 51.32 70 52 C53.34552962 49.39867339 35.75316926 41.28055506 24 29 C23.01 29.33 22.02 29.66 21 30 C18.04513236 28.40694093 15.55535952 26.16476129 13 24 C12.37222656 23.46890625 11.74445313 22.9378125 11.09765625 22.390625 C4.54696432 16.37029543 0.58123691 8.91229934 0 0 Z " fill="#3F2C7F" transform="translate(121,140)"/>
<path d="M0 0 C1.66801405 0.43233453 3.33433808 0.87119012 5 1.3125 C5.928125 1.55613281 6.85625 1.79976563 7.8125 2.05078125 C10.23219206 2.77135131 12.50313464 3.561775 14.84765625 4.4765625 C18.97486867 6.05380678 23.13006538 7.1040407 27.4375 8.0625 C28.55934692 8.31737183 28.55934692 8.31737183 29.70385742 8.57739258 C31.16441755 8.9087668 32.62541775 9.23820913 34.08691406 9.56542969 C35.62192447 9.91411761 37.15178811 10.28542854 38.6796875 10.6640625 C42.80742328 11.67709656 46.75401276 12.16047197 51 12.4375 C56.38314951 12.81017958 61.00565771 13.9946959 66 16 C65.67 16.66 65.34 17.32 65 18 C71.01077136 16.36959185 77.01663928 14.72852643 83 13 C77.64029887 18.86060777 70.72693433 21.88703121 62.796875 22.38671875 C52.2958753 22.64793765 52.2958753 22.64793765 47 20 C50.3 19.34 53.6 18.68 57 18 C51.6995337 16.57822786 46.45232333 15.54983897 41.03149414 14.70703125 C26.47712662 12.41843184 13.10224783 8.79267374 0 2 C0 1.34 0 0.68 0 0 Z " fill="#352A72" transform="translate(250,357)"/>
<path d="M0 0 C0.845625 0.28746094 1.69125 0.57492188 2.5625 0.87109375 C6.02422912 2.00795706 9.49911901 3.05292577 13 4.0625 C14.175625 4.40410156 15.35125 4.74570313 16.5625 5.09765625 C28.53704062 8.24097316 39.02976673 7.12384331 50.875 4 C60.12689896 1.69460446 68.42804255 0.06020781 78 1 C77.67 1.66 77.34 2.32 77 3 C74.98144531 3.54663086 74.98144531 3.54663086 72.328125 3.96484375 C70.87539185 4.20291748 70.87539185 4.20291748 69.39331055 4.44580078 C68.35601807 4.60806152 67.31872559 4.77032227 66.25 4.9375 C56.93230582 6.46958727 47.76559319 8.20254042 38.6328125 10.62890625 C33.01512868 11.98131161 27.50471 12.23677253 21.75 12.3125 C20.59624878 12.33896606 20.59624878 12.33896606 19.41918945 12.3659668 C13.47087017 12.35885854 9.32913363 11.20880939 4.8828125 6.9921875 C4.01269531 5.94417969 4.01269531 5.94417969 3.125 4.875 C2.52945313 4.17117187 1.93390625 3.46734375 1.3203125 2.7421875 C0 1 0 1 0 0 Z " fill="#844FF6" transform="translate(129,231)"/>
<path d="M0 0 C2.64 0 5.28 0 8 0 C7.67 0.66 7.34 1.32 7 2 C6.9037238 4.01896864 6.87018175 6.0412429 6.875 8.0625 C6.87242187 9.14660156 6.86984375 10.23070312 6.8671875 11.34765625 C6.69881436 13.92243398 6.69881436 13.92243398 8 15 C10.33297433 15.04092937 12.66705225 15.04241723 15 15 C16.35091528 12.29816945 16.33858058 9.88191794 16.5625 6.875 C16.64628906 5.77929688 16.73007812 4.68359375 16.81640625 3.5546875 C16.90728516 2.29011719 16.90728516 2.29011719 17 1 C19.64 1 22.28 1 25 1 C24.67 1.66 24.34 2.32 24 3 C23.55429409 6.27439393 23.16725033 9.55263573 22.79296875 12.8359375 C21.89488897 16.41940853 20.84354068 17.71433492 18 20 C14.80238831 21.59880585 11.47853047 21.36854319 8 21 C3.9773783 19.43564712 2.40850891 18.61276337 0 15 C-0.14221065 12.39754502 -0.18802932 9.90882316 -0.125 7.3125 C-0.11597656 6.61060547 -0.10695313 5.90871094 -0.09765625 5.18554688 C-0.07413704 3.45688475 -0.03826713 1.72839855 0 0 Z " fill="#874CEF" transform="translate(288,278)"/>
<path d="M0 0 C0.66 0.33 1.32 0.66 2 1 C3.66424986 6.01450449 4.17980137 11.43142875 1.94140625 16.3046875 C-6.41860438 29.3997719 -18.74735946 36.83991458 -32.625 43.0625 C-33.31207031 43.37388916 -33.99914062 43.68527832 -34.70703125 44.00610352 C-39.63036623 46.12321126 -39.63036623 46.12321126 -43 45 C-41.91203125 44.45472656 -40.8240625 43.90945312 -39.703125 43.34765625 C-22.47297441 34.57032922 -7.85020614 25.03165966 -1 6 C-0.1551543 2.56214337 -0.1551543 2.56214337 0 0 Z " fill="#834EF3" transform="translate(384,163)"/>
<path d="M0 0 C1.48756767 2.97513535 0.39803284 4.8874752 -0.4375 8.0625 C-4.08209136 23.51826707 -0.22079967 38.50190949 8 52 C9.56735989 54.16893144 11.15898745 56.0506926 13 58 C12.67 58.66 12.34 59.32 12 60 C1.02680541 50.14651914 -6.77983528 37.93908009 -8.30859375 22.98046875 C-8.53089208 13.42164041 -6.02082137 7.2893592 0 0 Z " fill="#834EF4" transform="translate(148,75)"/>
<path d="M0 0 C1.216875 0.4125 2.43375 0.825 3.6875 1.25 C4.51894531 1.51941406 5.35039062 1.78882813 6.20703125 2.06640625 C8.09454643 2.6973379 9.96749499 3.37334869 11.82421875 4.08984375 C18.55870015 6.51287739 24.71043152 7.39127515 31.8125 7.4375 C32.99465088 7.4523645 32.99465088 7.4523645 34.20068359 7.4675293 C38.28745913 7.40772073 41.57464631 6.93808962 45.38671875 5.421875 C49 4 49 4 52 4.8125 C52.66 5.204375 53.32 5.59625 54 6 C49.37762867 11.20389546 42.64704934 12.90335223 35.8828125 13.39453125 C22.27320983 13.92668201 11.97773445 10.22317378 1 2 C0.67 1.34 0.34 0.68 0 0 Z " fill="#332B73" transform="translate(133,220)"/>
<path d="M0 0 C7.95986161 -0.60969153 15.26386941 0.23064836 21.703125 5.35546875 C24.06068616 7.88239493 25.09041863 10.28632567 26.125 13.5625 C26 17 26 17 23.8125 19.875 C21.23169225 21.82494364 20.03169679 22.38976553 17 23 C16.97421875 22.41992188 16.9484375 21.83984375 16.921875 21.2421875 C16.52461182 15.7707901 15.81502704 12.1872248 12 8 C9.47360344 6.29804949 6.9089163 4.76871938 4.2421875 3.296875 C2 2 2 2 0 0 Z " fill="#362B76" transform="translate(311,388)"/>
<path d="M0 0 C2.89238501 3.48683224 4.70028177 7.37442031 6.625 11.4375 C11.30498364 21.0462044 17.0892433 29.43212473 23.8125 37.75 C31.26331302 47.2014943 33.72363581 58.13237278 33 70 C32.5 73.125 32.5 73.125 32 75 C31.67 75 31.34 75 31 75 C30.93683594 73.79085937 30.87367188 72.58171875 30.80859375 71.3359375 C29.67930416 54.68703122 23.6705325 44.03148563 13.85717773 30.90673828 C10.08403246 25.76886165 6.9577969 20.58383022 4.25 14.8125 C3.92717041 14.13018311 3.60434082 13.44786621 3.27172852 12.74487305 C1.36990446 8.48118272 0.45797945 4.64608101 0 0 Z " fill="#814FF4" transform="translate(219,363)"/>
<path d="M0 0 C0.66 0.33 1.32 0.66 2 1 C-1.43865059 9.43246979 -6.12853881 15.57589553 -14.08984375 20.21875 C-16 21 -16 21 -19 21 C-19.68359375 19.30729167 -20.3671875 17.61458333 -21.05078125 15.921875 C-22.13413883 13.72841027 -23.4865507 11.91618791 -25 10 C-23.89205078 9.88785156 -23.89205078 9.88785156 -22.76171875 9.7734375 C-14.26232903 8.67186475 -6.21190465 6.21190465 0 0 Z " fill="#1846B0" transform="translate(332,188)"/>
<path d="M0 0 C-4.35766361 3.96556299 -9.06127669 5.98155156 -14.4375 8.1875 C-15.68756836 8.72020508 -15.68756836 8.72020508 -16.96289062 9.26367188 C-23.63078739 12.04152294 -29.43496587 13.14538308 -36.6875 13.1875 C-37.80511719 13.20167969 -38.92273438 13.21585938 -40.07421875 13.23046875 C-43 13 -43 13 -46 11 C-45.17435547 10.77957031 -45.17435547 10.77957031 -44.33203125 10.5546875 C-39.51295397 9.25465735 -34.70553535 7.92001725 -29.91015625 6.53515625 C-29.00096436 6.27299316 -28.09177246 6.01083008 -27.1550293 5.74072266 C-25.33680672 5.21539094 -23.51923128 4.68781285 -21.70239258 4.15771484 C-5.96736333 -0.38499118 -5.96736333 -0.38499118 0 0 Z " fill="#2F2C72" transform="translate(197,238)"/>
<path d="M0 0 C1.25683594 0.48726562 1.25683594 0.48726562 2.5390625 0.984375 C10.99539797 3.46591814 20.67022218 2.71992745 29 0 C26.56082677 5.52879265 22.11593864 8.17299551 17 11 C12.51290311 12.67315477 8.77494843 13.23292431 4 13 C3.87882812 12.39671875 3.75765625 11.7934375 3.6328125 11.171875 C3.46523438 10.37265625 3.29765625 9.5734375 3.125 8.75 C2.96257812 7.96109375 2.80015625 7.1721875 2.6328125 6.359375 C2.00849925 4.03168856 1.15161458 2.10968048 0 0 Z " fill="#1548B6" transform="translate(319,245)"/>
<path d="M0 0 C0.99 0 1.98 0 3 0 C2.31171176 6.1945942 0.70435122 12.0148076 -1 18 C-2.18166748 17.93433838 -3.36333496 17.86867676 -4.58081055 17.80102539 C-19.98651593 16.98562753 -35.38869759 16.6848543 -50.8125 16.4375 C-53.36654144 16.39417266 -55.92057796 16.35055462 -58.47460938 16.30664062 C-64.64968712 16.20108615 -70.82481516 16.0990806 -77 16 C-77 15.67 -77 15.34 -77 15 C-59.84 15 -42.68 15 -25 15 C-25 14.34 -25 13.68 -25 13 C-17.44862068 12.69928135 -10.41143564 13.57374434 -3 15 C-2.814375 13.2365625 -2.814375 13.2365625 -2.625 11.4375 C-2.13564065 7.45879574 -1.1944795 3.82233441 0 0 Z " fill="#783BBB" transform="translate(302,317)"/>
<path d="M0 0 C2.47093836 2.47093836 3.02983838 4.57981301 4.1875 7.875 C10.82452707 25.40059902 23.04333514 38.94188991 35.25 52.8203125 C37.2799642 55.13930235 39.20342617 57.49228236 41 60 C40.505 60.99 40.505 60.99 40 62 C32.01116537 53.57933647 24.14499513 45.16161993 17 36 C15.82630859 34.51886719 15.82630859 34.51886719 14.62890625 33.0078125 C9.94719386 26.96540538 6.08298268 21.00255362 3 14 C2.34 14.99 1.68 15.98 1 17 C-0.18681726 13.43954823 -0.09689832 10.56191663 -0.0625 6.8125 C-0.05347656 5.54019531 -0.04445312 4.26789063 -0.03515625 2.95703125 C-0.02355469 1.98121094 -0.01195312 1.00539062 0 0 Z " fill="#7A4CEB" transform="translate(191,139)"/>
<path d="M0 0 C0.33 0 0.66 0 1 0 C3.79938729 11.99412277 2.66530831 24.32081995 -3.765625 34.90625 C-7.92453326 40.86626026 -12.67996622 46.06198993 -18 51 C-18 46.19335918 -15.00857038 42.82339966 -12.53125 38.8125 C-10.76091587 36.09458664 -10.76091587 36.09458664 -11 33 C-10.443125 32.484375 -9.88625 31.96875 -9.3125 31.4375 C-2.83474266 24.60959361 -0.96119289 16.33306685 -0.4375 7.25 C-0.39431641 6.55261719 -0.35113281 5.85523438 -0.30664062 5.13671875 C-0.20110404 3.42468078 -0.1001009 1.71236439 0 0 Z " fill="#392462" transform="translate(356,144)"/>
<path d="M0 0 C0.8971875 0.309375 0.8971875 0.309375 1.8125 0.625 C0.17071735 5.40109498 -2.45296702 9.41882904 -5.1875 13.625 C-4.72859375 13.21507812 -4.2696875 12.80515625 -3.796875 12.3828125 C-3.18328125 11.84398437 -2.5696875 11.30515625 -1.9375 10.75 C-1.03257812 9.94949219 -1.03257812 9.94949219 -0.109375 9.1328125 C1.8125 7.625 1.8125 7.625 3.984375 6.6171875 C6.16609354 5.702474 6.16609354 5.702474 6.8125 2.625 C7.1425 3.285 7.4725 3.945 7.8125 4.625 C3.441675 11.90970834 -2.63385127 18.59638734 -10.1875 22.625 C-13.0625 22.875 -13.0625 22.875 -15.1875 22.625 C-13.71619627 18.2676774 -11.35669385 14.90565866 -8.5625 11.3125 C-8.14226562 10.76271484 -7.72203125 10.21292969 -7.2890625 9.64648438 C-6.26029961 8.30207832 -5.2245991 6.96298587 -4.1875 5.625 C-6.1675 5.955 -8.1475 6.285 -10.1875 6.625 C-3.20231959 -0.54896907 -3.20231959 -0.54896907 0 0 Z " fill="#6248DC" transform="translate(267.1875,237.375)"/>
<path d="M0 0 C-2.65949578 1.35225446 -5.33931772 2.60910255 -8.07421875 3.80078125 C-14.33031855 6.56432974 -20.47178694 9.56473528 -26.62304688 12.55273438 C-27.51701172 12.98263672 -28.41097656 13.41253906 -29.33203125 13.85546875 C-30.13358643 14.24371826 -30.9351416 14.63196777 -31.76098633 15.03198242 C-36.35820079 17.01954706 -41.02038098 17.79336303 -46 17 C-49.48185884 15.58146492 -52.74106083 13.86988313 -56 12 C-56 11.67 -56 11.34 -56 11 C-55.11030518 11.03927612 -55.11030518 11.03927612 -54.20263672 11.0793457 C-41.70836056 11.55691867 -31.45049693 11.50877883 -20 6 C-19.02160156 5.53464844 -18.04320312 5.06929687 -17.03515625 4.58984375 C-15.34072506 3.75599885 -13.6561453 2.90141498 -11.98828125 2.015625 C-7.89301789 -0.07625805 -4.53588251 -0.08558269 0 0 Z " fill="#804EF2" transform="translate(207,244)"/>
<path d="M0 0 C3.72041534 1.42831302 7.24329341 3.10643294 10.8125 4.875 C19.96867297 9.10408438 29.52943539 11.1707742 39.39453125 13.02734375 C40.75952759 13.28717041 40.75952759 13.28717041 42.15209961 13.55224609 C43.94084413 13.88744524 45.73205216 14.20980214 47.52563477 14.51806641 C48.33959717 14.66808105 49.15355957 14.8180957 49.9921875 14.97265625 C50.71776855 15.09906494 51.44334961 15.22547363 52.19091797 15.35571289 C54 16 54 16 56 19 C9.65216868 12.69274699 9.65216868 12.69274699 2 3 C1.34 2.01 0.68 1.02 0 0 Z " fill="#804EF1" transform="translate(129,193)"/>
<path d="M0 0 C0.99 0 1.98 0 3 0 C2.99476318 0.89195068 2.98952637 1.78390137 2.98413086 2.70288086 C2.9669603 6.0520087 2.95448774 9.40108889 2.94506836 12.75024414 C2.94007852 14.192309 2.93328427 15.63436891 2.92456055 17.07641602 C2.8791541 24.78215673 2.91468158 32.35149621 4 40 C-0.36320373 36.09013596 -1.69877904 31.03031574 -2.26806641 25.30322266 C-2.36508977 22.46665747 -2.3607927 19.65017929 -2.3125 16.8125 C-2.31572266 15.85408203 -2.31894531 14.89566406 -2.32226562 13.90820312 C-2.28408373 8.88554804 -1.98309494 4.70096212 0 0 Z " fill="#824FF5" transform="translate(212,339)"/>
<path d="M0 0 C5.15973792 7.73960689 5.02452796 15.90995741 4 25 C2.78849534 30.38910695 0.95075233 36.04924767 -3 40 C-3.66 40 -4.32 40 -5 40 C-5.99 40.66 -6.98 41.32 -8 42 C-7.07770884 39.6174145 -6.12212785 37.2632756 -5.046875 34.9453125 C-4.52867187 33.82769531 -4.52867187 33.82769531 -4 32.6875 C-3.67 31.99011719 -3.34 31.29273438 -3 30.57421875 C-0.22258336 23.42454075 0.26840995 17.08969564 0.125 9.5 C0.11597656 8.5821875 0.10695313 7.664375 0.09765625 6.71875 C0.07432432 4.47888444 0.04159235 2.23958817 0 0 Z " fill="#3F47CB" transform="translate(377,116)"/>
<path d="M0 0 C-2.35953094 2.35953094 -3.77895617 2.49141413 -7 3 C-6.26394531 3.00257813 -5.52789062 3.00515625 -4.76953125 3.0078125 C3.10584892 3.31991475 3.10584892 3.31991475 5.84375 5.40234375 C7.1875 7.0625 7.1875 7.0625 9 10 C8.67 10.66 8.34 11.32 8 12 C6.5 10.625 6.5 10.625 5 9 C5 8.34 5 7.68 5 7 C0.36724696 5.45574899 -4.38187313 5.60602185 -9.23828125 5.37890625 C-12.79269984 5.0208807 -15.67693933 4.27255192 -19 3 C-19 2.67 -19 2.34 -19 2 C-19.90492188 2.05220703 -19.90492188 2.05220703 -20.828125 2.10546875 C-27.4373928 2.32933105 -27.4373928 2.32933105 -30.5625 0.5 C-31.036875 0.005 -31.51125 -0.49 -32 -1 C-22.20352348 -4.26549217 -10.04950303 -1.2382226 0 0 Z " fill="#774EED" transform="translate(216,218)"/>
<path d="M0 0 C5.14314705 2.35115294 7.86696015 5.87550183 10 11 C10.94436006 15.44694926 10.8591763 19.15355202 8.92578125 23.30859375 C6.08581768 27.5490873 3.07138818 30.19733355 -1.84375 31.671875 C-7.09816944 32.47146057 -11.57817843 31.94788104 -16 29 C-14.700625 29.0825 -13.40125 29.165 -12.0625 29.25 C-6.70227492 29.23309077 -2.50902557 27.89479441 2 25 C5.21133135 21.63201834 6.23868208 19.04987169 6.4375 14.5 C6.26519939 10.42681358 5.1536168 7.4996273 3 4 C2.34 4 1.68 4 1 4 C0.67 2.68 0.34 1.36 0 0 Z " fill="#3A2A78" transform="translate(225,398)"/>
<path d="M0 0 C0.33 0 0.66 0 1 0 C1.49704654 12.55042506 1.66202022 24.02998635 -6.4609375 34.4453125 C-12.71617149 40.7640514 -22.10903993 46.11090399 -31 47 C-30 45 -30 45 -27.125 43.875 C-17.85129344 40.05865985 -10.33705934 33.4055049 -5 25 C-4.57847656 24.33742187 -4.15695312 23.67484375 -3.72265625 22.9921875 C0.07523215 15.88297292 -0.19326317 7.87547419 0 0 Z " fill="#3447C4" transform="translate(355,141)"/>
<path d="M0 0 C0.33 0.99 0.66 1.98 1 3 C-3.62465446 11.6014974 -11.93031055 17.72179899 -21 21 C-21.99 20.67 -22.98 20.34 -24 20 C-23.27554688 19.443125 -22.55109375 18.88625 -21.8046875 18.3125 C-15.95761664 13.69721207 -11.05284769 9.2759287 -7 3 C-6.01 4.485 -6.01 4.485 -5 6 C-3.35 4.02 -1.7 2.04 0 0 Z " fill="#664AE2" transform="translate(274,218)"/>
<path d="M0 0 C3 1 3 1 5 3 C6.83988051 3.77545905 6.83988051 3.77545905 8.95703125 4.40234375 C10.13168945 4.77842773 10.13168945 4.77842773 11.33007812 5.16210938 C12.97323734 5.67535423 14.61646552 6.18837831 16.25976562 6.70117188 C20.4821511 8.0533035 24.39852671 9.31898438 28 12 C28 12.66 28 13.32 28 14 C20.57013211 13.00240251 13.98258907 11.04632201 7.04296875 8.21875 C4.06004454 7.02404865 1.05713346 5.98705654 -2 5 C-1.34 3.35 -0.68 1.7 0 0 Z " fill="#2C45BB" transform="translate(177,194)"/>
<path d="M0 0 C0.66 0 1.32 0 2 0 C2.33 2.64 2.66 5.28 3 8 C2.34 8 1.68 8 1 8 C-1.10293003 14.30879008 0.18767331 19.36764245 2.5 25.4375 C2.73847656 26.07365234 2.97695313 26.70980469 3.22265625 27.36523438 C3.80490924 28.91402732 4.40101069 30.45760253 5 32 C3.171875 31.4453125 3.171875 31.4453125 1 30 C-0.12379842 27.58087604 -0.97592506 25.40203724 -1.75 22.875 C-1.96462891 22.19574463 -2.17925781 21.51648926 -2.40039062 20.81665039 C-4.33959903 14.38879016 -5.21079362 9.89537606 -2.5625 3.5625 C-1 1 -1 1 0 0 Z " fill="#4B2A81" transform="translate(275,171)"/>
<path d="M0 0 C7.34959663 1.24126521 12.51223592 2.92302864 17.375 8.9375 C19.03601447 12.06787342 19.56099833 13.54051028 19 17 C18.34 17.99 17.68 18.98 17 20 C16.34 20 15.68 20 15 20 C14.79246094 19.27554687 14.58492188 18.55109375 14.37109375 17.8046875 C12.18268627 10.93730002 9.9504676 7.05901966 4 3 C3.195625 2.38125 2.39125 1.7625 1.5625 1.125 C1.046875 0.75375 0.53125 0.3825 0 0 Z " fill="#2C45BB" transform="translate(318,388)"/>
<path d="M0 0 C1 3 1 3 -0.36328125 6.3203125 C-1.00267748 7.59378775 -1.65287331 8.86188505 -2.3125 10.125 C-2.63412109 10.77082031 -2.95574219 11.41664063 -3.28710938 12.08203125 C-5.72829433 16.86414717 -5.72829433 16.86414717 -8 18 C-7.67 16.02 -7.34 14.04 -7 12 C-14.52674117 16.68330561 -16.51491636 20.75163727 -19 29 C-20.32 28.01 -21.64 27.02 -23 26 C-22.67 25.34 -22.34 24.68 -22 24 C-21.34 24.33 -20.68 24.66 -20 25 C-19.90332031 24.26007813 -19.80664062 23.52015625 -19.70703125 22.7578125 C-18.90623927 19.63428134 -17.84847809 18.23495466 -15.6875 15.875 C-14.79611328 14.88113281 -14.79611328 14.88113281 -13.88671875 13.8671875 C-8.96861925 9 -8.96861925 9 -4 9 C-3.71125 7.88625 -3.4225 6.7725 -3.125 5.625 C-2 2 -2 2 0 0 Z " fill="#4E2A83" transform="translate(287,149)"/>
<path d="M0 0 C0.9075 0.33 1.815 0.66 2.75 1 C6.32954461 2.10363242 9.22991052 1.83833516 12.9375 1.5 C16.84640374 1.40239941 18.37920722 1.44864481 21.33984375 4.078125 C22.69287062 5.8544597 23.99999291 7.66674272 25.2578125 9.51171875 C27.95273563 13.36074573 30.86737596 15.32653978 35.375 16.75 C35.91125 16.8325 36.4475 16.915 37 17 C37 17.33 37 17.66 37 18 C30.64062188 17.66529589 26.67086342 16.42372779 22 12 C19.77135387 8.98054395 19 7.75856468 19 4 C18.01 4.495 18.01 4.495 17 5 C10.09810449 5.76968122 5.69306773 4.96039495 0 1 C0 0.67 0 0.34 0 0 Z " fill="#2B2B6E" transform="translate(198,225)"/>
<path d="M0 0 C0.66 0.33 1.32 0.66 2 1 C1.02262231 2.64689635 0.0430468 4.29248854 -0.9375 5.9375 C-1.48277344 6.85402344 -2.02804688 7.77054687 -2.58984375 8.71484375 C-4 11 -4 11 -5 12 C-6.85287502 12.07226502 -8.70833878 12.0838122 -10.5625 12.0625 C-11.57441406 12.05347656 -12.58632812 12.04445313 -13.62890625 12.03515625 C-14.41136719 12.02355469 -15.19382813 12.01195312 -16 12 C-11.53122354 6.91484058 -6.00190775 3.11210031 0 0 Z " fill="#7A4CEA" transform="translate(210,250)"/>
<path d="M0 0 C-0.33 0.66 -0.66 1.32 -1 2 C-3.08203125 2.5625 -3.08203125 2.5625 -5.8125 3 C-6.80636719 3.165 -7.80023438 3.33 -8.82421875 3.5 C-10.39623047 3.7475 -10.39623047 3.7475 -12 4 C-19.05659019 5.14479537 -26.03650876 6.37518538 -33 8 C-33.33 7.01 -33.66 6.02 -34 5 C-22.50384097 1.73029062 -12.04028407 -0.89704103 0 0 Z " fill="#764BE6" transform="translate(207,232)"/>
<path d="M0 0 C0.83724609 0.42152344 0.83724609 0.42152344 1.69140625 0.8515625 C2.45324219 1.23054687 3.21507813 1.60953125 4 2 C4.75152344 2.37898437 5.50304687 2.75796875 6.27734375 3.1484375 C15.50917265 7.40511044 25.06061042 8.95673531 35.03564453 10.59863281 C37 11 37 11 39 12 C39 12.66 39 13.32 39 14 C38.40356689 13.87810303 37.80713379 13.75620605 37.19262695 13.63061523 C32.6715067 12.71533946 28.14820796 11.83681611 23.60546875 11.03515625 C22.71279297 10.87466797 21.82011719 10.71417969 20.90039062 10.54882812 C19.0735381 10.2213362 17.24536051 9.9011611 15.41601562 9.58789062 C10.74084273 8.73445906 6.83928475 7.98948259 3 5 C1.1875 2.3125 1.1875 2.3125 0 0 Z " fill="#794DED" transform="translate(119,204)"/>
<path d="M0 0 C0.99 0 1.98 0 3 0 C4.32 4.29 5.64 8.58 7 13 C9.64 13.33 12.28 13.66 15 14 C15.33 14.99 15.66 15.98 16 17 C12.04 17.33 8.08 17.66 4 18 C2.68 12.06 1.36 6.12 0 0 Z " fill="#8045D7" transform="translate(200,317)"/>
<path d="M0 0 C5.74668726 1.48949063 11.35050592 3.06301171 16.875 5.23828125 C21.16253227 6.77517241 25.59392803 7.85798502 30 9 C30 9.66 30 10.32 30 11 C18.92726712 10.7559117 9.76474303 6.99184173 0 2 C0 1.34 0 0.68 0 0 Z " fill="#372B76" transform="translate(250,357)"/>
<path d="M0 0 C0.33 0 0.66 0 1 0 C1.04898438 0.83144531 1.09796875 1.66289062 1.1484375 2.51953125 C1.22320312 3.60621094 1.29796875 4.69289062 1.375 5.8125 C1.44460937 6.89144531 1.51421875 7.97039062 1.5859375 9.08203125 C1.81195733 12.18626186 1.81195733 12.18626186 4 15 C3.875 17.0625 3.875 17.0625 3 19 C1.02 19.99 1.02 19.99 -1 21 C-1.33 16.71 -1.66 12.42 -2 8 C-2.99 8.495 -2.99 8.495 -4 9 C-4 6.69 -4 4.38 -4 2 C-3.34 1.67 -2.68 1.34 -2 1 C-1.34 1.33 -0.68 1.66 0 2 C0 1.34 0 0.68 0 0 Z " fill="#460406" transform="translate(246,178)"/>
<path d="M0 0 C0 0.33 0 0.66 0 1 C-0.62003906 1.02835938 -1.24007812 1.05671875 -1.87890625 1.0859375 C-9.51983172 1.90897751 -14.52109925 4.87961961 -20.60766602 9.28076172 C-24.60545966 12.16545685 -28.32098593 14.37816783 -33 16 C-33.99 15.67 -34.98 15.34 -36 15 C-35.36835938 14.67128906 -34.73671875 14.34257812 -34.0859375 14.00390625 C-27.73596478 10.62762393 -21.67494849 6.95451254 -15.68505859 2.98461914 C-9.74003473 -0.92658077 -6.81147943 -1.00497237 0 0 Z " fill="#7F4BED" transform="translate(282,143)"/>
<path d="M0 0 C0 0.99 0 1.98 0 3 C-1.609375 4.53515625 -1.609375 4.53515625 -3.75 6.0625 C-4.44609375 6.56910156 -5.1421875 7.07570312 -5.859375 7.59765625 C-9.54537782 10.01239167 -12.16323955 11.29011659 -16.625 11.3125 C-17.40101563 11.32925781 -18.17703125 11.34601563 -18.9765625 11.36328125 C-19.97816406 11.18345703 -19.97816406 11.18345703 -21 11 C-21.66 10.01 -22.32 9.02 -23 8 C-22.26136719 7.92523438 -21.52273438 7.85046875 -20.76171875 7.7734375 C-12.75441081 6.73564155 -6.82277232 4.27094803 0 0 Z " fill="#7A4DEB" transform="translate(330,190)"/>
<path d="M0 0 C0.66 0.33 1.32 0.66 2 1 C-7.51015533 8.15104703 -20.76196927 14.76487692 -33 14 C-33.33 13.34 -33.66 12.68 -34 12 C-32.87078125 11.77957031 -32.87078125 11.77957031 -31.71875 11.5546875 C-25.09480132 10.15594106 -18.83419444 8.3731215 -12.5 6 C-11.49549805 5.62657471 -11.49549805 5.62657471 -10.47070312 5.24560547 C-7.52222843 4.11209065 -4.8503483 2.90790665 -2.15625 1.25 C-1.4446875 0.8375 -0.733125 0.425 0 0 Z " fill="#724AE2" transform="translate(357,221)"/>
<path d="M0 0 C0.99 0.99 1.98 1.98 3 3 C3.66 2.01 4.32 1.02 5 0 C5.32890414 4.71429263 4.90949509 7.24581279 2 11 C-1.30435285 14.21655604 -4.65110636 17.3140472 -9 19 C-9.99 18.67 -10.98 18.34 -12 18 C-11.0925 17.443125 -10.185 16.88625 -9.25 16.3125 C-3.44199503 12.17988108 -1.59071851 8.63026246 -0.296875 1.79296875 C-0.19890625 1.20128906 -0.1009375 0.60960937 0 0 Z " fill="#764BE6" transform="translate(224,407)"/>
<path d="M0 0 C1.17949219 0.49113281 1.17949219 0.49113281 2.3828125 0.9921875 C6.97521422 2.27171195 11.13792039 2.21774403 15.875 2.125 C16.75414062 2.11597656 17.63328125 2.10695312 18.5390625 2.09765625 C20.6928271 2.07424577 22.84645014 2.0383801 25 2 C24 4 24 4 21.34765625 5.09765625 C15.78796367 6.59624316 8.29200518 7.83035488 3.046875 4.9140625 C1.6875 3.5625 1.6875 3.5625 0 1 C0 0.67 0 0.34 0 0 Z " fill="#7E4EEF" transform="translate(319,245)"/>
<path d="M0 0 C-5.83272546 5.83272546 -17.93119408 8.0924096 -26.0625 8.125 C-27.031875 8.08375 -28.00125 8.0425 -29 8 C-24.16371834 4.77581223 -18.530103 3.3968789 -12.8125 2.5 C-10.2973333 2.05285925 -8.59879091 1.43240955 -6.3125 0.375 C-3 -1 -3 -1 0 0 Z " fill="#2942B1" transform="translate(357,205)"/>
<path d="M0 0 C0.8971875 0.309375 0.8971875 0.309375 1.8125 0.625 C0.44294968 4.61952176 -1.2801199 7.54659754 -4.1875 10.625 C-6.4375 11.4375 -6.4375 11.4375 -8.1875 11.625 C-6.8675 9.645 -5.5475 7.665 -4.1875 5.625 C-6.1675 5.955 -8.1475 6.285 -10.1875 6.625 C-3.20231959 -0.54896907 -3.20231959 -0.54896907 0 0 Z " fill="#6147D7" transform="translate(267.1875,237.375)"/>
<path d="M0 0 C2.97 0 5.94 0 9 0 C9 0.66 9 1.32 9 2 C7.68 2.33 6.36 2.66 5 3 C5.99 3.66 6.98 4.32 8 5 C6.02 5 4.04 5 2 5 C2 5.66 2 6.32 2 7 C4.31 7 6.62 7 9 7 C9 7.66 9 8.32 9 9 C6.03 9 3.06 9 0 9 C0 6.03 0 3.06 0 0 Z " fill="#8045D9" transform="translate(273,316)"/>
<path d="M0 0 C0 0.33 0 0.66 0 1 C-5.625 3 -5.625 3 -9 3 C-10.04994141 3.05220703 -10.04994141 3.05220703 -11.12109375 3.10546875 C-17.43768634 3.32915921 -17.43768634 3.32915921 -20.5625 1.5 C-21.036875 1.005 -21.51125 0.51 -22 0 C-15.08147006 -2.30617665 -7.10564672 -1.07255045 0 0 Z " fill="#7246D8" transform="translate(206,217)"/>
<path d="M0 0 C0.66 0.33 1.32 0.66 2 1 C0.60901032 4.46499388 -0.63103245 5.67306551 -4.02734375 7.17578125 C-4.81947266 7.52833984 -5.61160156 7.88089844 -6.42773438 8.24414062 C-7.25595703 8.59669922 -8.08417969 8.94925781 -8.9375 9.3125 C-9.76185547 9.68439453 -10.58621094 10.05628906 -11.43554688 10.43945312 C-17.60618073 13.13127309 -17.60618073 13.13127309 -21 12 C-20.5059668 11.74307373 -20.01193359 11.48614746 -19.50292969 11.22143555 C-17.25001235 10.04713806 -14.99999953 8.8673778 -12.75 7.6875 C-11.97269531 7.28337891 -11.19539063 6.87925781 -10.39453125 6.46289062 C-6.71990181 4.53135464 -3.20993621 2.66631798 0 0 Z " fill="#7A4CEB" transform="translate(362,196)"/>
<path d="M0 0 C4.8260842 7.23912631 4.83982916 16.75106776 3.5 25.125 C3.335 25.74375 3.17 26.3625 3 27 C2.67 27 2.34 27 2 27 C1.86722656 25.69804687 1.73445312 24.39609375 1.59765625 23.0546875 C1.41936886 21.32811487 1.24097798 19.60155293 1.0625 17.875 C0.93198242 16.59109375 0.93198242 16.59109375 0.79882812 15.28125 C0.42245845 11.65694941 0.01732547 8.0962048 -0.62890625 4.5078125 C-1 2 -1 2 0 0 Z " fill="#764DEC" transform="translate(248,411)"/>
<path d="M0 0 C1.7325 0.1546875 1.7325 0.1546875 3.5 0.3125 C4.16 1.3025 4.82 2.2925 5.5 3.3125 C2.86 3.3125 0.22 3.3125 -2.5 3.3125 C-2.5 4.3025 -2.5 5.2925 -2.5 6.3125 C0.69902639 6.40136184 3.42677456 6.22308531 6.5 5.3125 C5.5 8.3125 5.5 8.3125 3.5 9.3125 C0 9.5 0 9.5 -3.5 9.3125 C-5.5 7.3125 -5.5 7.3125 -5.75 4.8125 C-5.33562907 0.66879066 -4.02091338 0.35901012 0 0 Z " fill="#8449E4" transform="translate(230.5,315.6875)"/>
<path d="M0 0 C1.50626953 0.39832031 1.50626953 0.39832031 3.04296875 0.8046875 C11.66399306 3.04462948 20.15658476 4.84914459 29 6 C29 6.33 29 6.66 29 7 C18.73753633 7.5860544 10.15468433 7.46301235 1 2 C0.67 1.34 0.34 0.68 0 0 Z " fill="#362971" transform="translate(146,208)"/>
<path d="M0 0 C1.32 0.33 2.64 0.66 4 1 C7 6.03571429 7 6.03571429 7 9 C4.36 8.34 1.72 7.68 -1 7 C-1 7.66 -1 8.32 -1 9 C-1.99 8.67 -2.98 8.34 -4 8 C-2.68 5.36 -1.36 2.72 0 0 Z " fill="#7639B3" transform="translate(246,315)"/>
<path d="M0 0 C0.33 0 0.66 0 1 0 C2.02962974 4.2585486 2.16607978 8.31349022 2.1875 12.6875 C2.19974609 13.36361328 2.21199219 14.03972656 2.22460938 14.73632812 C2.2298516 16.49247427 2.12232123 18.24811122 2 20 C1.34 20.66 0.68 21.32 0 22 C-0.66 22 -1.32 22 -2 22 C-1.34 14.74 -0.68 7.48 0 0 Z " fill="#3B2873" transform="translate(356,144)"/>
<path d="M0 0 C2.97 0 5.94 0 9 0 C9 0.66 9 1.32 9 2 C6.69 2 4.38 2 2 2 C2 2.66 2 3.32 2 4 C3.98 4 5.96 4 8 4 C8 4.66 8 5.32 8 6 C6.02 6 4.04 6 2 6 C2 6.99 2 7.98 2 9 C1.34 9 0.68 9 0 9 C0 6.03 0 3.06 0 0 Z " fill="#8247DF" transform="translate(259,315)"/>
<path d="M0 0 C1.64548828 0.74056641 1.64548828 0.74056641 3.32421875 1.49609375 C4.77852726 2.1434956 6.23296097 2.79061624 7.6875 3.4375 C8.40873047 3.76298828 9.12996094 4.08847656 9.87304688 4.42382812 C13.56546832 6.0592842 16.96466087 7.43489334 21 8 C21 8.66 21 9.32 21 10 C13.42444808 8.47565114 6.74080405 6.83300623 0 3 C0 2.01 0 1.02 0 0 Z " fill="#382D7C" transform="translate(170,182)"/>
<path d="M0 0 C0.33 0.66 0.66 1.32 1 2 C0.39671875 2.12117187 -0.2065625 2.24234375 -0.828125 2.3671875 C-1.62734375 2.53476563 -2.4265625 2.70234375 -3.25 2.875 C-4.03890625 3.03742188 -4.8278125 3.19984375 -5.640625 3.3671875 C-7.96831144 3.99150075 -9.89031952 4.84838542 -12 6 C-12.99 5.01 -13.98 4.02 -15 3 C-10.27805833 -0.77755334 -5.74071928 -0.30096975 0 0 Z " fill="#8348E2" transform="translate(303,138)"/>
<path d="M0 0 C1.39456452 0.00667256 2.78911118 0.01863093 4.18359375 0.03515625 C4.89451172 0.03966797 5.60542969 0.04417969 6.33789062 0.04882812 C8.09899388 0.06064761 9.86005411 0.07858362 11.62109375 0.09765625 C9.2234619 2.4952881 8.28835877 2.44046211 4.99609375 2.72265625 C4.17882812 2.79742187 3.3615625 2.8721875 2.51953125 2.94921875 C1.89304688 2.99820313 1.2665625 3.0471875 0.62109375 3.09765625 C0.62109375 3.42765625 0.62109375 3.75765625 0.62109375 4.09765625 C-1.02890625 4.09765625 -2.67890625 4.09765625 -4.37890625 4.09765625 C-4.37890625 -0.15064195 -4.30393435 0.12439117 0 0 Z " fill="#8550F8" transform="translate(204.37890625,217.90234375)"/>
<path d="M0 0 C-1.75 5.75 -1.75 5.75 -4 8 C-7.625 8.125 -7.625 8.125 -11 8 C-3.28571429 0 -3.28571429 0 0 0 Z " fill="#203E9E" transform="translate(209,254)"/>
<path d="M0 0 C-1.72569639 1.13031603 -3.45571739 2.25403107 -5.1875 3.375 C-6.15042969 4.00148438 -7.11335937 4.62796875 -8.10546875 5.2734375 C-10.72780779 6.83763974 -13.0827171 8.10765464 -16 9 C-16.99 8.67 -17.98 8.34 -19 8 C-16.40251918 6.4666195 -13.79812104 4.94820332 -11.1875 3.4375 C-10.44951172 2.99986328 -9.71152344 2.56222656 -8.95117188 2.11132812 C-8.23896484 1.70205078 -7.52675781 1.29277344 -6.79296875 0.87109375 C-6.1383667 0.48880615 -5.48376465 0.10651855 -4.80932617 -0.28735352 C-3 -1 -3 -1 0 0 Z " fill="#2A2B70" transform="translate(199,252)"/>
<path d="M0 0 C0.66 0.33 1.32 0.66 2 1 C0.16429724 5.78302552 -3.01232468 6.86651137 -7.4453125 8.9609375 C-10.28666386 10.11659417 -12.94019871 10.75843674 -16 11 C-14.63051583 8.26103166 -12.77930887 8.08707285 -10.0546875 6.99609375 C-6.34301594 5.19670925 -3.2044033 2.57184577 0 0 Z " fill="#3444BC" transform="translate(340,177)"/>
<path d="M0 0 C0.33 0 0.66 0 1 0 C1.06058594 1.05058594 1.12117187 2.10117187 1.18359375 3.18359375 C1.61546473 10.48282152 2.09263954 17.74111635 3 25 C0.7522025 22.94766315 -0.0022242 21.99332739 -1 19 C-1.01546261 17.51645847 -0.96835798 16.03170426 -0.87890625 14.55078125 C-0.83056641 13.70322266 -0.78222656 12.85566406 -0.73242188 11.98242188 C-0.67634766 11.10134766 -0.62027344 10.22027344 -0.5625 9.3125 C-0.51029297 8.41982422 -0.45808594 7.52714844 -0.40429688 6.60742188 C-0.2747182 4.4045844 -0.13975754 2.20221127 0 0 Z " fill="#3F3AA5" transform="translate(216,360)"/>
<path d="M0 0 C5.37992836 0.33990833 9.53273547 0.68557793 14 4 C10.52487282 5.15837573 8.86329714 4.77265943 5.3125 4.0625 C4.31863281 3.86785156 3.32476562 3.67320312 2.30078125 3.47265625 C1.54152344 3.31667969 0.78226563 3.16070312 0 3 C0 2.01 0 1.02 0 0 Z " fill="#7047DA" transform="translate(171,207)"/>
<path d="M0 0 C0.66 0.33 1.32 0.66 2 1 C-1.04722047 5.5098863 -3.876604 7.23009956 -9 9 C-9.99 9 -10.98 9 -12 9 C-12 8.34 -12 7.68 -12 7 C-11.21753906 6.57847656 -10.43507813 6.15695313 -9.62890625 5.72265625 C-8.61699219 5.17480469 -7.60507812 4.62695312 -6.5625 4.0625 C-5.55316406 3.51722656 -4.54382813 2.97195312 -3.50390625 2.41015625 C-1.13329507 1.22300532 -1.13329507 1.22300532 0 0 Z " fill="#2F48C3" transform="translate(368,196)"/>
<path d="M0 0 C0 3.18660675 -0.84545836 5.14666435 -2.1328125 8.015625 C-3.56414142 11.29091821 -4.76454642 14.64662599 -6 18 C-6.33 18 -6.66 18 -7 18 C-7.49639398 12.04327229 -6.26415547 8.02177765 -3 3 C-2.0293759 1.97146276 -1.03643226 0.96218926 0 0 Z " fill="#7A49E6" transform="translate(252,162)"/>
<path d="M0 0 C0.33 0 0.66 0 1 0 C1.05425013 2.87525669 1.09379277 5.74947646 1.125 8.625 C1.14175781 9.43324219 1.15851563 10.24148437 1.17578125 11.07421875 C1.2137095 15.73939377 1.04920863 19.69801898 -1 24 C-1.99 24.33 -2.98 24.66 -4 25 C-3.525625 23.845 -3.05125 22.69 -2.5625 21.5 C-0.20133866 14.56130417 -0.25833567 7.26012318 0 0 Z " fill="#4649D2" transform="translate(355,141)"/>
<path d="M0 0 C0.33 0.99 0.66 1.98 1 3 C3.00016466 4.20882096 3.00016466 4.20882096 5 5 C4.75 6.875 4.75 6.875 4 9 C2.02 9.99 2.02 9.99 0 11 C0 7.37 0 3.74 0 0 Z " fill="#622A2C" transform="translate(245,188)"/>
<path d="M0 0 C0.66 0.66 1.32 1.32 2 2 C1.58818086 7.49092191 -0.35682272 12.77076916 -2 18 C-3.51553092 14.02549507 -2.49888623 10.79518851 -1.5625 6.75 C-1.27503906 5.48671875 -0.98757812 4.2234375 -0.69140625 2.921875 C-0.46324219 1.95765625 -0.23507813 0.9934375 0 0 Z " fill="#845757" transform="translate(197,338)"/>
<path d="M0 0 C-2.97968541 1.52095311 -5.98710845 2.93263771 -9.0625 4.25 C-9.91972656 4.62640625 -10.77695313 5.0028125 -11.66015625 5.390625 C-12.43230469 5.59171875 -13.20445312 5.7928125 -14 6 C-14.99 5.34 -15.98 4.68 -17 4 C-11.15439723 1.36536213 -6.45512034 -0.56131481 0 0 Z " fill="#6F4ADE" transform="translate(207,244)"/>
<path d="M0 0 C-3.40858586 3.40858586 -8.32201465 3.93008394 -13 4.125 C-13.66 4.08375 -14.32 4.0425 -15 4 C-15.33 3.34 -15.66 2.68 -16 2 C-14.27192682 1.66104344 -12.54248026 1.32908475 -10.8125 1 C-9.84957031 0.814375 -8.88664062 0.62875 -7.89453125 0.4375 C-5.2065794 0.03122388 -2.71228981 -0.07933572 0 0 Z " fill="#804FF4" transform="translate(339,231)"/>
<path d="M0 0 C2.12560437 0.30836232 4.25047065 0.62181614 6.375 0.9375 C8.15003906 1.19853516 8.15003906 1.19853516 9.9609375 1.46484375 C13 2 13 2 15 3 C15 3.66 15 4.32 15 5 C10 4 5 3 0 2 C0 1.34 0 0.68 0 0 Z " fill="#6945D2" transform="translate(143,213)"/>
<path d="M0 0 C3.17218843 3.62535821 4.42902597 7.51150278 6 12 C5.34 12.66 4.68 13.32 4 14 C3.32471777 12.42032193 2.66010306 10.83608097 2 9.25 C1.62875 8.36828125 1.2575 7.4865625 0.875 6.578125 C0 4 0 4 0 0 Z " fill="#784BE8" transform="translate(219,363)"/>
<path d="M0 0 C0.99 0 1.98 0 3 0 C2.125 6.75 2.125 6.75 1 9 C0.34 9 -0.32 9 -1 9 C-0.67 6.03 -0.34 3.06 0 0 Z " fill="#8247DF" transform="translate(302,317)"/>
<path d="M0 0 C0.99 0 1.98 0 3 0 C3.66 2.97 4.32 5.94 5 9 C4.01 9 3.02 9 2 9 C1.34 6.03 0.68 3.06 0 0 Z " fill="#854AE7" transform="translate(200,317)"/>
<path d="M0 0 C5.61 0.33 11.22 0.66 17 1 C17 1.33 17 1.66 17 2 C13.7 2 10.4 2 7 2 C7 2.66 7 3.32 7 4 C4.08482708 2.92598892 2.22189824 2.22189824 0 0 Z " fill="#6941C6" transform="translate(151,255)"/>
<path d="M0 0 C4.19469571 0.59924224 8.00999834 1.57499941 12 3 C12 3.33 12 3.66 12 4 C7.17639811 4.19294408 3.50353262 3.75747614 -1 2 C-0.67 1.34 -0.34 0.68 0 0 Z " fill="#794DED" transform="translate(175,191)"/>
<path d="M0 0 C5.445 1.485 5.445 1.485 11 3 C11 3.66 11 4.32 11 5 C11.66 5.66 12.32 6.32 13 7 C8.14036821 6.39254603 4.2594482 4.27241033 0 2 C0 1.34 0 0.68 0 0 Z " fill="#51369E" transform="translate(250,357)"/>
<path d="M0 0 C-0.598125 0.28875 -1.19625 0.5775 -1.8125 0.875 C-4.19327792 2.04742026 -4.19327792 2.04742026 -7 4 C-9.33199388 4.07905064 -11.66832622 4.08798769 -14 4 C-11.58592302 2.39061535 -9.65955563 1.34509262 -7 0.3125 C-5.9790625 -0.09548828 -5.9790625 -0.09548828 -4.9375 -0.51171875 C-3 -1 -3 -1 0 0 Z " fill="#463DAE" transform="translate(342,209)"/>
<path d="M0 0 C2.11386464 2.11386464 2.97008322 3.79267603 4.1875 6.5 C4.55230469 7.2940625 4.91710937 8.088125 5.29296875 8.90625 C5.52628906 9.5971875 5.75960937 10.288125 6 11 C5.67 11.66 5.34 12.32 5 13 C3.96387729 11.59447701 2.94655075 10.17508306 1.9375 8.75 C1.36902344 7.96109375 0.80054688 7.1721875 0.21484375 6.359375 C-1 4 -1 4 -0.68359375 1.703125 C-0.45800781 1.14109375 -0.23242188 0.5790625 0 0 Z " fill="#784DED" transform="translate(174,143)"/>
<path d="M0 0 C0.99 0.99 1.98 1.98 3 3 C2.01 5.97 1.02 8.94 0 12 C-0.33 12 -0.66 12 -1 12 C-1.02687279 10.18757948 -1.04633715 8.37504767 -1.0625 6.5625 C-1.07410156 5.55316406 -1.08570313 4.54382813 -1.09765625 3.50390625 C-1 1 -1 1 0 0 Z " fill="#3D1135" transform="translate(270,428)"/>
<path d="M0 0 C0.33 0 0.66 0 1 0 C2.32286246 4.96073422 2.08893197 9.91111512 2 15 C1.67 15 1.34 15 1 15 C0.63684334 13.0641649 0.28477269 11.12624752 -0.0625 9.1875 C-0.25972656 8.10855469 -0.45695312 7.02960938 -0.66015625 5.91796875 C-1 3 -1 3 0 0 Z " fill="#373086" transform="translate(303,413)"/>
<path d="M0 0 C0.66 0.99 1.32 1.98 2 3 C-0.48743095 7.08649371 -1.61364256 8.80682128 -6 11 C-4.02 7.37 -2.04 3.74 0 0 Z " fill="#6947D8" transform="translate(369,152)"/>
<path d="M0 0 C1.485 0.99 1.485 0.99 3 2 C1.25 9.75 1.25 9.75 -1 12 C-0.67 8.04 -0.34 4.08 0 0 Z " fill="#652D2D" transform="translate(206,393)"/>
<path d="M0 0 C0 0.33 0 0.66 0 1 C-6.435 1.495 -6.435 1.495 -13 2 C-8.93497316 -2.06502684 -5.21168103 -0.76893655 0 0 Z " fill="#7446DF" transform="translate(282,143)"/>
<path d="M0 0 C1.95216435 3.90432869 2.50639991 6.72213252 3 11 C2.01 11.33 1.02 11.66 0 12 C0 8.04 0 4.08 0 0 Z " fill="#3F2872" transform="translate(381,126)"/>
<path d="M0 0 C0.33 0.99 0.66 1.98 1 3 C0.67 3.66 0.34 4.32 0 5 C0.99 5.33 1.98 5.66 3 6 C1.68 6 0.36 6 -1 6 C-1 6.66 -1 7.32 -1 8 C-1.99 7.67 -2.98 7.34 -4 7 C-2.68 4.69 -1.36 2.38 0 0 Z " fill="#874DF1" transform="translate(246,316)"/>
<path d="M0 0 C-1.0625 1.5 -1.0625 1.5 -3 3 C-6.6875 3.1875 -6.6875 3.1875 -10 3 C-6.84439813 -0.15560187 -4.30999015 -1.43666338 0 0 Z " fill="#7F43D3" transform="translate(237,322)"/>
<path d="M0 0 C2.95409701 1.37154504 5.44008376 2.98863724 8 5 C7.67 5.66 7.34 6.32 7 7 C3.17053157 5.54744301 1.87949705 3.57104439 0 0 Z " fill="#764AE2" transform="translate(119,204)"/>
<path d="M0 0 C-0.33 0.66 -0.66 1.32 -1 2 C-4.0625 2.625 -4.0625 2.625 -7 3 C-7.33 2.01 -7.66 1.02 -8 0 C-4.94736336 -0.98120464 -3.05263664 -0.98120464 0 0 Z " fill="#744AE3" transform="translate(181,237)"/>
<path d="M0 0 C0.66 0.33 1.32 0.66 2 1 C2 1.99 2 2.98 2 4 C-2.625 6.125 -2.625 6.125 -6 5 C-4.02 3.35 -2.04 1.7 0 0 Z " fill="#5C40CA" transform="translate(256,233)"/>
<path d="M0 0 C1.45903258 0.30921884 2.91720722 0.62248799 4.375 0.9375 C5.18710938 1.11152344 5.99921875 1.28554687 6.8359375 1.46484375 C9 2 9 2 11 3 C11 3.66 11 4.32 11 5 C9.54096742 4.69078116 8.08279278 4.37751201 6.625 4.0625 C5.81289062 3.88847656 5.00078125 3.71445313 4.1640625 3.53515625 C2 3 2 3 0 2 C0 1.34 0 0.68 0 0 Z " fill="#363594" transform="translate(180,187)"/>
<path d="M0 0 C0.66 0.33 1.32 0.66 2 1 C-2.75 5.875 -2.75 5.875 -5 7 C-4.1875 4.0625 -4.1875 4.0625 -3 1 C-2.01 0.67 -1.02 0.34 0 0 Z " fill="#3144B7" transform="translate(346,245)"/>
<path d="M0 0 C0.66 0.33 1.32 0.66 2 1 C2 1.99 2 2.98 2 4 C-0.31 4.33 -2.62 4.66 -5 5 C-3.35 3.35 -1.7 1.7 0 0 Z " fill="#563AB5" transform="translate(262,239)"/>
<path d="M0 0 C1.32 0.33 2.64 0.66 4 1 C3.34 2.32 2.68 3.64 2 5 C0.68 4.34 -0.64 3.68 -2 3 C-1.34 2.01 -0.68 1.02 0 0 Z " fill="#674BE6" transform="translate(265,237)"/>
<path d="M0 0 C1.2077558 3.62326739 0.54311128 4.64146369 -1 8 C-1.99 8 -2.98 8 -4 8 C-2.87548273 5.0280615 -1.77706209 2.66559313 0 0 Z " fill="#1A3D9B" transform="translate(259,209)"/>
<path d="M0 0 C3.375 -0.1875 3.375 -0.1875 7 0 C7.66 0.99 8.32 1.98 9 3 C2.84765625 2.4140625 2.84765625 2.4140625 1 2 C0.67 1.34 0.34 0.68 0 0 Z " fill="#7D4EF1" transform="translate(176,209)"/>
<path d="M0 0 C2.64752004 2.57784846 4.94432065 4.91648098 7 8 C6.34 8.66 5.68 9.32 5 10 C4.16121545 8.71186658 3.32913217 7.41936744 2.5 6.125 C2.0359375 5.40570313 1.571875 4.68640625 1.09375 3.9453125 C0 2 0 2 0 0 Z " fill="#683CBF" transform="translate(363,96)"/>
</svg>
